<ttFont>
<head>
    <!-- Most of this table will be recalculated by the compiler -->
    <tableVersion value="1.0"/>
    <fontRevision value="1.0"/>
    <checkSumAdjustment value="0x8608cb79"/>
    <magicNumber value="0x5f0f3cf5"/>
    <flags value="00000000 00011011"/>
    <unitsPerEm value="1000"/>
    <created value="Sat Dec  6 13:43:38 2025"/>
    <modified value="Sat Dec  6 13:47:29 2025"/>
    <xMin value="-30"/>
    <yMin value="-955"/>
    <xMax value="1185"/>
    <yMax value="779"/>
    <macStyle value="00000000 00000010"/>
    <lowestRecPPEM value="6"/>
    <fontDirectionHint value="2"/>
    <indexToLocFormat value="0"/>
    <glyphDataFormat value="0"/>
  </head>
    <TTGlyph name="A" xMin="28" yMin="-51" xMax="847" yMax="723">
      <contour>
        <pt x="362" y="164" on="1"/>
        <pt x="355" y="164" on="0"/>
        <pt x="349" y="164" on="0"/>
        <pt x="341" y="165" on="1"/>
        <pt x="315" y="129" on="0"/>
        <pt x="259" y="52" on="0"/>
        <pt x="203" y="-11" on="0"/>
        <pt x="149" y="-51" on="0"/>
        <pt x="125" y="-51" on="1"/>
        <pt x="107" y="-51" on="0"/>
        <pt x="72" y="-36" on="0"/>
        <pt x="45" y="-11" on="0"/>
        <pt x="28" y="20" on="0"/>
        <pt x="28" y="35" on="1"/>
        <pt x="28" y="46" on="0"/>
        <pt x="36" y="73" on="0"/>
        <pt x="47" y="97" on="0"/>
        <pt x="60" y="113" on="0"/>
        <pt x="66" y="113" on="1"/>
        <pt x="69" y="113" on="0"/>
        <pt x="72" y="109" on="0"/>
        <pt x="75" y="100" on="1"/>
        <pt x="79" y="88" on="0"/>
        <pt x="97" y="68" on="0"/>
        <pt x="120" y="53" on="0"/>
        <pt x="146" y="45" on="0"/>
        <pt x="158" y="45" on="1"/>
        <pt x="174" y="45" on="0"/>
        <pt x="211" y="72" on="0"/>
        <pt x="247" y="109" on="0"/>
        <pt x="279" y="150" on="0"/>
        <pt x="290" y="165" on="1"/>
        <pt x="295" y="171" on="0"/>
        <pt x="331" y="221" on="0"/>
        <pt x="382" y="296" on="0"/>
        <pt x="443" y="390" on="0"/>
        <pt x="473" y="441" on="1"/>
        <pt x="505" y="494" on="0"/>
        <pt x="546" y="569" on="0"/>
        <pt x="573" y="621" on="0"/>
        <pt x="589" y="654" on="0"/>
        <pt x="595" y="665" on="1"/>
        <pt x="604" y="679" on="1"/>
        <pt x="613" y="690" on="0"/>
        <pt x="634" y="707" on="0"/>
        <pt x="655" y="718" on="0"/>
        <pt x="674" y="723" on="0"/>
        <pt x="679" y="723" on="1"/>
        <pt x="688" y="723" on="0"/>
        <pt x="691" y="715" on="0"/>
        <pt x="691" y="699" on="1"/>
        <pt x="691" y="667" on="1"/>
        <pt x="691" y="597" on="0"/>
        <pt x="698" y="457" on="0"/>
        <pt x="703" y="387" on="1"/>
        <pt x="708" y="321" on="0"/>
        <pt x="721" y="187" on="0"/>
        <pt x="735" y="124" on="1"/>
        <pt x="746" y="76" on="0"/>
        <pt x="764" y="29" on="0"/>
        <pt x="788" y="29" on="1"/>
        <pt x="791" y="29" on="0"/>
        <pt x="796" y="30" on="0"/>
        <pt x="804" y="35" on="1"/>
        <pt x="811" y="38" on="0"/>
        <pt x="828" y="45" on="0"/>
        <pt x="836" y="45" on="1"/>
        <pt x="838" y="45" on="0"/>
        <pt x="847" y="43" on="0"/>
        <pt x="847" y="38" on="1"/>
        <pt x="847" y="30" on="0"/>
        <pt x="820" y="7" on="0"/>
        <pt x="781" y="-14" on="0"/>
        <pt x="737" y="-29" on="0"/>
        <pt x="720" y="-29" on="1"/>
        <pt x="703" y="-29" on="0"/>
        <pt x="682" y="-19" on="0"/>
        <pt x="669" y="-2" on="0"/>
        <pt x="661" y="22" on="0"/>
        <pt x="657" y="36" on="1"/>
        <pt x="649" y="62" on="0"/>
        <pt x="637" y="120" on="0"/>
        <pt x="631" y="164" on="1"/>
      </contour>
      <contour>
        <pt x="591" y="580" on="1"/>
        <pt x="559" y="519" on="0"/>
        <pt x="457" y="335" on="0"/>
        <pt x="371" y="207" on="1"/>
        <pt x="391" y="218" on="0"/>
        <pt x="418" y="222" on="0"/>
        <pt x="429" y="222" on="1"/>
        <pt x="625" y="222" on="1"/>
        <pt x="614" y="317" on="0"/>
        <pt x="603" y="505" on="0"/>
        <pt x="603" y="601" on="1"/>
        <pt x="599" y="597" on="1"/>
      </contour>
    </TTGlyph>
    <TTGlyph name="B" xMin="33" yMin="-21" xMax="697" yMax="705">
      <contour>
        <pt x="264" y="534" on="1"/>
        <pt x="265" y="534" on="1"/>
        <pt x="302" y="581" on="0"/>
        <pt x="385" y="647" on="0"/>
        <pt x="466" y="687" on="0"/>
        <pt x="542" y="705" on="0"/>
        <pt x="572" y="705" on="1"/>
        <pt x="629" y="705" on="0"/>
        <pt x="697" y="647" on="0"/>
        <pt x="697" y="604" on="1"/>
        <pt x="697" y="566" on="0"/>
        <pt x="653" y="504" on="0"/>
        <pt x="591" y="455" on="0"/>
        <pt x="522" y="419" on="0"/>
        <pt x="497" y="407" on="1"/>
        <pt x="521" y="403" on="0"/>
        <pt x="579" y="382" on="0"/>
        <pt x="629" y="342" on="0"/>
        <pt x="662" y="283" on="0"/>
        <pt x="662" y="241" on="1"/>
        <pt x="662" y="201" on="0"/>
        <pt x="629" y="130" on="0"/>
        <pt x="574" y="72" on="0"/>
        <pt x="501" y="27" on="0"/>
        <pt x="419" y="-5" on="0"/>
        <pt x="334" y="-21" on="0"/>
        <pt x="295" y="-21" on="1"/>
        <pt x="254" y="-21" on="0"/>
        <pt x="195" y="-1" on="0"/>
        <pt x="156" y="23" on="0"/>
        <pt x="137" y="45" on="0"/>
        <pt x="137" y="47" on="1"/>
        <pt x="137" y="53" on="0"/>
        <pt x="153" y="70" on="0"/>
        <pt x="177" y="86" on="0"/>
        <pt x="203" y="97" on="0"/>
        <pt x="213" y="97" on="1"/>
        <pt x="218" y="97" on="0"/>
        <pt x="223" y="94" on="0"/>
        <pt x="229" y="88" on="1"/>
        <pt x="262" y="56" on="0"/>
        <pt x="337" y="37" on="0"/>
        <pt x="365" y="37" on="1"/>
        <pt x="387" y="37" on="0"/>
        <pt x="458" y="46" on="0"/>
        <pt x="525" y="78" on="0"/>
        <pt x="573" y="142" on="0"/>
        <pt x="573" y="197" on="1"/>
        <pt x="573" y="235" on="0"/>
        <pt x="541" y="293" on="0"/>
        <pt x="488" y="332" on="0"/>
        <pt x="418" y="352" on="0"/>
        <pt x="379" y="352" on="1"/>
        <pt x="358" y="352" on="0"/>
        <pt x="331" y="347" on="0"/>
        <pt x="325" y="347" on="1"/>
        <pt x="321" y="347" on="0"/>
        <pt x="314" y="349" on="0"/>
        <pt x="314" y="354" on="1"/>
        <pt x="314" y="363" on="0"/>
        <pt x="347" y="392" on="0"/>
        <pt x="385" y="405" on="1"/>
        <pt x="447" y="426" on="0"/>
        <pt x="533" y="459" on="0"/>
        <pt x="585" y="493" on="0"/>
        <pt x="608" y="533" on="0"/>
        <pt x="608" y="560" on="1"/>
        <pt x="608" y="598" on="0"/>
        <pt x="549" y="647" on="0"/>
        <pt x="501" y="647" on="1"/>
        <pt x="458" y="647" on="0"/>
        <pt x="384" y="603" on="0"/>
        <pt x="323" y="532" on="0"/>
        <pt x="274" y="442" on="0"/>
        <pt x="236" y="349" on="0"/>
        <pt x="209" y="261" on="0"/>
        <pt x="200" y="227" on="1"/>
        <pt x="186" y="171" on="0"/>
        <pt x="149" y="80" on="0"/>
        <pt x="124" y="32" on="1"/>
        <pt x="115" y="17" on="0"/>
        <pt x="90" y="-4" on="0"/>
        <pt x="66" y="-16" on="0"/>
        <pt x="47" y="-21" on="0"/>
        <pt x="44" y="-21" on="1"/>
        <pt x="42" y="-21" on="0"/>
        <pt x="33" y="-19" on="0"/>
        <pt x="33" y="-14" on="1"/>
        <pt x="33" y="-12" on="0"/>
        <pt x="36" y="-3" on="0"/>
        <pt x="47" y="16" on="1"/>
        <pt x="82" y="84" on="0"/>
        <pt x="118" y="213" on="0"/>
        <pt x="134" y="284" on="1"/>
        <pt x="162" y="405" on="0"/>
        <pt x="189" y="584" on="0"/>
        <pt x="196" y="632" on="1"/>
        <pt x="165" y="617" on="0"/>
        <pt x="144" y="608" on="0"/>
        <pt x="135" y="608" on="1"/>
        <pt x="133" y="608" on="0"/>
        <pt x="125" y="610" on="0"/>
        <pt x="125" y="616" on="1"/>
        <pt x="125" y="630" on="0"/>
        <pt x="177" y="661" on="0"/>
        <pt x="215" y="679" on="1"/>
        <pt x="244" y="693" on="0"/>
        <pt x="267" y="704" on="0"/>
        <pt x="276" y="704" on="1"/>
        <pt x="287" y="704" on="0"/>
        <pt x="287" y="695" on="1"/>
        <pt x="287" y="693" on="0"/>
        <pt x="287" y="688" on="0"/>
        <pt x="286" y="681" on="1"/>
      </contour>
    </TTGlyph>
    <TTGlyph name="C" xMin="16" yMin="-24" xMax="563" yMax="704">
      <contour>
        <pt x="531" y="158" on="1"/>
        <pt x="531" y="153" on="0"/>
        <pt x="509" y="121" on="0"/>
        <pt x="468" y="81" on="0"/>
        <pt x="411" y="37" on="0"/>
        <pt x="342" y="0" on="0"/>
        <pt x="263" y="-24" on="0"/>
        <pt x="221" y="-24" on="1"/>
        <pt x="177" y="-24" on="0"/>
        <pt x="102" y="7" on="0"/>
        <pt x="47" y="67" on="0"/>
        <pt x="16" y="156" on="0"/>
        <pt x="16" y="214" on="1"/>
        <pt x="16" y="241" on="0"/>
        <pt x="27" y="319" on="0"/>
        <pt x="57" y="410" on="0"/>
        <pt x="110" y="507" on="0"/>
        <pt x="151" y="553" on="1"/>
        <pt x="171" y="576" on="0"/>
        <pt x="236" y="628" on="0"/>
        <pt x="320" y="674" on="0"/>
        <pt x="421" y="704" on="0"/>
        <pt x="477" y="704" on="1"/>
        <pt x="492" y="704" on="0"/>
        <pt x="523" y="699" on="0"/>
        <pt x="547" y="685" on="0"/>
        <pt x="563" y="658" on="0"/>
        <pt x="563" y="637" on="1"/>
        <pt x="563" y="619" on="0"/>
        <pt x="544" y="569" on="0"/>
        <pt x="522" y="524" on="0"/>
        <pt x="502" y="491" on="0"/>
        <pt x="501" y="489" on="1"/>
        <pt x="497" y="483" on="0"/>
        <pt x="479" y="469" on="0"/>
        <pt x="458" y="457" on="0"/>
        <pt x="437" y="449" on="0"/>
        <pt x="429" y="449" on="1"/>
        <pt x="421" y="449" on="0"/>
        <pt x="418" y="455" on="0"/>
        <pt x="418" y="456" on="1"/>
        <pt x="418" y="458" on="0"/>
        <pt x="419" y="462" on="0"/>
        <pt x="423" y="469" on="1"/>
        <pt x="426" y="475" on="0"/>
        <pt x="443" y="505" on="0"/>
        <pt x="461" y="541" on="0"/>
        <pt x="474" y="579" on="0"/>
        <pt x="474" y="593" on="1"/>
        <pt x="474" y="646" on="0"/>
        <pt x="406" y="646" on="1"/>
        <pt x="367" y="646" on="0"/>
        <pt x="304" y="629" on="0"/>
        <pt x="253" y="599" on="0"/>
        <pt x="214" y="559" on="0"/>
        <pt x="197" y="536" on="1"/>
        <pt x="173" y="502" on="0"/>
        <pt x="138" y="428" on="0"/>
        <pt x="115" y="355" on="0"/>
        <pt x="105" y="287" on="0"/>
        <pt x="105" y="258" on="1"/>
        <pt x="105" y="203" on="0"/>
        <pt x="134" y="120" on="0"/>
        <pt x="184" y="63" on="0"/>
        <pt x="252" y="34" on="0"/>
        <pt x="291" y="34" on="1"/>
        <pt x="319" y="34" on="0"/>
        <pt x="364" y="48" on="0"/>
        <pt x="401" y="71" on="0"/>
        <pt x="430" y="101" on="0"/>
        <pt x="442" y="116" on="1"/>
        <pt x="454" y="133" on="0"/>
        <pt x="481" y="152" on="0"/>
        <pt x="504" y="163" on="0"/>
        <pt x="520" y="166" on="0"/>
        <pt x="522" y="166" on="1"/>
        <pt x="525" y="166" on="0"/>
        <pt x="531" y="163" on="0"/>
      </contour>
    </TTGlyph>
    <TTGlyph name="D" xMin="22" yMin="0" xMax="816" yMax="683">
      <contour>
        <pt x="118" y="0" on="1"/>
        <pt x="105" y="0" on="0"/>
        <pt x="93" y="2" on="0"/>
        <pt x="93" y="7" on="1"/>
        <pt x="93" y="16" on="0"/>
        <pt x="126" y="45" on="0"/>
        <pt x="157" y="56" on="1"/>
        <pt x="196" y="154" on="0"/>
        <pt x="246" y="320" on="0"/>
        <pt x="275" y="460" on="0"/>
        <pt x="288" y="576" on="0"/>
        <pt x="292" y="625" on="1"/>
        <pt x="234" y="622" on="0"/>
        <pt x="167" y="605" on="0"/>
        <pt x="130" y="581" on="0"/>
        <pt x="115" y="551" on="0"/>
        <pt x="110" y="536" on="1"/>
        <pt x="107" y="527" on="0"/>
        <pt x="88" y="509" on="0"/>
        <pt x="65" y="495" on="0"/>
        <pt x="41" y="486" on="0"/>
        <pt x="33" y="486" on="1"/>
        <pt x="22" y="486" on="0"/>
        <pt x="22" y="494" on="1"/>
        <pt x="22" y="497" on="0"/>
        <pt x="31" y="525" on="0"/>
        <pt x="59" y="567" on="0"/>
        <pt x="114" y="616" on="0"/>
        <pt x="160" y="638" on="1"/>
        <pt x="195" y="655" on="0"/>
        <pt x="261" y="673" on="0"/>
        <pt x="325" y="682" on="0"/>
        <pt x="391" y="683" on="0"/>
        <pt x="426" y="683" on="1"/>
        <pt x="461" y="683" on="0"/>
        <pt x="531" y="682" on="0"/>
        <pt x="600" y="673" on="0"/>
        <pt x="668" y="655" on="0"/>
        <pt x="700" y="638" on="1"/>
        <pt x="722" y="626" on="0"/>
        <pt x="763" y="594" on="0"/>
        <pt x="796" y="549" on="0"/>
        <pt x="816" y="489" on="0"/>
        <pt x="816" y="449" on="1"/>
        <pt x="816" y="381" on="0"/>
        <pt x="764" y="262" on="0"/>
        <pt x="675" y="162" on="0"/>
        <pt x="557" y="83" on="0"/>
        <pt x="426" y="29" on="0"/>
        <pt x="290" y="0" on="0"/>
        <pt x="226" y="0" on="1"/>
      </contour>
      <contour>
        <pt x="291" y="58" on="1"/>
        <pt x="380" y="58" on="0"/>
        <pt x="538" y="107" on="0"/>
        <pt x="657" y="198" on="0"/>
        <pt x="727" y="326" on="0"/>
        <pt x="727" y="405" on="1"/>
        <pt x="727" y="460" on="0"/>
        <pt x="687" y="535" on="0"/>
        <pt x="622" y="584" on="0"/>
        <pt x="543" y="611" on="0"/>
        <pt x="466" y="623" on="0"/>
        <pt x="398" y="625" on="0"/>
        <pt x="378" y="625" on="1"/>
        <pt x="370" y="546" on="0"/>
        <pt x="344" y="401" on="0"/>
        <pt x="307" y="262" on="0"/>
        <pt x="259" y="127" on="0"/>
        <pt x="229" y="58" on="1"/>
      </contour>
    </TTGlyph>
    <TTGlyph name="E" xMin="30" yMin="-21" xMax="591" yMax="704">
      <contour>
        <pt x="246" y="363" on="1"/>
        <pt x="192" y="381" on="0"/>
        <pt x="148" y="442" on="0"/>
        <pt x="148" y="474" on="1"/>
        <pt x="148" y="519" on="0"/>
        <pt x="207" y="603" on="0"/>
        <pt x="300" y="666" on="0"/>
        <pt x="414" y="704" on="0"/>
        <pt x="470" y="704" on="1"/>
        <pt x="486" y="704" on="0"/>
        <pt x="528" y="700" on="0"/>
        <pt x="565" y="685" on="0"/>
        <pt x="591" y="658" on="0"/>
        <pt x="591" y="635" on="1"/>
        <pt x="591" y="613" on="0"/>
        <pt x="569" y="577" on="0"/>
        <pt x="539" y="551" on="0"/>
        <pt x="507" y="538" on="0"/>
        <pt x="496" y="538" on="1"/>
        <pt x="486" y="538" on="0"/>
        <pt x="486" y="546" on="1"/>
        <pt x="486" y="549" on="0"/>
        <pt x="489" y="555" on="0"/>
        <pt x="491" y="558" on="1"/>
        <pt x="494" y="563" on="0"/>
        <pt x="502" y="580" on="0"/>
        <pt x="502" y="591" on="1"/>
        <pt x="502" y="603" on="0"/>
        <pt x="494" y="619" on="0"/>
        <pt x="482" y="629" on="0"/>
        <pt x="470" y="634" on="0"/>
        <pt x="466" y="635" on="1"/>
        <pt x="447" y="642" on="0"/>
        <pt x="413" y="646" on="0"/>
        <pt x="399" y="646" on="1"/>
        <pt x="348" y="646" on="0"/>
        <pt x="285" y="618" on="0"/>
        <pt x="250" y="579" on="0"/>
        <pt x="237" y="535" on="0"/>
        <pt x="237" y="518" on="1"/>
        <pt x="237" y="503" on="0"/>
        <pt x="250" y="466" on="0"/>
        <pt x="289" y="432" on="0"/>
        <pt x="361" y="407" on="0"/>
        <pt x="419" y="405" on="1"/>
        <pt x="422" y="405" on="0"/>
        <pt x="430" y="402" on="0"/>
        <pt x="430" y="397" on="1"/>
        <pt x="430" y="393" on="0"/>
        <pt x="418" y="377" on="0"/>
        <pt x="395" y="361" on="0"/>
        <pt x="362" y="348" on="0"/>
        <pt x="342" y="347" on="1"/>
        <pt x="282" y="345" on="0"/>
        <pt x="197" y="299" on="0"/>
        <pt x="143" y="236" on="0"/>
        <pt x="119" y="170" on="0"/>
        <pt x="119" y="148" on="1"/>
        <pt x="119" y="117" on="0"/>
        <pt x="151" y="75" on="0"/>
        <pt x="199" y="49" on="0"/>
        <pt x="256" y="37" on="0"/>
        <pt x="281" y="37" on="1"/>
        <pt x="336" y="37" on="0"/>
        <pt x="413" y="82" on="0"/>
        <pt x="441" y="118" on="1"/>
        <pt x="453" y="134" on="0"/>
        <pt x="479" y="153" on="0"/>
        <pt x="502" y="163" on="0"/>
        <pt x="518" y="166" on="0"/>
        <pt x="520" y="166" on="1"/>
        <pt x="523" y="166" on="0"/>
        <pt x="529" y="163" on="0"/>
        <pt x="529" y="158" on="1"/>
        <pt x="529" y="153" on="0"/>
        <pt x="506" y="122" on="0"/>
        <pt x="465" y="82" on="0"/>
        <pt x="407" y="39" on="0"/>
        <pt x="336" y="3" on="0"/>
        <pt x="255" y="-21" on="0"/>
        <pt x="211" y="-21" on="1"/>
        <pt x="175" y="-21" on="0"/>
        <pt x="110" y="-5" on="0"/>
        <pt x="60" y="27" on="0"/>
        <pt x="30" y="73" on="0"/>
        <pt x="30" y="104" on="1"/>
        <pt x="30" y="128" on="0"/>
        <pt x="54" y="195" on="0"/>
        <pt x="106" y="266" on="0"/>
        <pt x="188" y="335" on="0"/>
      </contour>
    </TTGlyph>
    <TTGlyph name="F" xMin="17" yMin="-32" xMax="871" yMax="684">
      <contour>
        <pt x="871" y="645" on="1"/>
        <pt x="871" y="635" on="0"/>
        <pt x="854" y="614" on="0"/>
        <pt x="830" y="597" on="0"/>
        <pt x="803" y="587" on="0"/>
        <pt x="794" y="587" on="1"/>
        <pt x="786" y="587" on="0"/>
        <pt x="782" y="591" on="0"/>
        <pt x="782" y="597" on="1"/>
        <pt x="782" y="606" on="1"/>
        <pt x="782" y="615" on="0"/>
        <pt x="745" y="626" on="0"/>
        <pt x="714" y="626" on="1"/>
        <pt x="517" y="626" on="1"/>
        <pt x="503" y="557" on="0"/>
        <pt x="462" y="428" on="0"/>
        <pt x="439" y="361" on="1"/>
        <pt x="659" y="361" on="1"/>
        <pt x="682" y="361" on="0"/>
        <pt x="708" y="361" on="0"/>
        <pt x="710" y="360" on="1"/>
        <pt x="714" y="356" on="0"/>
        <pt x="714" y="354" on="1"/>
        <pt x="714" y="343" on="0"/>
        <pt x="697" y="321" on="0"/>
        <pt x="672" y="304" on="0"/>
        <pt x="645" y="293" on="0"/>
        <pt x="635" y="293" on="1"/>
        <pt x="627" y="293" on="0"/>
        <pt x="624" y="296" on="1"/>
        <pt x="623" y="298" on="0"/>
        <pt x="623" y="303" on="1"/>
        <pt x="417" y="303" on="1"/>
        <pt x="391" y="246" on="0"/>
        <pt x="343" y="131" on="0"/>
        <pt x="312" y="77" on="1"/>
        <pt x="300" y="56" on="0"/>
        <pt x="263" y="16" on="0"/>
        <pt x="218" y="-14" on="0"/>
        <pt x="168" y="-32" on="0"/>
        <pt x="142" y="-32" on="1"/>
        <pt x="110" y="-32" on="0"/>
        <pt x="54" y="-10" on="0"/>
        <pt x="34" y="16" on="1"/>
        <pt x="31" y="20" on="0"/>
        <pt x="17" y="43" on="0"/>
        <pt x="17" y="47" on="1"/>
        <pt x="17" y="55" on="0"/>
        <pt x="36" y="73" on="0"/>
        <pt x="62" y="88" on="0"/>
        <pt x="87" y="98" on="0"/>
        <pt x="94" y="98" on="1"/>
        <pt x="100" y="98" on="0"/>
        <pt x="104" y="96" on="0"/>
        <pt x="107" y="91" on="1"/>
        <pt x="140" y="26" on="0"/>
        <pt x="211" y="26" on="1"/>
        <pt x="215" y="26" on="0"/>
        <pt x="237" y="65" on="0"/>
        <pt x="262" y="114" on="0"/>
        <pt x="284" y="161" on="0"/>
        <pt x="288" y="170" on="1"/>
        <pt x="333" y="270" on="0"/>
        <pt x="403" y="476" on="0"/>
        <pt x="427" y="583" on="1"/>
        <pt x="436" y="626" on="1"/>
        <pt x="336" y="626" on="1"/>
        <pt x="320" y="626" on="0"/>
        <pt x="286" y="626" on="0"/>
        <pt x="271" y="624" on="1"/>
        <pt x="261" y="616" on="0"/>
        <pt x="224" y="592" on="0"/>
        <pt x="203" y="592" on="1"/>
        <pt x="200" y="592" on="0"/>
        <pt x="193" y="594" on="0"/>
        <pt x="193" y="598" on="1"/>
        <pt x="193" y="609" on="0"/>
        <pt x="219" y="639" on="0"/>
        <pt x="263" y="666" on="0"/>
        <pt x="321" y="684" on="0"/>
        <pt x="354" y="684" on="1"/>
        <pt x="773" y="684" on="1"/>
        <pt x="791" y="684" on="0"/>
        <pt x="826" y="683" on="0"/>
        <pt x="854" y="675" on="0"/>
        <pt x="871" y="659" on="0"/>
      </contour>
    </TTGlyph>
    <TTGlyph name="G" xMin="47" yMin="-118" xMax="632" yMax="704">
      <contour>
        <pt x="468" y="162" on="1"/>
        <pt x="395" y="106" on="0"/>
        <pt x="279" y="68" on="0"/>
        <pt x="236" y="68" on="1"/>
        <pt x="190" y="68" on="0"/>
        <pt x="120" y="100" on="0"/>
        <pt x="72" y="157" on="0"/>
        <pt x="47" y="235" on="0"/>
        <pt x="47" y="280" on="1"/>
        <pt x="47" y="369" on="0"/>
        <pt x="123" y="524" on="0"/>
        <pt x="248" y="638" on="0"/>
        <pt x="410" y="704" on="0"/>
        <pt x="496" y="704" on="1"/>
        <pt x="558" y="704" on="0"/>
        <pt x="632" y="674" on="0"/>
        <pt x="632" y="635" on="1"/>
        <pt x="632" y="617" on="0"/>
        <pt x="604" y="561" on="0"/>
        <pt x="562" y="508" on="0"/>
        <pt x="512" y="470" on="0"/>
        <pt x="490" y="470" on="1"/>
        <pt x="482" y="470" on="0"/>
        <pt x="479" y="476" on="0"/>
        <pt x="479" y="477" on="1"/>
        <pt x="479" y="482" on="0"/>
        <pt x="485" y="489" on="0"/>
        <pt x="491" y="497" on="1"/>
        <pt x="492" y="498" on="0"/>
        <pt x="508" y="519" on="0"/>
        <pt x="527" y="547" on="0"/>
        <pt x="543" y="579" on="0"/>
        <pt x="543" y="591" on="1"/>
        <pt x="543" y="604" on="0"/>
        <pt x="535" y="620" on="0"/>
        <pt x="522" y="630" on="0"/>
        <pt x="507" y="635" on="0"/>
        <pt x="500" y="637" on="1"/>
        <pt x="489" y="640" on="0"/>
        <pt x="448" y="646" on="0"/>
        <pt x="425" y="646" on="1"/>
        <pt x="371" y="646" on="0"/>
        <pt x="269" y="612" on="0"/>
        <pt x="229" y="567" on="1"/>
        <pt x="201" y="536" on="0"/>
        <pt x="165" y="467" on="0"/>
        <pt x="144" y="402" on="0"/>
        <pt x="136" y="345" on="0"/>
        <pt x="136" y="324" on="1"/>
        <pt x="136" y="281" on="0"/>
        <pt x="159" y="209" on="0"/>
        <pt x="202" y="156" on="0"/>
        <pt x="266" y="126" on="0"/>
        <pt x="306" y="126" on="1"/>
        <pt x="353" y="126" on="0"/>
        <pt x="424" y="170" on="0"/>
        <pt x="474" y="229" on="0"/>
        <pt x="502" y="290" on="0"/>
        <pt x="507" y="307" on="1"/>
        <pt x="510" y="315" on="0"/>
        <pt x="514" y="326" on="0"/>
        <pt x="520" y="335" on="0"/>
        <pt x="530" y="344" on="0"/>
        <pt x="538" y="350" on="1"/>
        <pt x="552" y="360" on="0"/>
        <pt x="582" y="371" on="0"/>
        <pt x="590" y="371" on="1"/>
        <pt x="600" y="371" on="0"/>
        <pt x="600" y="362" on="1"/>
        <pt x="600" y="360" on="0"/>
        <pt x="594" y="334" on="0"/>
        <pt x="583" y="293" on="0"/>
        <pt x="568" y="241" on="0"/>
        <pt x="560" y="213" on="1"/>
        <pt x="555" y="195" on="0"/>
        <pt x="534" y="136" on="0"/>
        <pt x="518" y="99" on="1"/>
        <pt x="491" y="38" on="0"/>
        <pt x="421" y="-45" on="0"/>
        <pt x="345" y="-96" on="0"/>
        <pt x="267" y="-118" on="0"/>
        <pt x="232" y="-118" on="1"/>
        <pt x="222" y="-118" on="0"/>
        <pt x="167" y="-115" on="0"/>
        <pt x="132" y="-104" on="1"/>
        <pt x="127" y="-103" on="0"/>
        <pt x="103" y="-95" on="0"/>
        <pt x="79" y="-85" on="0"/>
        <pt x="61" y="-74" on="0"/>
        <pt x="61" y="-70" on="1"/>
        <pt x="61" y="-65" on="0"/>
        <pt x="74" y="-49" on="0"/>
        <pt x="96" y="-34" on="0"/>
        <pt x="125" y="-21" on="0"/>
        <pt x="141" y="-19" on="1"/>
        <pt x="167" y="-33" on="0"/>
        <pt x="216" y="-49" on="0"/>
        <pt x="258" y="-58" on="0"/>
        <pt x="293" y="-60" on="0"/>
        <pt x="303" y="-60" on="1"/>
        <pt x="317" y="-60" on="0"/>
        <pt x="340" y="-57" on="0"/>
        <pt x="364" y="-42" on="0"/>
        <pt x="390" y="-11" on="0"/>
        <pt x="406" y="16" on="1"/>
        <pt x="424" y="47" on="0"/>
        <pt x="453" y="114" on="0"/>
      </contour>
    </TTGlyph>
    <TTGlyph name="H" xMin="23" yMin="-50" xMax="859" yMax="683">
      <contour>
        <pt x="700" y="518" on="1"/>
        <pt x="700" y="519" on="0"/>
        <pt x="708" y="541" on="0"/>
        <pt x="720" y="573" on="0"/>
        <pt x="734" y="610" on="0"/>
        <pt x="740" y="626" on="1"/>
        <pt x="743" y="634" on="0"/>
        <pt x="749" y="645" on="0"/>
        <pt x="754" y="650" on="1"/>
        <pt x="768" y="663" on="0"/>
        <pt x="808" y="683" on="0"/>
        <pt x="821" y="683" on="1"/>
        <pt x="823" y="683" on="0"/>
        <pt x="831" y="681" on="0"/>
        <pt x="831" y="675" on="1"/>
        <pt x="831" y="673" on="0"/>
        <pt x="829" y="667" on="0"/>
        <pt x="824" y="653" on="1"/>
        <pt x="779" y="537" on="0"/>
        <pt x="718" y="339" on="0"/>
        <pt x="681" y="184" on="0"/>
        <pt x="666" y="78" on="0"/>
        <pt x="666" y="54" on="1"/>
        <pt x="666" y="35" on="0"/>
        <pt x="689" y="8" on="0"/>
        <pt x="712" y="8" on="1"/>
        <pt x="720" y="8" on="0"/>
        <pt x="730" y="8" on="0"/>
        <pt x="741" y="10" on="0"/>
        <pt x="754" y="12" on="0"/>
        <pt x="766" y="15" on="1"/>
        <pt x="767" y="17" on="0"/>
        <pt x="770" y="26" on="0"/>
        <pt x="772" y="28" on="1"/>
        <pt x="777" y="39" on="0"/>
        <pt x="798" y="56" on="0"/>
        <pt x="821" y="69" on="0"/>
        <pt x="843" y="76" on="0"/>
        <pt x="849" y="76" on="1"/>
        <pt x="856" y="76" on="0"/>
        <pt x="859" y="70" on="0"/>
        <pt x="859" y="68" on="1"/>
        <pt x="859" y="56" on="0"/>
        <pt x="831" y="16" on="0"/>
        <pt x="776" y="-22" on="0"/>
        <pt x="695" y="-50" on="0"/>
        <pt x="641" y="-50" on="1"/>
        <pt x="609" y="-50" on="0"/>
        <pt x="577" y="-15" on="0"/>
        <pt x="577" y="10" on="1"/>
        <pt x="577" y="12" on="0"/>
        <pt x="582" y="77" on="0"/>
        <pt x="593" y="141" on="1"/>
        <pt x="599" y="176" on="0"/>
        <pt x="619" y="256" on="0"/>
        <pt x="628" y="288" on="1"/>
        <pt x="614" y="280" on="0"/>
        <pt x="588" y="278" on="0"/>
        <pt x="580" y="278" on="1"/>
        <pt x="338" y="278" on="1"/>
        <pt x="321" y="223" on="0"/>
        <pt x="280" y="101" on="0"/>
        <pt x="259" y="44" on="1"/>
        <pt x="253" y="28" on="0"/>
        <pt x="245" y="9" on="0"/>
        <pt x="239" y="-2" on="0"/>
        <pt x="233" y="-9" on="0"/>
        <pt x="228" y="-13" on="1"/>
        <pt x="213" y="-25" on="0"/>
        <pt x="176" y="-41" on="0"/>
        <pt x="167" y="-41" on="1"/>
        <pt x="159" y="-41" on="0"/>
        <pt x="156" y="-36" on="0"/>
        <pt x="156" y="-34" on="1"/>
        <pt x="156" y="-32" on="0"/>
        <pt x="157" y="-28" on="0"/>
        <pt x="160" y="-20" on="1"/>
        <pt x="186" y="46" on="0"/>
        <pt x="241" y="202" on="0"/>
        <pt x="261" y="278" on="1"/>
        <pt x="186" y="278" on="1"/>
        <pt x="173" y="278" on="0"/>
        <pt x="161" y="280" on="0"/>
        <pt x="161" y="285" on="1"/>
        <pt x="161" y="292" on="0"/>
        <pt x="177" y="309" on="0"/>
        <pt x="200" y="324" on="0"/>
        <pt x="226" y="335" on="0"/>
        <pt x="235" y="336" on="1"/>
        <pt x="277" y="336" on="1"/>
        <pt x="282" y="356" on="0"/>
        <pt x="289" y="385" on="0"/>
        <pt x="295" y="411" on="0"/>
        <pt x="301" y="439" on="0"/>
        <pt x="304" y="457" on="1"/>
        <pt x="308" y="479" on="0"/>
        <pt x="314" y="521" on="0"/>
        <pt x="317" y="554" on="0"/>
        <pt x="319" y="576" on="0"/>
        <pt x="319" y="578" on="1"/>
        <pt x="319" y="584" on="0"/>
        <pt x="316" y="600" on="0"/>
        <pt x="305" y="615" on="0"/>
        <pt x="284" y="625" on="0"/>
        <pt x="266" y="625" on="1"/>
        <pt x="228" y="625" on="0"/>
        <pt x="178" y="610" on="0"/>
        <pt x="144" y="584" on="0"/>
        <pt x="121" y="551" on="0"/>
        <pt x="111" y="534" on="1"/>
        <pt x="104" y="522" on="0"/>
        <pt x="81" y="504" on="0"/>
        <pt x="58" y="492" on="0"/>
        <pt x="38" y="486" on="0"/>
        <pt x="33" y="486" on="1"/>
        <pt x="23" y="486" on="0"/>
        <pt x="23" y="494" on="1"/>
        <pt x="23" y="502" on="0"/>
        <pt x="64" y="562" on="0"/>
        <pt x="143" y="630" on="0"/>
        <pt x="261" y="683" on="0"/>
        <pt x="337" y="683" on="1"/>
        <pt x="358" y="683" on="0"/>
        <pt x="385" y="671" on="0"/>
        <pt x="402" y="653" on="0"/>
        <pt x="408" y="631" on="0"/>
        <pt x="408" y="622" on="1"/>
        <pt x="408" y="619" on="0"/>
        <pt x="400" y="538" on="0"/>
        <pt x="389" y="480" on="1"/>
        <pt x="388" y="471" on="0"/>
        <pt x="384" y="451" on="0"/>
        <pt x="376" y="419" on="0"/>
        <pt x="364" y="372" on="0"/>
        <pt x="355" y="336" on="1"/>
        <pt x="641" y="336" on="1"/>
      </contour>
    </TTGlyph>
    <TTGlyph name="I" xMin="-16" yMin="0" xMax="673" yMax="683">
      <contour>
        <pt x="467" y="625" on="1"/>
        <pt x="433" y="580" on="0"/>
        <pt x="389" y="438" on="0"/>
        <pt x="368" y="353" on="1"/>
        <pt x="356" y="304" on="0"/>
        <pt x="332" y="218" on="0"/>
        <pt x="301" y="144" on="0"/>
        <pt x="261" y="82" on="0"/>
        <pt x="233" y="58" on="1"/>
        <pt x="437" y="58" on="1"/>
        <pt x="444" y="58" on="0"/>
        <pt x="474" y="59" on="0"/>
        <pt x="491" y="64" on="1"/>
        <pt x="502" y="90" on="1"/>
        <pt x="507" y="97" on="0"/>
        <pt x="525" y="111" on="0"/>
        <pt x="546" y="123" on="0"/>
        <pt x="567" y="131" on="0"/>
        <pt x="575" y="131" on="1"/>
        <pt x="587" y="131" on="0"/>
        <pt x="587" y="123" on="1"/>
        <pt x="587" y="110" on="0"/>
        <pt x="556" y="68" on="0"/>
        <pt x="500" y="29" on="0"/>
        <pt x="421" y="0" on="0"/>
        <pt x="372" y="0" on="1"/>
        <pt x="9" y="0" on="1"/>
        <pt x="-4" y="0" on="0"/>
        <pt x="-16" y="2" on="0"/>
        <pt x="-16" y="7" on="1"/>
        <pt x="-16" y="15" on="0"/>
        <pt x="9" y="37" on="0"/>
        <pt x="20" y="44" on="1"/>
        <pt x="40" y="55" on="0"/>
        <pt x="60" y="58" on="0"/>
        <pt x="76" y="58" on="1"/>
        <pt x="147" y="58" on="1"/>
        <pt x="168" y="58" on="0"/>
        <pt x="178" y="61" on="0"/>
        <pt x="183" y="66" on="1"/>
        <pt x="201" y="86" on="0"/>
        <pt x="230" y="144" on="0"/>
        <pt x="253" y="211" on="0"/>
        <pt x="271" y="279" on="0"/>
        <pt x="278" y="307" on="1"/>
        <pt x="290" y="356" on="0"/>
        <pt x="316" y="450" on="0"/>
        <pt x="346" y="533" on="0"/>
        <pt x="384" y="602" on="0"/>
        <pt x="409" y="625" on="1"/>
        <pt x="298" y="625" on="1"/>
        <pt x="271" y="625" on="0"/>
        <pt x="217" y="622" on="0"/>
        <pt x="191" y="618" on="1"/>
        <pt x="170" y="615" on="0"/>
        <pt x="145" y="609" on="0"/>
        <pt x="131" y="598" on="0"/>
        <pt x="124" y="582" on="0"/>
        <pt x="119" y="568" on="1"/>
        <pt x="116" y="558" on="0"/>
        <pt x="95" y="539" on="0"/>
        <pt x="71" y="525" on="0"/>
        <pt x="47" y="517" on="0"/>
        <pt x="40" y="517" on="1"/>
        <pt x="30" y="517" on="0"/>
        <pt x="30" y="526" on="1"/>
        <pt x="30" y="528" on="0"/>
        <pt x="38" y="554" on="0"/>
        <pt x="65" y="592" on="0"/>
        <pt x="116" y="634" on="0"/>
        <pt x="159" y="652" on="1"/>
        <pt x="207" y="672" on="0"/>
        <pt x="311" y="683" on="0"/>
        <pt x="363" y="683" on="1"/>
        <pt x="649" y="683" on="1"/>
        <pt x="666" y="683" on="0"/>
        <pt x="673" y="680" on="0"/>
        <pt x="673" y="675" on="1"/>
        <pt x="673" y="670" on="0"/>
        <pt x="657" y="651" on="0"/>
        <pt x="637" y="640" on="1"/>
        <pt x="618" y="629" on="0"/>
        <pt x="596" y="625" on="0"/>
        <pt x="582" y="625" on="1"/>
      </contour>
    </TTGlyph>
    <TTGlyph name="Ifractur" xMin="59" yMin="-10" xMax="737" yMax="704">
      <contour>
        <pt x="307" y="333" on="1"/>
        <pt x="307" y="322" on="0"/>
        <pt x="293" y="319" on="0"/>
        <pt x="286" y="319" on="1"/>
        <pt x="252" y="319" on="0"/>
        <pt x="172" y="343" on="0"/>
        <pt x="104" y="391" on="0"/>
        <pt x="59" y="463" on="0"/>
        <pt x="59" y="512" on="1"/>
        <pt x="59" y="554" on="0"/>
        <pt x="96" y="624" on="0"/>
        <pt x="160" y="675" on="0"/>
        <pt x="245" y="704" on="0"/>
        <pt x="292" y="704" on="1"/>
        <pt x="327" y="704" on="0"/>
        <pt x="405" y="686" on="0"/>
        <pt x="481" y="647" on="0"/>
        <pt x="552" y="583" on="0"/>
        <pt x="581" y="537" on="1"/>
        <pt x="594" y="517" on="0"/>
        <pt x="607" y="503" on="0"/>
        <pt x="621" y="503" on="1"/>
        <pt x="622" y="503" on="0"/>
        <pt x="658" y="506" on="0"/>
        <pt x="674" y="513" on="1"/>
        <pt x="693" y="521" on="0"/>
        <pt x="702" y="538" on="0"/>
        <pt x="704" y="549" on="1"/>
        <pt x="707" y="561" on="0"/>
        <pt x="720" y="561" on="1"/>
        <pt x="725" y="561" on="0"/>
        <pt x="737" y="557" on="0"/>
        <pt x="737" y="546" on="1"/>
        <pt x="737" y="517" on="0"/>
        <pt x="675" y="475" on="0"/>
        <pt x="618" y="475" on="1"/>
        <pt x="586" y="475" on="0"/>
        <pt x="532" y="496" on="0"/>
        <pt x="484" y="531" on="0"/>
        <pt x="439" y="578" on="0"/>
        <pt x="416" y="604" on="1"/>
        <pt x="376" y="648" on="0"/>
        <pt x="317" y="676" on="0"/>
        <pt x="289" y="676" on="1"/>
        <pt x="252" y="676" on="0"/>
        <pt x="181" y="653" on="0"/>
        <pt x="126" y="610" on="0"/>
        <pt x="92" y="549" on="0"/>
        <pt x="92" y="512" on="1"/>
        <pt x="92" y="485" on="0"/>
        <pt x="114" y="429" on="0"/>
        <pt x="162" y="382" on="0"/>
        <pt x="238" y="350" on="0"/>
        <pt x="293" y="347" on="1"/>
        <pt x="298" y="347" on="0"/>
        <pt x="307" y="341" on="0"/>
      </contour>
      <contour>
        <pt x="130" y="186" on="1"/>
        <pt x="151" y="186" on="0"/>
        <pt x="188" y="179" on="0"/>
        <pt x="228" y="161" on="0"/>
        <pt x="273" y="131" on="0"/>
        <pt x="301" y="107" on="1"/>
        <pt x="316" y="95" on="0"/>
        <pt x="354" y="63" on="0"/>
        <pt x="393" y="36" on="0"/>
        <pt x="431" y="17" on="0"/>
        <pt x="446" y="17" on="1"/>
        <pt x="454" y="17" on="0"/>
        <pt x="496" y="30" on="0"/>
        <pt x="540" y="58" on="0"/>
        <pt x="574" y="104" on="0"/>
        <pt x="574" y="138" on="1"/>
        <pt x="574" y="149" on="0"/>
        <pt x="569" y="168" on="0"/>
        <pt x="557" y="187" on="0"/>
        <pt x="538" y="209" on="0"/>
        <pt x="524" y="224" on="1"/>
        <pt x="504" y="246" on="0"/>
        <pt x="480" y="287" on="0"/>
        <pt x="480" y="313" on="1"/>
        <pt x="480" y="339" on="0"/>
        <pt x="503" y="383" on="0"/>
        <pt x="541" y="414" on="0"/>
        <pt x="590" y="431" on="0"/>
        <pt x="616" y="431" on="1"/>
        <pt x="644" y="431" on="0"/>
        <pt x="689" y="414" on="0"/>
        <pt x="720" y="388" on="0"/>
        <pt x="737" y="355" on="0"/>
        <pt x="737" y="338" on="1"/>
        <pt x="737" y="327" on="0"/>
        <pt x="727" y="322" on="0"/>
        <pt x="720" y="322" on="1"/>
        <pt x="710" y="322" on="0"/>
        <pt x="705" y="329" on="0"/>
        <pt x="704" y="336" on="1"/>
        <pt x="701" y="361" on="0"/>
        <pt x="673" y="388" on="0"/>
        <pt x="643" y="401" on="0"/>
        <pt x="619" y="403" on="0"/>
        <pt x="618" y="403" on="1"/>
        <pt x="600" y="403" on="0"/>
        <pt x="581" y="380" on="0"/>
        <pt x="571" y="351" on="0"/>
        <pt x="569" y="323" on="0"/>
        <pt x="569" y="317" on="1"/>
        <pt x="569" y="305" on="0"/>
        <pt x="573" y="286" on="0"/>
        <pt x="584" y="267" on="0"/>
        <pt x="603" y="245" on="0"/>
        <pt x="618" y="229" on="1"/>
        <pt x="639" y="206" on="0"/>
        <pt x="663" y="164" on="0"/>
        <pt x="663" y="138" on="1"/>
        <pt x="663" y="102" on="0"/>
        <pt x="625" y="41" on="0"/>
        <pt x="591" y="20" on="1"/>
        <pt x="553" y="-3" on="0"/>
        <pt x="481" y="-10" on="0"/>
        <pt x="443" y="-10" on="1"/>
        <pt x="414" y="-10" on="0"/>
        <pt x="371" y="-7" on="0"/>
        <pt x="326" y="9" on="0"/>
        <pt x="272" y="44" on="0"/>
        <pt x="232" y="77" on="1"/>
        <pt x="205" y="99" on="0"/>
        <pt x="164" y="129" on="0"/>
        <pt x="129" y="147" on="0"/>
        <pt x="96" y="157" on="0"/>
        <pt x="76" y="158" on="1"/>
        <pt x="70" y="159" on="0"/>
        <pt x="59" y="162" on="0"/>
        <pt x="59" y="172" on="1"/>
        <pt x="59" y="183" on="0"/>
        <pt x="74" y="186" on="0"/>
        <pt x="88" y="186" on="1"/>
      </contour>
    </TTGlyph>
    <TTGlyph name="J" xMin="49" yMin="-118" xMax="883" yMax="683">
      <contour>
        <pt x="858" y="683" on="1"/>
        <pt x="872" y="683" on="0"/>
        <pt x="883" y="681" on="0"/>
        <pt x="883" y="676" on="1"/>
        <pt x="883" y="672" on="0"/>
        <pt x="871" y="656" on="0"/>
        <pt x="848" y="639" on="0"/>
        <pt x="817" y="626" on="0"/>
        <pt x="798" y="625" on="1"/>
        <pt x="780" y="623" on="0"/>
        <pt x="760" y="613" on="0"/>
        <pt x="745" y="595" on="1"/>
        <pt x="724" y="569" on="0"/>
        <pt x="686" y="501" on="0"/>
        <pt x="650" y="408" on="0"/>
        <pt x="614" y="288" on="0"/>
        <pt x="594" y="209" on="1"/>
        <pt x="586" y="176" on="0"/>
        <pt x="569" y="117" on="0"/>
        <pt x="542" y="62" on="0"/>
        <pt x="500" y="8" on="0"/>
        <pt x="466" y="-21" on="1"/>
        <pt x="444" y="-39" on="0"/>
        <pt x="390" y="-74" on="0"/>
        <pt x="330" y="-101" on="0"/>
        <pt x="264" y="-118" on="0"/>
        <pt x="231" y="-118" on="1"/>
        <pt x="192" y="-118" on="0"/>
        <pt x="126" y="-96" on="0"/>
        <pt x="77" y="-56" on="0"/>
        <pt x="49" y="1" on="0"/>
        <pt x="49" y="35" on="1"/>
        <pt x="49" y="69" on="0"/>
        <pt x="63" y="92" on="0"/>
        <pt x="71" y="98" on="1"/>
        <pt x="87" y="111" on="0"/>
        <pt x="121" y="126" on="0"/>
        <pt x="132" y="126" on="1"/>
        <pt x="143" y="126" on="0"/>
        <pt x="143" y="117" on="1"/>
        <pt x="143" y="114" on="0"/>
        <pt x="138" y="93" on="0"/>
        <pt x="138" y="79" on="1"/>
        <pt x="138" y="46" on="0"/>
        <pt x="165" y="-6" on="0"/>
        <pt x="210" y="-41" on="0"/>
        <pt x="269" y="-60" on="0"/>
        <pt x="301" y="-60" on="1"/>
        <pt x="343" y="-60" on="0"/>
        <pt x="408" y="-25" on="0"/>
        <pt x="456" y="29" on="0"/>
        <pt x="487" y="93" on="0"/>
        <pt x="494" y="122" on="1"/>
        <pt x="520" y="226" on="0"/>
        <pt x="566" y="383" on="0"/>
        <pt x="617" y="503" on="0"/>
        <pt x="678" y="591" on="0"/>
        <pt x="720" y="625" on="1"/>
        <pt x="578" y="625" on="1"/>
        <pt x="500" y="625" on="0"/>
        <pt x="391" y="555" on="0"/>
        <pt x="369" y="486" on="1"/>
        <pt x="366" y="476" on="0"/>
        <pt x="357" y="461" on="0"/>
        <pt x="340" y="450" on="1"/>
        <pt x="320" y="437" on="0"/>
        <pt x="296" y="430" on="0"/>
        <pt x="291" y="430" on="1"/>
        <pt x="288" y="430" on="0"/>
        <pt x="279" y="432" on="0"/>
        <pt x="279" y="438" on="1"/>
        <pt x="279" y="441" on="0"/>
        <pt x="287" y="466" on="0"/>
        <pt x="295" y="483" on="1"/>
        <pt x="312" y="519" on="0"/>
        <pt x="383" y="591" on="0"/>
        <pt x="477" y="648" on="0"/>
        <pt x="587" y="683" on="0"/>
        <pt x="643" y="683" on="1"/>
      </contour>
    </TTGlyph>
    <TTGlyph name="K" xMin="33" yMin="-21" xMax="771" yMax="704">
      <contour>
        <pt x="198" y="633" on="1"/>
        <pt x="181" y="625" on="0"/>
        <pt x="161" y="615" on="0"/>
        <pt x="148" y="610" on="0"/>
        <pt x="140" y="608" on="0"/>
        <pt x="135" y="608" on="1"/>
        <pt x="133" y="608" on="0"/>
        <pt x="125" y="610" on="0"/>
        <pt x="125" y="616" on="1"/>
        <pt x="125" y="630" on="0"/>
        <pt x="177" y="661" on="0"/>
        <pt x="215" y="679" on="1"/>
        <pt x="244" y="693" on="0"/>
        <pt x="267" y="704" on="0"/>
        <pt x="276" y="704" on="1"/>
        <pt x="285" y="704" on="0"/>
        <pt x="288" y="696" on="0"/>
        <pt x="288" y="692" on="1"/>
        <pt x="288" y="690" on="0"/>
        <pt x="286" y="646" on="0"/>
        <pt x="279" y="574" on="0"/>
        <pt x="264" y="481" on="0"/>
        <pt x="251" y="429" on="1"/>
        <pt x="230" y="345" on="0"/>
        <pt x="184" y="198" on="0"/>
        <pt x="145" y="87" on="0"/>
        <pt x="117" y="20" on="0"/>
        <pt x="114" y="16" on="1"/>
        <pt x="100" y="2" on="0"/>
        <pt x="57" y="-21" on="0"/>
        <pt x="44" y="-21" on="1"/>
        <pt x="42" y="-21" on="0"/>
        <pt x="33" y="-19" on="0"/>
        <pt x="33" y="-14" on="1"/>
        <pt x="33" y="-12" on="0"/>
        <pt x="35" y="-5" on="0"/>
        <pt x="42" y="12" on="1"/>
        <pt x="78" y="106" on="0"/>
        <pt x="139" y="295" on="0"/>
        <pt x="163" y="392" on="1"/>
        <pt x="173" y="433" on="0"/>
        <pt x="185" y="501" on="0"/>
        <pt x="193" y="559" on="0"/>
        <pt x="197" y="609" on="0"/>
      </contour>
      <contour>
        <pt x="771" y="129" on="1"/>
        <pt x="771" y="129" on="0"/>
        <pt x="766" y="109" on="0"/>
        <pt x="749" y="79" on="0"/>
        <pt x="714" y="41" on="0"/>
        <pt x="684" y="22" on="1"/>
        <pt x="647" y="0" on="0"/>
        <pt x="565" y="-21" on="0"/>
        <pt x="532" y="-21" on="1"/>
        <pt x="508" y="-21" on="0"/>
        <pt x="459" y="4" on="0"/>
        <pt x="427" y="39" on="1"/>
        <pt x="391" y="80" on="0"/>
        <pt x="326" y="184" on="0"/>
        <pt x="277" y="287" on="0"/>
        <pt x="249" y="375" on="0"/>
        <pt x="249" y="400" on="1"/>
        <pt x="249" y="424" on="0"/>
        <pt x="286" y="475" on="0"/>
        <pt x="337" y="521" on="0"/>
        <pt x="389" y="558" on="0"/>
        <pt x="404" y="568" on="1"/>
        <pt x="434" y="588" on="0"/>
        <pt x="515" y="636" on="0"/>
        <pt x="600" y="677" on="0"/>
        <pt x="679" y="704" on="0"/>
        <pt x="706" y="704" on="1"/>
        <pt x="724" y="704" on="0"/>
        <pt x="748" y="693" on="0"/>
        <pt x="763" y="675" on="0"/>
        <pt x="769" y="654" on="0"/>
        <pt x="769" y="645" on="1"/>
        <pt x="769" y="628" on="0"/>
        <pt x="753" y="607" on="0"/>
        <pt x="732" y="595" on="0"/>
        <pt x="715" y="591" on="0"/>
        <pt x="713" y="591" on="1"/>
        <pt x="708" y="591" on="0"/>
        <pt x="700" y="595" on="0"/>
        <pt x="700" y="601" on="1"/>
        <pt x="700" y="604" on="0"/>
        <pt x="702" y="611" on="0"/>
        <pt x="702" y="616" on="1"/>
        <pt x="702" y="633" on="0"/>
        <pt x="682" y="657" on="0"/>
        <pt x="662" y="657" on="1"/>
        <pt x="646" y="657" on="0"/>
        <pt x="572" y="628" on="0"/>
        <pt x="482" y="580" on="0"/>
        <pt x="390" y="519" on="0"/>
        <pt x="355" y="488" on="1"/>
        <pt x="326" y="462" on="0"/>
        <pt x="316" y="437" on="0"/>
        <pt x="316" y="429" on="1"/>
        <pt x="316" y="407" on="0"/>
        <pt x="340" y="331" on="0"/>
        <pt x="381" y="241" on="0"/>
        <pt x="434" y="149" on="0"/>
        <pt x="492" y="74" on="0"/>
        <pt x="550" y="26" on="0"/>
        <pt x="576" y="26" on="1"/>
        <pt x="576" y="26" on="0"/>
        <pt x="592" y="27" on="0"/>
        <pt x="616" y="31" on="0"/>
        <pt x="645" y="39" on="0"/>
        <pt x="660" y="47" on="1"/>
        <pt x="683" y="59" on="0"/>
        <pt x="701" y="92" on="0"/>
        <pt x="705" y="101" on="1"/>
        <pt x="708" y="112" on="0"/>
        <pt x="723" y="126" on="0"/>
        <pt x="739" y="135" on="0"/>
        <pt x="754" y="139" on="0"/>
        <pt x="758" y="139" on="1"/>
        <pt x="760" y="139" on="0"/>
        <pt x="771" y="137" on="0"/>
      </contour>
    </TTGlyph>
    <TTGlyph name="L" xMin="34" yMin="-21" xMax="695" yMax="704">
      <contour>
        <pt x="187" y="94" on="1"/>
        <pt x="198" y="97" on="0"/>
        <pt x="226" y="98" on="0"/>
        <pt x="227" y="98" on="1"/>
        <pt x="270" y="98" on="0"/>
        <pt x="352" y="81" on="0"/>
        <pt x="392" y="70" on="1"/>
        <pt x="408" y="66" on="0"/>
        <pt x="447" y="56" on="0"/>
        <pt x="488" y="48" on="0"/>
        <pt x="529" y="42" on="0"/>
        <pt x="548" y="42" on="1"/>
        <pt x="555" y="42" on="0"/>
        <pt x="567" y="43" on="0"/>
        <pt x="579" y="51" on="0"/>
        <pt x="589" y="68" on="0"/>
        <pt x="594" y="84" on="1"/>
        <pt x="598" y="95" on="0"/>
        <pt x="609" y="110" on="0"/>
        <pt x="630" y="124" on="1"/>
        <pt x="644" y="133" on="0"/>
        <pt x="674" y="147" on="0"/>
        <pt x="685" y="147" on="1"/>
        <pt x="688" y="147" on="0"/>
        <pt x="695" y="145" on="0"/>
        <pt x="695" y="140" on="1"/>
        <pt x="695" y="138" on="0"/>
        <pt x="690" y="119" on="0"/>
        <pt x="674" y="91" on="0"/>
        <pt x="647" y="57" on="0"/>
        <pt x="624" y="40" on="1"/>
        <pt x="597" y="19" on="0"/>
        <pt x="516" y="-21" on="0"/>
        <pt x="468" y="-21" on="1"/>
        <pt x="425" y="-21" on="0"/>
        <pt x="342" y="-3" on="0"/>
        <pt x="291" y="10" on="1"/>
        <pt x="245" y="22" on="0"/>
        <pt x="176" y="35" on="0"/>
        <pt x="137" y="35" on="1"/>
        <pt x="122" y="18" on="0"/>
        <pt x="92" y="-4" on="0"/>
        <pt x="66" y="-16" on="0"/>
        <pt x="47" y="-21" on="0"/>
        <pt x="44" y="-21" on="1"/>
        <pt x="34" y="-21" on="0"/>
        <pt x="34" y="-14" on="1"/>
        <pt x="34" y="-6" on="0"/>
        <pt x="55" y="16" on="0"/>
        <pt x="69" y="29" on="1"/>
        <pt x="94" y="53" on="0"/>
        <pt x="131" y="117" on="0"/>
        <pt x="156" y="180" on="0"/>
        <pt x="173" y="236" on="0"/>
        <pt x="177" y="253" on="1"/>
        <pt x="195" y="325" on="0"/>
        <pt x="232" y="431" on="0"/>
        <pt x="269" y="510" on="0"/>
        <pt x="307" y="566" on="0"/>
        <pt x="326" y="588" on="1"/>
        <pt x="344" y="609" on="0"/>
        <pt x="395" y="650" on="0"/>
        <pt x="455" y="683" on="0"/>
        <pt x="521" y="704" on="0"/>
        <pt x="554" y="704" on="1"/>
        <pt x="583" y="704" on="0"/>
        <pt x="620" y="685" on="0"/>
        <pt x="641" y="656" on="0"/>
        <pt x="649" y="622" on="0"/>
        <pt x="649" y="607" on="1"/>
        <pt x="649" y="579" on="0"/>
        <pt x="636" y="555" on="0"/>
        <pt x="619" y="542" on="1"/>
        <pt x="605" y="533" on="0"/>
        <pt x="569" y="515" on="0"/>
        <pt x="556" y="515" on="1"/>
        <pt x="554" y="515" on="0"/>
        <pt x="546" y="517" on="0"/>
        <pt x="546" y="522" on="1"/>
        <pt x="546" y="525" on="0"/>
        <pt x="550" y="544" on="0"/>
        <pt x="550" y="556" on="1"/>
        <pt x="550" y="572" on="0"/>
        <pt x="541" y="603" on="0"/>
        <pt x="522" y="627" on="0"/>
        <pt x="494" y="641" on="0"/>
        <pt x="474" y="641" on="1"/>
        <pt x="447" y="641" on="0"/>
        <pt x="426" y="629" on="0"/>
        <pt x="415" y="618" on="1"/>
        <pt x="386" y="589" on="0"/>
        <pt x="340" y="498" on="0"/>
        <pt x="304" y="401" on="0"/>
        <pt x="280" y="314" on="0"/>
        <pt x="273" y="288" on="1"/>
        <pt x="267" y="267" on="0"/>
        <pt x="254" y="223" on="0"/>
        <pt x="235" y="175" on="0"/>
        <pt x="207" y="123" on="0"/>
      </contour>
    </TTGlyph>
    <TTGlyph name="M" xMin="29" yMin="-51" xMax="1185" yMax="704">
      <contour>
        <pt x="400" y="557" on="1"/>
        <pt x="382" y="460" on="0"/>
        <pt x="321" y="274" on="0"/>
        <pt x="285" y="182" on="1"/>
        <pt x="275" y="156" on="0"/>
        <pt x="241" y="77" on="0"/>
        <pt x="198" y="2" on="0"/>
        <pt x="148" y="-51" on="0"/>
        <pt x="122" y="-51" on="1"/>
        <pt x="119" y="-51" on="0"/>
        <pt x="83" y="-46" on="0"/>
        <pt x="65" y="-37" on="1"/>
        <pt x="38" y="-23" on="0"/>
        <pt x="29" y="-7" on="0"/>
        <pt x="29" y="2" on="1"/>
        <pt x="29" y="14" on="0"/>
        <pt x="36" y="37" on="0"/>
        <pt x="41" y="48" on="1"/>
        <pt x="49" y="66" on="0"/>
        <pt x="61" y="76" on="0"/>
        <pt x="69" y="80" on="1"/>
        <pt x="85" y="63" on="0"/>
        <pt x="132" y="45" on="0"/>
        <pt x="155" y="45" on="1"/>
        <pt x="166" y="45" on="0"/>
        <pt x="189" y="63" on="0"/>
        <pt x="202" y="83" on="1"/>
        <pt x="208" y="93" on="0"/>
        <pt x="253" y="185" on="0"/>
        <pt x="308" y="333" on="0"/>
        <pt x="362" y="530" on="0"/>
        <pt x="378" y="644" on="1"/>
        <pt x="380" y="660" on="0"/>
        <pt x="385" y="673" on="0"/>
        <pt x="397" y="683" on="1"/>
        <pt x="409" y="692" on="0"/>
        <pt x="437" y="704" on="0"/>
        <pt x="446" y="704" on="1"/>
        <pt x="448" y="704" on="0"/>
        <pt x="454" y="703" on="0"/>
        <pt x="456" y="701" on="1"/>
        <pt x="458" y="699" on="0"/>
        <pt x="459" y="691" on="0"/>
        <pt x="463" y="672" on="1"/>
        <pt x="478" y="598" on="0"/>
        <pt x="517" y="437" on="0"/>
        <pt x="547" y="337" on="1"/>
        <pt x="557" y="304" on="0"/>
        <pt x="574" y="251" on="0"/>
        <pt x="592" y="204" on="0"/>
        <pt x="613" y="159" on="0"/>
        <pt x="626" y="135" on="1"/>
        <pt x="638" y="146" on="0"/>
        <pt x="666" y="171" on="0"/>
        <pt x="710" y="214" on="0"/>
        <pt x="773" y="279" on="0"/>
        <pt x="820" y="329" on="1"/>
        <pt x="901" y="416" on="0"/>
        <pt x="1057" y="592" on="0"/>
        <pt x="1134" y="683" on="1"/>
        <pt x="1142" y="692" on="0"/>
        <pt x="1153" y="703" on="0"/>
        <pt x="1158" y="703" on="1"/>
        <pt x="1163" y="703" on="0"/>
        <pt x="1166" y="690" on="0"/>
        <pt x="1166" y="687" on="1"/>
        <pt x="1166" y="679" on="0"/>
        <pt x="1164" y="671" on="1"/>
        <pt x="1156" y="634" on="0"/>
        <pt x="1139" y="540" on="0"/>
        <pt x="1124" y="440" on="0"/>
        <pt x="1111" y="338" on="0"/>
        <pt x="1101" y="246" on="0"/>
        <pt x="1096" y="171" on="0"/>
        <pt x="1096" y="147" on="1"/>
        <pt x="1096" y="139" on="0"/>
        <pt x="1097" y="103" on="0"/>
        <pt x="1100" y="76" on="1"/>
        <pt x="1102" y="56" on="0"/>
        <pt x="1111" y="32" on="0"/>
        <pt x="1132" y="30" on="1"/>
        <pt x="1139" y="34" on="0"/>
        <pt x="1160" y="45" on="0"/>
        <pt x="1174" y="45" on="1"/>
        <pt x="1176" y="45" on="0"/>
        <pt x="1185" y="43" on="0"/>
        <pt x="1185" y="38" on="1"/>
        <pt x="1185" y="30" on="0"/>
        <pt x="1159" y="7" on="0"/>
        <pt x="1122" y="-14" on="0"/>
        <pt x="1079" y="-28" on="0"/>
        <pt x="1062" y="-28" on="1"/>
        <pt x="1045" y="-28" on="0"/>
        <pt x="1016" y="-11" on="0"/>
        <pt x="1012" y="13" on="1"/>
        <pt x="1010" y="33" on="0"/>
        <pt x="1007" y="81" on="0"/>
        <pt x="1007" y="103" on="1"/>
        <pt x="1007" y="144" on="0"/>
        <pt x="1017" y="257" on="0"/>
        <pt x="1032" y="374" on="0"/>
        <pt x="1048" y="481" on="0"/>
        <pt x="1053" y="516" on="1"/>
        <pt x="983" y="438" on="0"/>
        <pt x="878" y="322" on="0"/>
        <pt x="798" y="233" on="0"/>
        <pt x="736" y="168" on="0"/>
        <pt x="684" y="115" on="0"/>
        <pt x="635" y="69" on="0"/>
        <pt x="608" y="45" on="1"/>
        <pt x="601" y="38" on="0"/>
        <pt x="596" y="34" on="0"/>
        <pt x="591" y="34" on="1"/>
        <pt x="586" y="34" on="0"/>
        <pt x="580" y="40" on="0"/>
        <pt x="570" y="55" on="1"/>
        <pt x="555" y="79" on="0"/>
        <pt x="522" y="141" on="0"/>
        <pt x="482" y="249" on="0"/>
        <pt x="432" y="422" on="0"/>
      </contour>
    </TTGlyph>
    <TTGlyph name="N" xMin="-30" yMin="-51" xMax="1028" yMax="779">
      <contour>
        <pt x="666" y="11" on="1"/>
        <pt x="655" y="-6" on="0"/>
        <pt x="615" y="-26" on="0"/>
        <pt x="603" y="-26" on="1"/>
        <pt x="596" y="-26" on="0"/>
        <pt x="590" y="-22" on="0"/>
        <pt x="582" y="-11" on="1"/>
        <pt x="564" y="14" on="0"/>
        <pt x="530" y="65" on="0"/>
        <pt x="495" y="130" on="0"/>
        <pt x="456" y="212" on="0"/>
        <pt x="409" y="325" on="0"/>
        <pt x="352" y="473" on="0"/>
        <pt x="316" y="571" on="1"/>
        <pt x="293" y="429" on="0"/>
        <pt x="232" y="225" on="0"/>
        <pt x="209" y="157" on="1"/>
        <pt x="203" y="138" on="0"/>
        <pt x="177" y="68" on="0"/>
        <pt x="139" y="0" on="0"/>
        <pt x="92" y="-51" on="0"/>
        <pt x="65" y="-51" on="1"/>
        <pt x="55" y="-51" on="0"/>
        <pt x="23" y="-44" on="0"/>
        <pt x="-8" y="-31" on="0"/>
        <pt x="-30" y="-11" on="0"/>
        <pt x="-30" y="1" on="1"/>
        <pt x="-30" y="12" on="0"/>
        <pt x="-23" y="39" on="0"/>
        <pt x="-11" y="63" on="0"/>
        <pt x="3" y="79" on="0"/>
        <pt x="9" y="79" on="1"/>
        <pt x="10" y="79" on="0"/>
        <pt x="13" y="78" on="0"/>
        <pt x="17" y="74" on="1"/>
        <pt x="37" y="57" on="0"/>
        <pt x="87" y="45" on="0"/>
        <pt x="98" y="45" on="1"/>
        <pt x="117" y="45" on="0"/>
        <pt x="139" y="73" on="0"/>
        <pt x="144" y="84" on="1"/>
        <pt x="151" y="97" on="0"/>
        <pt x="190" y="197" on="0"/>
        <pt x="235" y="349" on="0"/>
        <pt x="277" y="543" on="0"/>
        <pt x="287" y="649" on="1"/>
        <pt x="288" y="660" on="0"/>
        <pt x="295" y="675" on="0"/>
        <pt x="312" y="688" on="1"/>
        <pt x="320" y="693" on="0"/>
        <pt x="344" y="704" on="0"/>
        <pt x="354" y="704" on="1"/>
        <pt x="362" y="704" on="0"/>
        <pt x="366" y="698" on="0"/>
        <pt x="370" y="686" on="1"/>
        <pt x="410" y="565" on="0"/>
        <pt x="484" y="373" on="0"/>
        <pt x="522" y="285" on="1"/>
        <pt x="529" y="268" on="0"/>
        <pt x="553" y="215" on="0"/>
        <pt x="584" y="152" on="0"/>
        <pt x="621" y="86" on="0"/>
        <pt x="642" y="57" on="1"/>
        <pt x="657" y="117" on="0"/>
        <pt x="689" y="250" on="0"/>
        <pt x="723" y="383" on="0"/>
        <pt x="758" y="509" on="0"/>
        <pt x="791" y="614" on="0"/>
        <pt x="821" y="693" on="0"/>
        <pt x="834" y="712" on="1"/>
        <pt x="855" y="742" on="0"/>
        <pt x="944" y="779" on="0"/>
        <pt x="1007" y="779" on="1"/>
        <pt x="1021" y="779" on="0"/>
        <pt x="1028" y="774" on="0"/>
        <pt x="1028" y="760" on="1"/>
        <pt x="1028" y="750" on="0"/>
        <pt x="1021" y="724" on="0"/>
        <pt x="1009" y="700" on="0"/>
        <pt x="995" y="683" on="0"/>
        <pt x="987" y="683" on="1"/>
        <pt x="980" y="683" on="0"/>
        <pt x="957" y="682" on="0"/>
        <pt x="932" y="681" on="0"/>
        <pt x="907" y="677" on="0"/>
        <pt x="897" y="674" on="1"/>
        <pt x="871" y="666" on="0"/>
        <pt x="841" y="647" on="0"/>
        <pt x="837" y="641" on="1"/>
        <pt x="832" y="633" on="0"/>
        <pt x="799" y="527" on="0"/>
        <pt x="754" y="365" on="0"/>
        <pt x="703" y="164" on="0"/>
        <pt x="679" y="61" on="1"/>
        <pt x="672" y="31" on="0"/>
        <pt x="670" y="18" on="0"/>
        <pt x="668" y="15" on="1"/>
      </contour>
    </TTGlyph>
    <TTGlyph name="O" xMin="59" yMin="-21" xMax="820" yMax="704">
      <contour>
        <pt x="820" y="472" on="1"/>
        <pt x="820" y="398" on="0"/>
        <pt x="774" y="267" on="0"/>
        <pt x="697" y="157" on="0"/>
        <pt x="595" y="71" on="0"/>
        <pt x="483" y="11" on="0"/>
        <pt x="368" y="-21" on="0"/>
        <pt x="317" y="-21" on="1"/>
        <pt x="254" y="-21" on="0"/>
        <pt x="158" y="22" on="0"/>
        <pt x="93" y="97" on="0"/>
        <pt x="59" y="197" on="0"/>
        <pt x="59" y="254" on="1"/>
        <pt x="59" y="328" on="0"/>
        <pt x="105" y="451" on="0"/>
        <pt x="174" y="551" on="0"/>
        <pt x="258" y="627" on="0"/>
        <pt x="335" y="678" on="0"/>
        <pt x="393" y="704" on="0"/>
        <pt x="403" y="704" on="1"/>
        <pt x="413" y="704" on="0"/>
        <pt x="413" y="696" on="1"/>
        <pt x="413" y="688" on="0"/>
        <pt x="385" y="665" on="0"/>
        <pt x="370" y="657" on="1"/>
        <pt x="312" y="627" on="0"/>
        <pt x="228" y="543" on="0"/>
        <pt x="174" y="447" on="0"/>
        <pt x="148" y="345" on="0"/>
        <pt x="148" y="298" on="1"/>
        <pt x="148" y="243" on="0"/>
        <pt x="180" y="148" on="0"/>
        <pt x="241" y="78" on="0"/>
        <pt x="330" y="37" on="0"/>
        <pt x="387" y="37" on="1"/>
        <pt x="458" y="37" on="0"/>
        <pt x="584" y="102" on="0"/>
        <pt x="677" y="210" on="0"/>
        <pt x="731" y="351" on="0"/>
        <pt x="731" y="428" on="1"/>
        <pt x="731" y="476" on="0"/>
        <pt x="708" y="556" on="0"/>
        <pt x="664" y="614" on="0"/>
        <pt x="599" y="646" on="0"/>
        <pt x="558" y="646" on="1"/>
        <pt x="526" y="646" on="0"/>
        <pt x="485" y="622" on="0"/>
        <pt x="464" y="598" on="1"/>
        <pt x="436" y="567" on="0"/>
        <pt x="405" y="512" on="0"/>
        <pt x="391" y="482" on="1"/>
        <pt x="387" y="473" on="0"/>
        <pt x="367" y="457" on="0"/>
        <pt x="343" y="443" on="0"/>
        <pt x="321" y="435" on="0"/>
        <pt x="313" y="435" on="1"/>
        <pt x="310" y="435" on="0"/>
        <pt x="304" y="438" on="0"/>
        <pt x="304" y="443" on="1"/>
        <pt x="304" y="445" on="0"/>
        <pt x="318" y="478" on="0"/>
        <pt x="347" y="528" on="0"/>
        <pt x="391" y="587" on="0"/>
        <pt x="421" y="614" on="1"/>
        <pt x="441" y="632" on="0"/>
        <pt x="488" y="664" on="0"/>
        <pt x="541" y="689" on="0"/>
        <pt x="599" y="704" on="0"/>
        <pt x="629" y="704" on="1"/>
        <pt x="673" y="704" on="0"/>
        <pt x="744" y="671" on="0"/>
        <pt x="794" y="610" on="0"/>
        <pt x="820" y="525" on="0"/>
      </contour>
    </TTGlyph>
    <TTGlyph name="P" xMin="22" yMin="-50" xMax="780" yMax="683">
      <contour>
        <pt x="512" y="683" on="1"/>
        <pt x="553" y="683" on="0"/>
        <pt x="646" y="668" on="0"/>
        <pt x="727" y="632" on="0"/>
        <pt x="780" y="571" on="0"/>
        <pt x="780" y="524" on="1"/>
        <pt x="780" y="505" on="0"/>
        <pt x="767" y="454" on="0"/>
        <pt x="735" y="396" on="0"/>
        <pt x="679" y="333" on="0"/>
        <pt x="636" y="303" on="1"/>
        <pt x="597" y="276" on="0"/>
        <pt x="514" y="238" on="0"/>
        <pt x="435" y="215" on="0"/>
        <pt x="366" y="205" on="0"/>
        <pt x="340" y="205" on="1"/>
        <pt x="330" y="205" on="0"/>
        <pt x="321" y="207" on="0"/>
        <pt x="321" y="213" on="1"/>
        <pt x="321" y="221" on="0"/>
        <pt x="345" y="242" on="0"/>
        <pt x="358" y="250" on="1"/>
        <pt x="375" y="259" on="0"/>
        <pt x="398" y="263" on="0"/>
        <pt x="413" y="263" on="1"/>
        <pt x="422" y="263" on="0"/>
        <pt x="466" y="268" on="0"/>
        <pt x="523" y="281" on="0"/>
        <pt x="585" y="307" on="0"/>
        <pt x="613" y="329" on="1"/>
        <pt x="647" y="357" on="0"/>
        <pt x="691" y="441" on="0"/>
        <pt x="691" y="480" on="1"/>
        <pt x="691" y="526" on="0"/>
        <pt x="635" y="583" on="0"/>
        <pt x="556" y="614" on="0"/>
        <pt x="468" y="625" on="0"/>
        <pt x="436" y="625" on="1"/>
        <pt x="377" y="625" on="1"/>
        <pt x="364" y="492" on="0"/>
        <pt x="305" y="247" on="0"/>
        <pt x="267" y="140" on="1"/>
        <pt x="242" y="68" on="0"/>
        <pt x="211" y="-5" on="0"/>
        <pt x="211" y="-6" on="1"/>
        <pt x="207" y="-13" on="0"/>
        <pt x="188" y="-29" on="0"/>
        <pt x="166" y="-42" on="0"/>
        <pt x="143" y="-50" on="0"/>
        <pt x="135" y="-50" on="1"/>
        <pt x="132" y="-50" on="0"/>
        <pt x="125" y="-47" on="0"/>
        <pt x="125" y="-42" on="1"/>
        <pt x="125" y="-40" on="0"/>
        <pt x="127" y="-34" on="1"/>
        <pt x="141" y="-2" on="0"/>
        <pt x="188" y="122" on="0"/>
        <pt x="239" y="293" on="0"/>
        <pt x="283" y="505" on="0"/>
        <pt x="292" y="625" on="1"/>
        <pt x="234" y="622" on="0"/>
        <pt x="167" y="605" on="0"/>
        <pt x="130" y="581" on="0"/>
        <pt x="115" y="551" on="0"/>
        <pt x="110" y="536" on="1"/>
        <pt x="107" y="527" on="0"/>
        <pt x="88" y="509" on="0"/>
        <pt x="65" y="495" on="0"/>
        <pt x="41" y="486" on="0"/>
        <pt x="33" y="486" on="1"/>
        <pt x="22" y="486" on="0"/>
        <pt x="22" y="494" on="1"/>
        <pt x="22" y="495" on="0"/>
        <pt x="29" y="521" on="0"/>
        <pt x="54" y="560" on="0"/>
        <pt x="103" y="608" on="0"/>
        <pt x="146" y="631" on="1"/>
        <pt x="203" y="661" on="0"/>
        <pt x="322" y="683" on="0"/>
        <pt x="367" y="683" on="1"/>
      </contour>
    </TTGlyph>
    <TTGlyph name="Q" xMin="116" yMin="-126" xMax="837" yMax="704">
      <contour>
        <pt x="268" y="29" on="1"/>
        <pt x="332" y="29" on="0"/>
        <pt x="430" y="42" on="0"/>
        <pt x="508" y="68" on="0"/>
        <pt x="571" y="107" on="0"/>
        <pt x="599" y="132" on="1"/>
        <pt x="662" y="188" on="0"/>
        <pt x="728" y="331" on="0"/>
        <pt x="728" y="409" on="1"/>
        <pt x="728" y="458" on="0"/>
        <pt x="698" y="544" on="0"/>
        <pt x="642" y="609" on="0"/>
        <pt x="560" y="646" on="0"/>
        <pt x="508" y="646" on="1"/>
        <pt x="438" y="646" on="0"/>
        <pt x="326" y="584" on="0"/>
        <pt x="247" y="491" on="0"/>
        <pt x="205" y="383" on="0"/>
        <pt x="205" y="336" on="1"/>
        <pt x="205" y="298" on="0"/>
        <pt x="229" y="234" on="0"/>
        <pt x="273" y="187" on="0"/>
        <pt x="336" y="160" on="0"/>
        <pt x="375" y="160" on="1"/>
        <pt x="387" y="160" on="0"/>
        <pt x="445" y="168" on="0"/>
        <pt x="479" y="185" on="1"/>
        <pt x="485" y="189" on="0"/>
        <pt x="510" y="200" on="0"/>
        <pt x="520" y="200" on="1"/>
        <pt x="530" y="200" on="0"/>
        <pt x="530" y="192" on="1"/>
        <pt x="530" y="182" on="0"/>
        <pt x="489" y="152" on="0"/>
        <pt x="424" y="123" on="0"/>
        <pt x="344" y="102" on="0"/>
        <pt x="305" y="102" on="1"/>
        <pt x="260" y="102" on="0"/>
        <pt x="190" y="132" on="0"/>
        <pt x="141" y="183" on="0"/>
        <pt x="116" y="252" on="0"/>
        <pt x="116" y="292" on="1"/>
        <pt x="116" y="343" on="0"/>
        <pt x="154" y="443" on="0"/>
        <pt x="221" y="535" on="0"/>
        <pt x="311" y="613" on="0"/>
        <pt x="414" y="671" on="0"/>
        <pt x="525" y="704" on="0"/>
        <pt x="579" y="704" on="1"/>
        <pt x="635" y="704" on="0"/>
        <pt x="724" y="665" on="0"/>
        <pt x="785" y="598" on="0"/>
        <pt x="817" y="506" on="0"/>
        <pt x="817" y="453" on="1"/>
        <pt x="817" y="371" on="0"/>
        <pt x="748" y="225" on="0"/>
        <pt x="635" y="106" on="0"/>
        <pt x="489" y="19" on="0"/>
        <pt x="412" y="-4" on="1"/>
        <pt x="493" y="-33" on="0"/>
        <pt x="628" y="-68" on="0"/>
        <pt x="682" y="-68" on="1"/>
        <pt x="708" y="-68" on="0"/>
        <pt x="738" y="-52" on="0"/>
        <pt x="747" y="-26" on="1"/>
        <pt x="753" y="-11" on="0"/>
        <pt x="776" y="10" on="0"/>
        <pt x="801" y="23" on="0"/>
        <pt x="823" y="29" on="0"/>
        <pt x="826" y="29" on="1"/>
        <pt x="830" y="29" on="0"/>
        <pt x="837" y="26" on="0"/>
        <pt x="837" y="21" on="1"/>
        <pt x="837" y="6" on="0"/>
        <pt x="802" y="-44" on="0"/>
        <pt x="742" y="-92" on="0"/>
        <pt x="659" y="-126" on="0"/>
        <pt x="611" y="-126" on="1"/>
        <pt x="554" y="-126" on="0"/>
        <pt x="446" y="-99" on="0"/>
        <pt x="390" y="-80" on="1"/>
        <pt x="351" y="-67" on="0"/>
        <pt x="290" y="-49" on="0"/>
        <pt x="236" y="-37" on="0"/>
        <pt x="186" y="-30" on="0"/>
        <pt x="157" y="-29" on="1"/>
        <pt x="155" y="-29" on="0"/>
        <pt x="145" y="-27" on="0"/>
        <pt x="145" y="-22" on="1"/>
        <pt x="145" y="-17" on="0"/>
        <pt x="154" y="-6" on="0"/>
        <pt x="166" y="4" on="0"/>
        <pt x="178" y="13" on="0"/>
        <pt x="181" y="15" on="1"/>
        <pt x="201" y="26" on="0"/>
        <pt x="221" y="29" on="0"/>
        <pt x="237" y="29" on="1"/>
      </contour>
    </TTGlyph>
    <TTGlyph name="R" xMin="22" yMin="-21" xMax="897" yMax="683">
      <contour>
        <pt x="377" y="625" on="1"/>
        <pt x="371" y="549" on="0"/>
        <pt x="343" y="402" on="0"/>
        <pt x="309" y="270" on="0"/>
        <pt x="271" y="157" on="0"/>
        <pt x="240" y="73" on="0"/>
        <pt x="218" y="24" on="0"/>
        <pt x="217" y="22" on="1"/>
        <pt x="213" y="15" on="0"/>
        <pt x="194" y="0" on="0"/>
        <pt x="172" y="-13" on="0"/>
        <pt x="151" y="-21" on="0"/>
        <pt x="143" y="-21" on="1"/>
        <pt x="141" y="-21" on="0"/>
        <pt x="132" y="-19" on="0"/>
        <pt x="132" y="-14" on="1"/>
        <pt x="132" y="-12" on="0"/>
        <pt x="134" y="-6" on="0"/>
        <pt x="139" y="7" on="1"/>
        <pt x="178" y="100" on="0"/>
        <pt x="231" y="265" on="0"/>
        <pt x="266" y="416" on="0"/>
        <pt x="286" y="557" on="0"/>
        <pt x="292" y="625" on="1"/>
        <pt x="234" y="622" on="0"/>
        <pt x="167" y="605" on="0"/>
        <pt x="130" y="581" on="0"/>
        <pt x="115" y="551" on="0"/>
        <pt x="110" y="536" on="1"/>
        <pt x="107" y="527" on="0"/>
        <pt x="88" y="509" on="0"/>
        <pt x="65" y="495" on="0"/>
        <pt x="41" y="486" on="0"/>
        <pt x="33" y="486" on="1"/>
        <pt x="22" y="486" on="0"/>
        <pt x="22" y="494" on="1"/>
        <pt x="22" y="500" on="0"/>
        <pt x="34" y="532" on="0"/>
        <pt x="67" y="575" on="0"/>
        <pt x="125" y="623" on="0"/>
        <pt x="171" y="643" on="1"/>
        <pt x="206" y="658" on="0"/>
        <pt x="266" y="674" on="0"/>
        <pt x="328" y="682" on="0"/>
        <pt x="398" y="683" on="0"/>
        <pt x="442" y="683" on="1"/>
        <pt x="507" y="683" on="0"/>
        <pt x="628" y="679" on="0"/>
        <pt x="722" y="656" on="0"/>
        <pt x="779" y="606" on="0"/>
        <pt x="779" y="559" on="1"/>
        <pt x="779" y="517" on="0"/>
        <pt x="740" y="438" on="0"/>
        <pt x="673" y="369" on="0"/>
        <pt x="580" y="314" on="0"/>
        <pt x="526" y="296" on="1"/>
        <pt x="546" y="273" on="0"/>
        <pt x="581" y="209" on="0"/>
        <pt x="598" y="174" on="1"/>
        <pt x="613" y="145" on="0"/>
        <pt x="640" y="95" on="0"/>
        <pt x="668" y="58" on="0"/>
        <pt x="700" y="37" on="0"/>
        <pt x="719" y="37" on="1"/>
        <pt x="738" y="37" on="0"/>
        <pt x="767" y="47" on="0"/>
        <pt x="790" y="63" on="0"/>
        <pt x="806" y="81" on="0"/>
        <pt x="812" y="88" on="1"/>
        <pt x="829" y="110" on="0"/>
        <pt x="874" y="131" on="0"/>
        <pt x="885" y="131" on="1"/>
        <pt x="888" y="131" on="0"/>
        <pt x="897" y="129" on="0"/>
        <pt x="897" y="124" on="1"/>
        <pt x="897" y="117" on="0"/>
        <pt x="855" y="69" on="0"/>
        <pt x="786" y="19" on="0"/>
        <pt x="696" y="-21" on="0"/>
        <pt x="648" y="-21" on="1"/>
        <pt x="608" y="-21" on="0"/>
        <pt x="550" y="44" on="0"/>
        <pt x="518" y="109" on="1"/>
        <pt x="489" y="167" on="0"/>
        <pt x="452" y="231" on="0"/>
        <pt x="423" y="263" on="0"/>
        <pt x="399" y="271" on="0"/>
        <pt x="384" y="274" on="1"/>
        <pt x="378" y="274" on="0"/>
        <pt x="378" y="281" on="1"/>
        <pt x="378" y="287" on="0"/>
        <pt x="397" y="306" on="0"/>
        <pt x="409" y="314" on="1"/>
        <pt x="429" y="326" on="0"/>
        <pt x="452" y="330" on="0"/>
        <pt x="468" y="331" on="1"/>
        <pt x="529" y="333" on="0"/>
        <pt x="614" y="369" on="0"/>
        <pt x="666" y="423" on="0"/>
        <pt x="690" y="486" on="0"/>
        <pt x="690" y="515" on="1"/>
        <pt x="690" y="539" on="0"/>
        <pt x="669" y="579" on="0"/>
        <pt x="614" y="609" on="0"/>
        <pt x="517" y="625" on="0"/>
        <pt x="440" y="625" on="1"/>
      </contour>
    </TTGlyph>
    <TTGlyph name="Rfraktur" xMin="46" yMin="-21" xMax="759" yMax="715">
      <contour>
        <pt x="751" y="461" on="1"/>
        <pt x="757" y="451" on="0"/>
        <pt x="759" y="446" on="0"/>
        <pt x="759" y="444" on="1"/>
        <pt x="759" y="436" on="0"/>
        <pt x="753" y="434" on="1"/>
        <pt x="752" y="433" on="0"/>
        <pt x="718" y="411" on="0"/>
        <pt x="667" y="382" on="0"/>
        <pt x="605" y="355" on="0"/>
        <pt x="576" y="349" on="1"/>
        <pt x="583" y="236" on="1"/>
        <pt x="584" y="224" on="0"/>
        <pt x="586" y="194" on="0"/>
        <pt x="588" y="162" on="0"/>
        <pt x="590" y="133" on="0"/>
        <pt x="590" y="122" on="1"/>
        <pt x="590" y="120" on="0"/>
        <pt x="587" y="105" on="0"/>
        <pt x="587" y="99" on="1"/>
        <pt x="587" y="68" on="0"/>
        <pt x="619" y="25" on="0"/>
        <pt x="635" y="16" on="1"/>
        <pt x="681" y="48" on="0"/>
        <pt x="725" y="78" on="0"/>
        <pt x="729" y="78" on="1"/>
        <pt x="731" y="78" on="0"/>
        <pt x="748" y="70" on="0"/>
        <pt x="748" y="62" on="1"/>
        <pt x="748" y="58" on="0"/>
        <pt x="743" y="53" on="0"/>
        <pt x="732" y="45" on="1"/>
        <pt x="655" y="-6" on="1"/>
        <pt x="638" y="-17" on="0"/>
        <pt x="627" y="-21" on="0"/>
        <pt x="618" y="-21" on="1"/>
        <pt x="593" y="-21" on="0"/>
        <pt x="549" y="-2" on="0"/>
        <pt x="517" y="32" on="0"/>
        <pt x="498" y="75" on="0"/>
        <pt x="498" y="99" on="1"/>
        <pt x="498" y="110" on="0"/>
        <pt x="500" y="116" on="0"/>
        <pt x="500" y="127" on="1"/>
        <pt x="500" y="129" on="0"/>
        <pt x="497" y="177" on="0"/>
        <pt x="494" y="237" on="0"/>
        <pt x="490" y="291" on="0"/>
        <pt x="490" y="298" on="1"/>
        <pt x="489" y="309" on="0"/>
        <pt x="487" y="341" on="0"/>
        <pt x="487" y="344" on="1"/>
        <pt x="366" y="344" on="1"/>
        <pt x="366" y="271" on="1"/>
        <pt x="366" y="194" on="0"/>
        <pt x="336" y="84" on="0"/>
        <pt x="290" y="13" on="0"/>
        <pt x="232" y="-21" on="0"/>
        <pt x="205" y="-21" on="1"/>
        <pt x="196" y="-21" on="0"/>
        <pt x="164" y="-15" on="0"/>
        <pt x="126" y="6" on="0"/>
        <pt x="91" y="47" on="0"/>
        <pt x="79" y="82" on="1"/>
        <pt x="77" y="81" on="0"/>
        <pt x="63" y="76" on="0"/>
        <pt x="61" y="76" on="1"/>
        <pt x="57" y="76" on="0"/>
        <pt x="46" y="82" on="0"/>
        <pt x="46" y="90" on="1"/>
        <pt x="46" y="98" on="0"/>
        <pt x="64" y="107" on="0"/>
        <pt x="69" y="107" on="1"/>
        <pt x="68" y="109" on="0"/>
        <pt x="65" y="119" on="0"/>
        <pt x="65" y="123" on="1"/>
        <pt x="65" y="130" on="0"/>
        <pt x="76" y="140" on="0"/>
        <pt x="81" y="140" on="1"/>
        <pt x="88" y="140" on="0"/>
        <pt x="98" y="122" on="0"/>
        <pt x="98" y="118" on="1"/>
        <pt x="102" y="120" on="0"/>
        <pt x="112" y="124" on="0"/>
        <pt x="116" y="124" on="1"/>
        <pt x="123" y="124" on="0"/>
        <pt x="131" y="114" on="0"/>
        <pt x="131" y="110" on="1"/>
        <pt x="131" y="102" on="0"/>
        <pt x="113" y="93" on="0"/>
        <pt x="108" y="93" on="1"/>
        <pt x="115" y="69" on="0"/>
        <pt x="139" y="36" on="0"/>
        <pt x="166" y="16" on="0"/>
        <pt x="193" y="7" on="0"/>
        <pt x="205" y="7" on="1"/>
        <pt x="225" y="7" on="0"/>
        <pt x="252" y="43" on="0"/>
        <pt x="268" y="99" on="0"/>
        <pt x="276" y="168" on="0"/>
        <pt x="276" y="200" on="1"/>
        <pt x="276" y="481" on="1"/>
        <pt x="276" y="577" on="0"/>
        <pt x="215" y="676" on="0"/>
        <pt x="176" y="676" on="1"/>
        <pt x="158" y="676" on="0"/>
        <pt x="128" y="660" on="0"/>
        <pt x="107" y="634" on="0"/>
        <pt x="95" y="601" on="0"/>
        <pt x="95" y="584" on="1"/>
        <pt x="95" y="567" on="0"/>
        <pt x="117" y="540" on="0"/>
        <pt x="135" y="524" on="1"/>
        <pt x="158" y="504" on="0"/>
        <pt x="186" y="469" on="0"/>
        <pt x="201" y="439" on="0"/>
        <pt x="206" y="410" on="0"/>
        <pt x="206" y="396" on="1"/>
        <pt x="206" y="380" on="0"/>
        <pt x="201" y="329" on="0"/>
        <pt x="184" y="279" on="0"/>
        <pt x="150" y="243" on="0"/>
        <pt x="121" y="243" on="1"/>
        <pt x="102" y="243" on="0"/>
        <pt x="78" y="261" on="0"/>
        <pt x="64" y="287" on="0"/>
        <pt x="59" y="313" on="0"/>
        <pt x="59" y="321" on="1"/>
        <pt x="59" y="338" on="0"/>
        <pt x="75" y="338" on="1"/>
        <pt x="86" y="338" on="0"/>
        <pt x="89" y="328" on="0"/>
        <pt x="90" y="320" on="1"/>
        <pt x="92" y="304" on="0"/>
        <pt x="104" y="271" on="0"/>
        <pt x="121" y="271" on="1"/>
        <pt x="168" y="271" on="0"/>
        <pt x="168" y="389" on="1"/>
        <pt x="168" y="404" on="0"/>
        <pt x="164" y="426" on="0"/>
        <pt x="152" y="447" on="0"/>
        <pt x="131" y="470" on="0"/>
        <pt x="115" y="486" on="1"/>
        <pt x="91" y="511" on="0"/>
        <pt x="59" y="552" on="0"/>
        <pt x="59" y="582" on="1"/>
        <pt x="59" y="606" on="0"/>
        <pt x="77" y="650" on="0"/>
        <pt x="108" y="684" on="0"/>
        <pt x="152" y="704" on="0"/>
        <pt x="177" y="704" on="1"/>
        <pt x="218" y="704" on="0"/>
        <pt x="298" y="654" on="0"/>
        <pt x="327" y="603" on="1"/>
        <pt x="346" y="634" on="0"/>
        <pt x="408" y="676" on="0"/>
        <pt x="479" y="703" on="0"/>
        <pt x="551" y="715" on="0"/>
        <pt x="581" y="715" on="1"/>
        <pt x="594" y="715" on="0"/>
        <pt x="601" y="710" on="0"/>
        <pt x="609" y="698" on="1"/>
      </contour>
      <contour>
        <pt x="518" y="676" on="1"/>
        <pt x="471" y="668" on="0"/>
        <pt x="419" y="644" on="0"/>
        <pt x="411" y="639" on="1"/>
        <pt x="393" y="628" on="0"/>
        <pt x="368" y="604" on="0"/>
        <pt x="353" y="582" on="0"/>
        <pt x="346" y="566" on="0"/>
        <pt x="346" y="563" on="1"/>
        <pt x="346" y="562" on="0"/>
        <pt x="347" y="559" on="0"/>
        <pt x="349" y="553" on="1"/>
        <pt x="355" y="534" on="0"/>
        <pt x="366" y="479" on="0"/>
        <pt x="366" y="426" on="1"/>
        <pt x="366" y="377" on="1"/>
        <pt x="523" y="377" on="1"/>
        <pt x="535" y="377" on="0"/>
        <pt x="563" y="379" on="0"/>
        <pt x="599" y="388" on="0"/>
        <pt x="643" y="406" on="0"/>
        <pt x="671" y="422" on="1"/>
      </contour>
    </TTGlyph>
    <TTGlyph name="S" xMin="20" yMin="-21" xMax="674" yMax="704">
      <contour>
        <pt x="120" y="218" on="1"/>
        <pt x="114" y="207" on="0"/>
        <pt x="109" y="183" on="0"/>
        <pt x="109" y="171" on="1"/>
        <pt x="109" y="146" on="0"/>
        <pt x="141" y="97" on="0"/>
        <pt x="195" y="60" on="0"/>
        <pt x="268" y="37" on="0"/>
        <pt x="309" y="37" on="1"/>
        <pt x="345" y="37" on="0"/>
        <pt x="420" y="51" on="0"/>
        <pt x="481" y="84" on="0"/>
        <pt x="520" y="142" on="0"/>
        <pt x="520" y="185" on="1"/>
        <pt x="520" y="218" on="0"/>
        <pt x="487" y="268" on="0"/>
        <pt x="437" y="305" on="0"/>
        <pt x="376" y="333" on="0"/>
        <pt x="348" y="343" on="1"/>
        <pt x="329" y="350" on="0"/>
        <pt x="277" y="373" on="0"/>
        <pt x="230" y="407" on="0"/>
        <pt x="197" y="456" on="0"/>
        <pt x="197" y="489" on="1"/>
        <pt x="197" y="532" on="0"/>
        <pt x="252" y="610" on="0"/>
        <pt x="340" y="669" on="0"/>
        <pt x="449" y="704" on="0"/>
        <pt x="503" y="704" on="1"/>
        <pt x="514" y="704" on="0"/>
        <pt x="578" y="699" on="0"/>
        <pt x="616" y="683" on="1"/>
        <pt x="626" y="679" on="0"/>
        <pt x="646" y="668" on="0"/>
        <pt x="663" y="651" on="0"/>
        <pt x="674" y="625" on="0"/>
        <pt x="674" y="605" on="1"/>
        <pt x="674" y="573" on="0"/>
        <pt x="657" y="550" on="0"/>
        <pt x="648" y="543" on="1"/>
        <pt x="635" y="533" on="0"/>
        <pt x="601" y="517" on="0"/>
        <pt x="590" y="517" on="1"/>
        <pt x="580" y="517" on="0"/>
        <pt x="580" y="525" on="1"/>
        <pt x="580" y="527" on="0"/>
        <pt x="581" y="532" on="0"/>
        <pt x="581" y="534" on="1"/>
        <pt x="583" y="542" on="0"/>
        <pt x="585" y="551" on="0"/>
        <pt x="585" y="561" on="1"/>
        <pt x="585" y="578" on="0"/>
        <pt x="576" y="601" on="0"/>
        <pt x="561" y="615" on="0"/>
        <pt x="545" y="623" on="0"/>
        <pt x="537" y="626" on="1"/>
        <pt x="501" y="640" on="0"/>
        <pt x="442" y="646" on="0"/>
        <pt x="433" y="646" on="1"/>
        <pt x="408" y="646" on="0"/>
        <pt x="349" y="634" on="0"/>
        <pt x="329" y="621" on="1"/>
        <pt x="314" y="610" on="0"/>
        <pt x="286" y="563" on="0"/>
        <pt x="286" y="533" on="1"/>
        <pt x="286" y="503" on="0"/>
        <pt x="316" y="459" on="0"/>
        <pt x="360" y="428" on="0"/>
        <pt x="407" y="407" on="0"/>
        <pt x="423" y="401" on="1"/>
        <pt x="458" y="388" on="0"/>
        <pt x="524" y="357" on="0"/>
        <pt x="577" y="317" on="0"/>
        <pt x="609" y="264" on="0"/>
        <pt x="609" y="229" on="1"/>
        <pt x="609" y="178" on="0"/>
        <pt x="544" y="87" on="0"/>
        <pt x="439" y="19" on="0"/>
        <pt x="306" y="-21" on="0"/>
        <pt x="238" y="-21" on="1"/>
        <pt x="192" y="-21" on="0"/>
        <pt x="113" y="4" on="0"/>
        <pt x="54" y="45" on="0"/>
        <pt x="20" y="99" on="0"/>
        <pt x="20" y="127" on="1"/>
        <pt x="20" y="161" on="0"/>
        <pt x="51" y="214" on="0"/>
        <pt x="95" y="250" on="0"/>
        <pt x="142" y="268" on="0"/>
        <pt x="157" y="268" on="1"/>
        <pt x="161" y="268" on="0"/>
        <pt x="169" y="266" on="0"/>
        <pt x="169" y="260" on="1"/>
        <pt x="169" y="252" on="0"/>
        <pt x="141" y="227" on="0"/>
      </contour>
    </TTGlyph>
    <TTGlyph name="T" xMin="35" yMin="-68" xMax="883" yMax="717">
      <contour>
        <pt x="403" y="184" on="1"/>
        <pt x="395" y="153" on="0"/>
        <pt x="372" y="83" on="0"/>
        <pt x="348" y="23" on="0"/>
        <pt x="328" y="-20" on="0"/>
        <pt x="324" y="-25" on="1"/>
        <pt x="317" y="-33" on="0"/>
        <pt x="296" y="-48" on="0"/>
        <pt x="273" y="-60" on="0"/>
        <pt x="251" y="-68" on="0"/>
        <pt x="243" y="-68" on="1"/>
        <pt x="239" y="-68" on="0"/>
        <pt x="233" y="-66" on="0"/>
        <pt x="233" y="-61" on="1"/>
        <pt x="233" y="-60" on="0"/>
        <pt x="234" y="-55" on="0"/>
        <pt x="238" y="-47" on="1"/>
        <pt x="263" y="8" on="0"/>
        <pt x="296" y="106" on="0"/>
        <pt x="304" y="137" on="1"/>
        <pt x="416" y="584" on="1"/>
        <pt x="418" y="593" on="0"/>
        <pt x="426" y="611" on="0"/>
        <pt x="439" y="620" on="1"/>
        <pt x="232" y="620" on="1"/>
        <pt x="228" y="620" on="0"/>
        <pt x="211" y="620" on="0"/>
        <pt x="192" y="617" on="0"/>
        <pt x="174" y="611" on="0"/>
        <pt x="168" y="606" on="1"/>
        <pt x="151" y="590" on="0"/>
        <pt x="137" y="557" on="0"/>
        <pt x="135" y="544" on="1"/>
        <pt x="133" y="535" on="0"/>
        <pt x="124" y="518" on="0"/>
        <pt x="101" y="503" on="1"/>
        <pt x="90" y="495" on="0"/>
        <pt x="57" y="481" on="0"/>
        <pt x="47" y="481" on="1"/>
        <pt x="35" y="481" on="0"/>
        <pt x="35" y="490" on="1"/>
        <pt x="35" y="519" on="0"/>
        <pt x="80" y="584" on="0"/>
        <pt x="152" y="640" on="0"/>
        <pt x="242" y="679" on="0"/>
        <pt x="287" y="683" on="1"/>
        <pt x="790" y="683" on="1"/>
        <pt x="794" y="683" on="0"/>
        <pt x="802" y="683" on="0"/>
        <pt x="804" y="685" on="1"/>
        <pt x="809" y="689" on="0"/>
        <pt x="826" y="700" on="0"/>
        <pt x="845" y="710" on="0"/>
        <pt x="864" y="717" on="0"/>
        <pt x="873" y="717" on="1"/>
        <pt x="876" y="717" on="0"/>
        <pt x="883" y="715" on="0"/>
        <pt x="883" y="710" on="1"/>
        <pt x="883" y="704" on="0"/>
        <pt x="862" y="674" on="0"/>
        <pt x="818" y="644" on="0"/>
        <pt x="749" y="620" on="0"/>
        <pt x="701" y="620" on="1"/>
        <pt x="512" y="620" on="1"/>
      </contour>
    </TTGlyph>
    <TTGlyph name="U" xMin="-15" yMin="-27" xMax="724" yMax="683">
      <contour>
        <pt x="525" y="306" on="1"/>
        <pt x="503" y="278" on="0"/>
        <pt x="464" y="230" on="0"/>
        <pt x="425" y="186" on="0"/>
        <pt x="383" y="143" on="0"/>
        <pt x="358" y="121" on="1"/>
        <pt x="279" y="49" on="0"/>
        <pt x="140" y="-21" on="0"/>
        <pt x="89" y="-21" on="1"/>
        <pt x="61" y="-21" on="0"/>
        <pt x="21" y="0" on="0"/>
        <pt x="-4" y="35" on="0"/>
        <pt x="-15" y="81" on="0"/>
        <pt x="-15" y="106" on="1"/>
        <pt x="-15" y="119" on="0"/>
        <pt x="-12" y="152" on="0"/>
        <pt x="3" y="209" on="0"/>
        <pt x="37" y="300" on="0"/>
        <pt x="68" y="371" on="1"/>
        <pt x="102" y="447" on="0"/>
        <pt x="146" y="559" on="0"/>
        <pt x="146" y="591" on="1"/>
        <pt x="146" y="614" on="0"/>
        <pt x="128" y="625" on="0"/>
        <pt x="115" y="625" on="1"/>
        <pt x="113" y="625" on="0"/>
        <pt x="80" y="621" on="0"/>
        <pt x="65" y="611" on="1"/>
        <pt x="48" y="600" on="0"/>
        <pt x="23" y="591" on="0"/>
        <pt x="15" y="591" on="1"/>
        <pt x="13" y="591" on="0"/>
        <pt x="4" y="593" on="0"/>
        <pt x="4" y="598" on="1"/>
        <pt x="4" y="607" on="0"/>
        <pt x="38" y="635" on="0"/>
        <pt x="91" y="663" on="0"/>
        <pt x="156" y="683" on="0"/>
        <pt x="186" y="683" on="1"/>
        <pt x="210" y="683" on="0"/>
        <pt x="235" y="661" on="0"/>
        <pt x="235" y="635" on="1"/>
        <pt x="235" y="600" on="0"/>
        <pt x="188" y="483" on="0"/>
        <pt x="156" y="410" on="1"/>
        <pt x="134" y="358" on="0"/>
        <pt x="102" y="280" on="0"/>
        <pt x="83" y="219" on="0"/>
        <pt x="74" y="171" on="0"/>
        <pt x="74" y="150" on="1"/>
        <pt x="74" y="129" on="0"/>
        <pt x="83" y="89" on="0"/>
        <pt x="103" y="57" on="0"/>
        <pt x="135" y="37" on="0"/>
        <pt x="159" y="37" on="1"/>
        <pt x="190" y="37" on="0"/>
        <pt x="271" y="91" on="0"/>
        <pt x="361" y="178" on="0"/>
        <pt x="452" y="290" on="0"/>
        <pt x="532" y="406" on="0"/>
        <pt x="594" y="517" on="0"/>
        <pt x="609" y="560" on="1"/>
        <pt x="622" y="595" on="0"/>
        <pt x="637" y="636" on="0"/>
        <pt x="639" y="641" on="1"/>
        <pt x="644" y="649" on="0"/>
        <pt x="663" y="664" on="0"/>
        <pt x="685" y="676" on="0"/>
        <pt x="706" y="683" on="0"/>
        <pt x="713" y="683" on="1"/>
        <pt x="721" y="683" on="0"/>
        <pt x="724" y="677" on="0"/>
        <pt x="724" y="676" on="1"/>
        <pt x="724" y="670" on="0"/>
        <pt x="716" y="643" on="0"/>
        <pt x="704" y="613" on="0"/>
        <pt x="692" y="585" on="0"/>
        <pt x="689" y="577" on="1"/>
        <pt x="689" y="577" on="0"/>
        <pt x="669" y="519" on="0"/>
        <pt x="639" y="427" on="0"/>
        <pt x="605" y="312" on="0"/>
        <pt x="575" y="197" on="0"/>
        <pt x="555" y="94" on="0"/>
        <pt x="555" y="59" on="1"/>
        <pt x="555" y="42" on="0"/>
        <pt x="572" y="32" on="0"/>
        <pt x="578" y="31" on="1"/>
        <pt x="586" y="36" on="0"/>
        <pt x="609" y="45" on="0"/>
        <pt x="618" y="45" on="1"/>
        <pt x="621" y="45" on="0"/>
        <pt x="630" y="43" on="0"/>
        <pt x="630" y="38" on="1"/>
        <pt x="630" y="30" on="0"/>
        <pt x="604" y="8" on="0"/>
        <pt x="567" y="-13" on="0"/>
        <pt x="526" y="-27" on="0"/>
        <pt x="511" y="-27" on="1"/>
        <pt x="495" y="-27" on="0"/>
        <pt x="466" y="-8" on="0"/>
        <pt x="466" y="15" on="1"/>
        <pt x="466" y="72" on="0"/>
        <pt x="503" y="221" on="0"/>
        <pt x="526" y="306" on="1"/>
      </contour>
    </TTGlyph>
    <TTGlyph name="V" xMin="35" yMin="-47" xMax="701" yMax="683">
      <contour>
        <pt x="292" y="85" on="1"/>
        <pt x="337" y="117" on="0"/>
        <pt x="425" y="192" on="0"/>
        <pt x="506" y="272" on="0"/>
        <pt x="575" y="351" on="0"/>
        <pt x="626" y="422" on="0"/>
        <pt x="655" y="482" on="0"/>
        <pt x="655" y="502" on="1"/>
        <pt x="655" y="505" on="0"/>
        <pt x="652" y="529" on="0"/>
        <pt x="635" y="558" on="0"/>
        <pt x="598" y="584" on="0"/>
        <pt x="563" y="587" on="1"/>
        <pt x="559" y="588" on="0"/>
        <pt x="552" y="592" on="0"/>
        <pt x="552" y="605" on="1"/>
        <pt x="552" y="610" on="0"/>
        <pt x="557" y="636" on="0"/>
        <pt x="568" y="663" on="0"/>
        <pt x="585" y="683" on="0"/>
        <pt x="597" y="683" on="1"/>
        <pt x="612" y="683" on="0"/>
        <pt x="649" y="671" on="0"/>
        <pt x="680" y="643" on="0"/>
        <pt x="701" y="597" on="0"/>
        <pt x="701" y="564" on="1"/>
        <pt x="701" y="530" on="0"/>
        <pt x="677" y="448" on="0"/>
        <pt x="631" y="358" on="0"/>
        <pt x="564" y="264" on="0"/>
        <pt x="522" y="218" on="1"/>
        <pt x="467" y="158" on="0"/>
        <pt x="358" y="60" on="0"/>
        <pt x="271" y="-9" on="0"/>
        <pt x="215" y="-47" on="0"/>
        <pt x="212" y="-47" on="1"/>
        <pt x="208" y="-47" on="0"/>
        <pt x="204" y="-37" on="0"/>
        <pt x="204" y="-31" on="1"/>
        <pt x="204" y="-29" on="0"/>
        <pt x="205" y="-23" on="0"/>
        <pt x="207" y="-10" on="1"/>
        <pt x="211" y="20" on="0"/>
        <pt x="217" y="86" on="0"/>
        <pt x="221" y="150" on="0"/>
        <pt x="223" y="211" on="0"/>
        <pt x="223" y="236" on="1"/>
        <pt x="223" y="255" on="0"/>
        <pt x="221" y="311" on="0"/>
        <pt x="216" y="374" on="0"/>
        <pt x="206" y="441" on="0"/>
        <pt x="198" y="471" on="1"/>
        <pt x="182" y="527" on="0"/>
        <pt x="141" y="590" on="0"/>
        <pt x="99" y="621" on="0"/>
        <pt x="60" y="629" on="0"/>
        <pt x="47" y="630" on="1"/>
        <pt x="44" y="630" on="0"/>
        <pt x="35" y="633" on="0"/>
        <pt x="35" y="638" on="1"/>
        <pt x="35" y="643" on="0"/>
        <pt x="47" y="659" on="0"/>
        <pt x="68" y="673" on="0"/>
        <pt x="94" y="683" on="0"/>
        <pt x="108" y="683" on="1"/>
        <pt x="157" y="683" on="0"/>
        <pt x="223" y="632" on="0"/>
        <pt x="266" y="553" on="0"/>
        <pt x="289" y="456" on="0"/>
        <pt x="300" y="365" on="0"/>
        <pt x="302" y="291" on="0"/>
        <pt x="302" y="273" on="1"/>
        <pt x="302" y="249" on="0"/>
        <pt x="301" y="207" on="0"/>
        <pt x="298" y="164" on="0"/>
        <pt x="295" y="115" on="0"/>
      </contour>
    </TTGlyph>
    <TTGlyph name="W" xMin="35" yMin="-47" xMax="1101" yMax="683">
      <contour>
        <pt x="795" y="93" on="1"/>
        <pt x="870" y="179" on="0"/>
        <pt x="970" y="318" on="0"/>
        <pt x="1030" y="423" on="0"/>
        <pt x="1055" y="493" on="0"/>
        <pt x="1055" y="510" on="1"/>
        <pt x="1055" y="513" on="0"/>
        <pt x="1053" y="535" on="0"/>
        <pt x="1041" y="561" on="0"/>
        <pt x="1016" y="584" on="0"/>
        <pt x="993" y="587" on="1"/>
        <pt x="984" y="588" on="0"/>
        <pt x="978" y="592" on="0"/>
        <pt x="978" y="606" on="1"/>
        <pt x="978" y="614" on="0"/>
        <pt x="984" y="640" on="0"/>
        <pt x="996" y="665" on="0"/>
        <pt x="1012" y="683" on="0"/>
        <pt x="1021" y="683" on="1"/>
        <pt x="1032" y="683" on="0"/>
        <pt x="1059" y="673" on="0"/>
        <pt x="1084" y="648" on="0"/>
        <pt x="1101" y="605" on="0"/>
        <pt x="1101" y="572" on="1"/>
        <pt x="1101" y="533" on="0"/>
        <pt x="1073" y="439" on="0"/>
        <pt x="1025" y="339" on="0"/>
        <pt x="962" y="236" on="0"/>
        <pt x="927" y="188" on="1"/>
        <pt x="909" y="163" on="0"/>
        <pt x="868" y="109" on="0"/>
        <pt x="826" y="57" on="0"/>
        <pt x="786" y="10" on="0"/>
        <pt x="754" y="-26" on="0"/>
        <pt x="732" y="-47" on="0"/>
        <pt x="729" y="-47" on="1"/>
        <pt x="725" y="-47" on="0"/>
        <pt x="723" y="-43" on="0"/>
        <pt x="722" y="-41" on="1"/>
        <pt x="722" y="-40" on="0"/>
        <pt x="721" y="-30" on="0"/>
        <pt x="720" y="-18" on="0"/>
        <pt x="720" y="-7" on="0"/>
        <pt x="720" y="-5" on="1"/>
        <pt x="717" y="72" on="0"/>
        <pt x="699" y="218" on="0"/>
        <pt x="672" y="360" on="0"/>
        <pt x="633" y="502" on="0"/>
        <pt x="609" y="575" on="1"/>
        <pt x="512" y="393" on="0"/>
        <pt x="303" y="100" on="0"/>
        <pt x="197" y="-22" on="1"/>
        <pt x="191" y="-30" on="0"/>
        <pt x="175" y="-47" on="0"/>
        <pt x="170" y="-47" on="1"/>
        <pt x="165" y="-47" on="0"/>
        <pt x="162" y="-37" on="0"/>
        <pt x="162" y="-31" on="1"/>
        <pt x="162" y="-27" on="0"/>
        <pt x="163" y="-20" on="0"/>
        <pt x="166" y="-6" on="1"/>
        <pt x="168" y="3" on="0"/>
        <pt x="178" y="65" on="0"/>
        <pt x="189" y="154" on="0"/>
        <pt x="198" y="260" on="0"/>
        <pt x="198" y="314" on="1"/>
        <pt x="198" y="340" on="0"/>
        <pt x="195" y="404" on="0"/>
        <pt x="186" y="473" on="0"/>
        <pt x="167" y="539" on="0"/>
        <pt x="134" y="592" on="0"/>
        <pt x="87" y="627" on="0"/>
        <pt x="53" y="630" on="1"/>
        <pt x="42" y="631" on="0"/>
        <pt x="35" y="633" on="0"/>
        <pt x="35" y="639" on="1"/>
        <pt x="35" y="643" on="0"/>
        <pt x="47" y="658" on="0"/>
        <pt x="66" y="672" on="0"/>
        <pt x="92" y="683" on="0"/>
        <pt x="107" y="683" on="1"/>
        <pt x="150" y="683" on="0"/>
        <pt x="208" y="643" on="0"/>
        <pt x="246" y="580" on="0"/>
        <pt x="266" y="503" on="0"/>
        <pt x="275" y="429" on="0"/>
        <pt x="277" y="368" on="0"/>
        <pt x="277" y="352" on="1"/>
        <pt x="277" y="318" on="0"/>
        <pt x="271" y="209" on="0"/>
        <pt x="260" y="124" on="1"/>
        <pt x="336" y="215" on="0"/>
        <pt x="459" y="392" on="0"/>
        <pt x="545" y="531" on="0"/>
        <pt x="591" y="619" on="0"/>
        <pt x="591" y="620" on="1"/>
        <pt x="591" y="624" on="0"/>
        <pt x="587" y="634" on="0"/>
        <pt x="587" y="638" on="1"/>
        <pt x="587" y="644" on="0"/>
        <pt x="601" y="660" on="0"/>
        <pt x="621" y="673" on="0"/>
        <pt x="644" y="683" on="0"/>
        <pt x="653" y="683" on="1"/>
        <pt x="655" y="683" on="0"/>
        <pt x="660" y="682" on="0"/>
        <pt x="662" y="679" on="1"/>
        <pt x="664" y="677" on="0"/>
        <pt x="667" y="670" on="0"/>
        <pt x="675" y="651" on="1"/>
        <pt x="711" y="555" on="0"/>
        <pt x="756" y="381" on="0"/>
        <pt x="781" y="235" on="0"/>
        <pt x="792" y="125" on="0"/>
      </contour>
    </TTGlyph>
    <TTGlyph name="X" xMin="53" yMin="0" xMax="850" yMax="683">
      <contour>
        <pt x="633" y="58" on="1"/>
        <pt x="641" y="70" on="0"/>
        <pt x="663" y="88" on="0"/>
        <pt x="686" y="99" on="0"/>
        <pt x="705" y="105" on="0"/>
        <pt x="709" y="105" on="1"/>
        <pt x="713" y="105" on="0"/>
        <pt x="720" y="102" on="0"/>
        <pt x="720" y="97" on="1"/>
        <pt x="720" y="87" on="0"/>
        <pt x="697" y="55" on="0"/>
        <pt x="654" y="23" on="0"/>
        <pt x="592" y="0" on="0"/>
        <pt x="553" y="0" on="1"/>
        <pt x="511" y="0" on="0"/>
        <pt x="470" y="51" on="0"/>
        <pt x="461" y="107" on="1"/>
        <pt x="460" y="114" on="0"/>
        <pt x="452" y="170" on="0"/>
        <pt x="444" y="237" on="0"/>
        <pt x="437" y="300" on="0"/>
        <pt x="435" y="313" on="1"/>
        <pt x="387" y="287" on="0"/>
        <pt x="295" y="235" on="0"/>
        <pt x="249" y="207" on="1"/>
        <pt x="209" y="182" on="0"/>
        <pt x="165" y="150" on="0"/>
        <pt x="145" y="128" on="0"/>
        <pt x="142" y="111" on="0"/>
        <pt x="142" y="102" on="1"/>
        <pt x="142" y="87" on="0"/>
        <pt x="150" y="70" on="0"/>
        <pt x="161" y="61" on="0"/>
        <pt x="172" y="58" on="0"/>
        <pt x="175" y="58" on="1"/>
        <pt x="178" y="57" on="0"/>
        <pt x="184" y="55" on="0"/>
        <pt x="184" y="50" on="1"/>
        <pt x="184" y="44" on="0"/>
        <pt x="168" y="27" on="0"/>
        <pt x="144" y="11" on="0"/>
        <pt x="116" y="0" on="0"/>
        <pt x="104" y="0" on="1"/>
        <pt x="82" y="0" on="0"/>
        <pt x="53" y="30" on="0"/>
        <pt x="53" y="58" on="1"/>
        <pt x="53" y="70" on="0"/>
        <pt x="60" y="96" on="0"/>
        <pt x="88" y="132" on="0"/>
        <pt x="145" y="179" on="0"/>
        <pt x="195" y="212" on="1"/>
        <pt x="222" y="230" on="0"/>
        <pt x="297" y="273" on="0"/>
        <pt x="367" y="314" on="0"/>
        <pt x="422" y="344" on="0"/>
        <pt x="430" y="348" on="1"/>
        <pt x="429" y="358" on="0"/>
        <pt x="421" y="418" on="0"/>
        <pt x="413" y="485" on="0"/>
        <pt x="406" y="540" on="0"/>
        <pt x="405" y="544" on="1"/>
        <pt x="399" y="574" on="0"/>
        <pt x="380" y="607" on="0"/>
        <pt x="359" y="622" on="0"/>
        <pt x="335" y="625" on="0"/>
        <pt x="323" y="625" on="1"/>
        <pt x="314" y="611" on="0"/>
        <pt x="290" y="593" on="0"/>
        <pt x="267" y="582" on="0"/>
        <pt x="249" y="578" on="0"/>
        <pt x="247" y="578" on="1"/>
        <pt x="236" y="578" on="0"/>
        <pt x="236" y="587" on="1"/>
        <pt x="236" y="597" on="0"/>
        <pt x="259" y="629" on="0"/>
        <pt x="302" y="660" on="0"/>
        <pt x="364" y="683" on="0"/>
        <pt x="403" y="683" on="1"/>
        <pt x="434" y="683" on="0"/>
        <pt x="470" y="658" on="0"/>
        <pt x="491" y="609" on="0"/>
        <pt x="502" y="537" on="0"/>
        <pt x="507" y="489" on="1"/>
        <pt x="510" y="464" on="0"/>
        <pt x="516" y="424" on="0"/>
        <pt x="519" y="398" on="1"/>
        <pt x="554" y="418" on="0"/>
        <pt x="639" y="466" on="0"/>
        <pt x="674" y="489" on="1"/>
        <pt x="707" y="510" on="0"/>
        <pt x="742" y="537" on="0"/>
        <pt x="758" y="557" on="0"/>
        <pt x="761" y="571" on="0"/>
        <pt x="761" y="580" on="1"/>
        <pt x="761" y="621" on="0"/>
        <pt x="728" y="625" on="1"/>
        <pt x="725" y="626" on="0"/>
        <pt x="719" y="628" on="0"/>
        <pt x="719" y="633" on="1"/>
        <pt x="719" y="639" on="0"/>
        <pt x="735" y="656" on="0"/>
        <pt x="759" y="672" on="0"/>
        <pt x="787" y="683" on="0"/>
        <pt x="799" y="683" on="1"/>
        <pt x="807" y="683" on="0"/>
        <pt x="824" y="677" on="0"/>
        <pt x="840" y="664" on="0"/>
        <pt x="850" y="641" on="0"/>
        <pt x="850" y="624" on="1"/>
        <pt x="850" y="613" on="0"/>
        <pt x="844" y="589" on="0"/>
        <pt x="823" y="559" on="0"/>
        <pt x="780" y="520" on="0"/>
        <pt x="742" y="494" on="1"/>
        <pt x="734" y="489" on="0"/>
        <pt x="703" y="468" on="0"/>
        <pt x="650" y="435" on="0"/>
        <pt x="575" y="391" on="0"/>
        <pt x="523" y="363" on="1"/>
        <pt x="529" y="312" on="0"/>
        <pt x="540" y="213" on="0"/>
        <pt x="548" y="162" on="1"/>
        <pt x="554" y="123" on="0"/>
        <pt x="572" y="81" on="0"/>
        <pt x="595" y="61" on="0"/>
        <pt x="620" y="58" on="0"/>
      </contour>
    </TTGlyph>
    <TTGlyph name="Y" xMin="33" yMin="-138" xMax="753" yMax="683">
      <contour>
        <pt x="430" y="98" on="1"/>
        <pt x="521" y="182" on="0"/>
        <pt x="631" y="327" on="0"/>
        <pt x="691" y="438" on="0"/>
        <pt x="710" y="507" on="0"/>
        <pt x="710" y="516" on="1"/>
        <pt x="710" y="538" on="0"/>
        <pt x="694" y="568" on="0"/>
        <pt x="669" y="588" on="0"/>
        <pt x="638" y="598" on="0"/>
        <pt x="622" y="600" on="1"/>
        <pt x="615" y="601" on="0"/>
        <pt x="610" y="607" on="0"/>
        <pt x="610" y="618" on="1"/>
        <pt x="610" y="625" on="0"/>
        <pt x="615" y="647" on="0"/>
        <pt x="624" y="668" on="0"/>
        <pt x="640" y="683" on="0"/>
        <pt x="650" y="683" on="1"/>
        <pt x="667" y="683" on="0"/>
        <pt x="703" y="669" on="0"/>
        <pt x="733" y="641" on="0"/>
        <pt x="753" y="596" on="0"/>
        <pt x="753" y="564" on="1"/>
        <pt x="753" y="538" on="0"/>
        <pt x="730" y="448" on="0"/>
        <pt x="676" y="332" on="0"/>
        <pt x="587" y="196" on="0"/>
        <pt x="522" y="124" on="1"/>
        <pt x="473" y="70" on="0"/>
        <pt x="369" y="-25" on="0"/>
        <pt x="272" y="-97" on="0"/>
        <pt x="191" y="-138" on="0"/>
        <pt x="165" y="-138" on="1"/>
        <pt x="130" y="-138" on="0"/>
        <pt x="80" y="-111" on="0"/>
        <pt x="48" y="-74" on="0"/>
        <pt x="33" y="-35" on="0"/>
        <pt x="33" y="-23" on="1"/>
        <pt x="33" y="-14" on="0"/>
        <pt x="39" y="8" on="0"/>
        <pt x="49" y="27" on="0"/>
        <pt x="61" y="41" on="0"/>
        <pt x="67" y="41" on="1"/>
        <pt x="73" y="41" on="0"/>
        <pt x="76" y="28" on="1"/>
        <pt x="85" y="-3" on="0"/>
        <pt x="122" y="-37" on="0"/>
        <pt x="160" y="-52" on="0"/>
        <pt x="190" y="-55" on="0"/>
        <pt x="193" y="-55" on="1"/>
        <pt x="210" y="-55" on="0"/>
        <pt x="255" y="-34" on="0"/>
        <pt x="299" y="-8" on="0"/>
        <pt x="332" y="16" on="0"/>
        <pt x="335" y="18" on="1"/>
        <pt x="345" y="26" on="0"/>
        <pt x="349" y="34" on="0"/>
        <pt x="350" y="46" on="1"/>
        <pt x="352" y="77" on="0"/>
        <pt x="352" y="113" on="0"/>
        <pt x="352" y="127" on="1"/>
        <pt x="352" y="164" on="0"/>
        <pt x="348" y="267" on="0"/>
        <pt x="334" y="378" on="0"/>
        <pt x="306" y="488" on="0"/>
        <pt x="258" y="575" on="0"/>
        <pt x="186" y="629" on="0"/>
        <pt x="135" y="630" on="1"/>
        <pt x="118" y="610" on="0"/>
        <pt x="81" y="596" on="0"/>
        <pt x="74" y="596" on="1"/>
        <pt x="72" y="596" on="0"/>
        <pt x="62" y="598" on="0"/>
        <pt x="62" y="604" on="1"/>
        <pt x="62" y="610" on="0"/>
        <pt x="84" y="636" on="0"/>
        <pt x="122" y="663" on="0"/>
        <pt x="173" y="683" on="0"/>
        <pt x="201" y="683" on="1"/>
        <pt x="257" y="683" on="0"/>
        <pt x="335" y="621" on="0"/>
        <pt x="386" y="524" on="0"/>
        <pt x="415" y="404" on="0"/>
        <pt x="428" y="289" on="0"/>
        <pt x="431" y="192" on="0"/>
        <pt x="431" y="165" on="1"/>
        <pt x="431" y="147" on="0"/>
        <pt x="431" y="117" on="0"/>
      </contour>
    </TTGlyph>
    <TTGlyph name="Z" xMin="39" yMin="0" xMax="805" yMax="683">
      <contour>
        <pt x="480" y="396" on="1"/>
        <pt x="488" y="404" on="0"/>
        <pt x="516" y="431" on="0"/>
        <pt x="528" y="443" on="1"/>
        <pt x="675" y="596" on="1"/>
        <pt x="666" y="594" on="0"/>
        <pt x="645" y="593" on="0"/>
        <pt x="640" y="593" on="1"/>
        <pt x="614" y="593" on="0"/>
        <pt x="551" y="601" on="0"/>
        <pt x="500" y="609" on="1"/>
        <pt x="477" y="614" on="0"/>
        <pt x="422" y="620" on="0"/>
        <pt x="401" y="620" on="1"/>
        <pt x="368" y="620" on="0"/>
        <pt x="330" y="610" on="0"/>
        <pt x="308" y="594" on="0"/>
        <pt x="298" y="572" on="0"/>
        <pt x="294" y="560" on="1"/>
        <pt x="290" y="550" on="0"/>
        <pt x="267" y="529" on="0"/>
        <pt x="239" y="513" on="0"/>
        <pt x="213" y="503" on="0"/>
        <pt x="205" y="503" on="1"/>
        <pt x="202" y="503" on="0"/>
        <pt x="195" y="505" on="0"/>
        <pt x="195" y="510" on="1"/>
        <pt x="195" y="512" on="0"/>
        <pt x="200" y="532" on="0"/>
        <pt x="219" y="564" on="0"/>
        <pt x="256" y="603" on="0"/>
        <pt x="287" y="623" on="1"/>
        <pt x="341" y="657" on="0"/>
        <pt x="437" y="683" on="0"/>
        <pt x="481" y="683" on="1"/>
        <pt x="495" y="683" on="0"/>
        <pt x="521" y="681" on="0"/>
        <pt x="554" y="678" on="0"/>
        <pt x="596" y="672" on="0"/>
        <pt x="624" y="667" on="1"/>
        <pt x="644" y="663" on="0"/>
        <pt x="700" y="656" on="0"/>
        <pt x="720" y="656" on="1"/>
        <pt x="729" y="656" on="0"/>
        <pt x="735" y="657" on="0"/>
        <pt x="741" y="661" on="1"/>
        <pt x="755" y="671" on="0"/>
        <pt x="785" y="683" on="0"/>
        <pt x="795" y="683" on="1"/>
        <pt x="798" y="683" on="0"/>
        <pt x="805" y="681" on="0"/>
        <pt x="805" y="676" on="1"/>
        <pt x="805" y="673" on="0"/>
        <pt x="781" y="644" on="0"/>
        <pt x="742" y="601" on="0"/>
        <pt x="692" y="547" on="0"/>
        <pt x="637" y="491" on="0"/>
        <pt x="583" y="438" on="0"/>
        <pt x="560" y="416" on="1"/>
        <pt x="558" y="414" on="0"/>
        <pt x="542" y="399" on="0"/>
        <pt x="542" y="397" on="1"/>
        <pt x="542" y="396" on="0"/>
        <pt x="559" y="395" on="0"/>
        <pt x="561" y="395" on="1"/>
        <pt x="567" y="395" on="0"/>
        <pt x="590" y="393" on="0"/>
        <pt x="613" y="387" on="0"/>
        <pt x="630" y="375" on="0"/>
        <pt x="630" y="364" on="1"/>
        <pt x="630" y="355" on="0"/>
        <pt x="618" y="340" on="0"/>
        <pt x="601" y="329" on="0"/>
        <pt x="583" y="322" on="0"/>
        <pt x="576" y="322" on="1"/>
        <pt x="573" y="322" on="0"/>
        <pt x="563" y="324" on="0"/>
        <pt x="563" y="332" on="1"/>
        <pt x="561" y="334" on="0"/>
        <pt x="561" y="338" on="0"/>
        <pt x="559" y="339" on="1"/>
        <pt x="555" y="342" on="0"/>
        <pt x="538" y="346" on="0"/>
        <pt x="517" y="348" on="0"/>
        <pt x="496" y="349" on="0"/>
        <pt x="488" y="349" on="1"/>
        <pt x="475" y="336" on="0"/>
        <pt x="418" y="285" on="0"/>
        <pt x="339" y="216" on="0"/>
        <pt x="240" y="132" on="0"/>
        <pt x="185" y="86" on="1"/>
        <pt x="199" y="89" on="0"/>
        <pt x="223" y="90" on="0"/>
        <pt x="235" y="90" on="1"/>
        <pt x="259" y="90" on="0"/>
        <pt x="315" y="86" on="0"/>
        <pt x="366" y="82" on="0"/>
        <pt x="406" y="77" on="0"/>
        <pt x="413" y="76" on="1"/>
        <pt x="420" y="75" on="0"/>
        <pt x="460" y="71" on="0"/>
        <pt x="509" y="67" on="0"/>
        <pt x="559" y="63" on="0"/>
        <pt x="577" y="63" on="1"/>
        <pt x="594" y="63" on="0"/>
        <pt x="605" y="68" on="0"/>
        <pt x="616" y="82" on="1"/>
        <pt x="623" y="92" on="0"/>
        <pt x="639" y="121" on="0"/>
        <pt x="646" y="143" on="1"/>
        <pt x="648" y="150" on="0"/>
        <pt x="653" y="160" on="0"/>
        <pt x="660" y="170" on="0"/>
        <pt x="673" y="180" on="0"/>
        <pt x="684" y="187" on="1"/>
        <pt x="703" y="199" on="0"/>
        <pt x="729" y="209" on="0"/>
        <pt x="737" y="209" on="1"/>
        <pt x="741" y="209" on="0"/>
        <pt x="748" y="207" on="0"/>
        <pt x="748" y="202" on="1"/>
        <pt x="748" y="201" on="0"/>
        <pt x="741" y="176" on="0"/>
        <pt x="723" y="137" on="0"/>
        <pt x="690" y="91" on="0"/>
        <pt x="664" y="68" on="1"/>
        <pt x="629" y="39" on="0"/>
        <pt x="545" y="0" on="0"/>
        <pt x="497" y="0" on="1"/>
        <pt x="475" y="0" on="0"/>
        <pt x="423" y="3" on="0"/>
        <pt x="372" y="8" on="0"/>
        <pt x="328" y="13" on="0"/>
        <pt x="314" y="15" on="1"/>
        <pt x="266" y="20" on="0"/>
        <pt x="177" y="27" on="0"/>
        <pt x="155" y="27" on="1"/>
        <pt x="138" y="27" on="0"/>
        <pt x="105" y="22" on="0"/>
        <pt x="90" y="14" on="1"/>
        <pt x="83" y="10" on="0"/>
        <pt x="57" y="0" on="0"/>
        <pt x="49" y="0" on="1"/>
        <pt x="39" y="0" on="0"/>
        <pt x="39" y="7" on="1"/>
        <pt x="39" y="14" on="0"/>
        <pt x="65" y="37" on="0"/>
        <pt x="76" y="45" on="1"/>
        <pt x="167" y="118" on="0"/>
        <pt x="343" y="269" on="0"/>
        <pt x="429" y="349" on="1"/>
        <pt x="330" y="349" on="1"/>
        <pt x="317" y="349" on="0"/>
        <pt x="305" y="351" on="0"/>
        <pt x="305" y="358" on="1"/>
        <pt x="305" y="367" on="0"/>
        <pt x="322" y="382" on="0"/>
        <pt x="329" y="387" on="1"/>
        <pt x="341" y="394" on="0"/>
        <pt x="358" y="396" on="0"/>
        <pt x="372" y="396" on="1"/>
      </contour>
    </TTGlyph>
    <TTGlyph name="angbracketleft" xMin="117" yMin="-250" xMax="353" yMax="750">
      <contour>
        <pt x="165" y="250" on="1"/>
        <pt x="347" y="-208" on="1"/>
        <pt x="352" y="-218" on="0"/>
        <pt x="353" y="-224" on="0"/>
        <pt x="353" y="-227" on="1"/>
        <pt x="353" y="-237" on="0"/>
        <pt x="340" y="-250" on="0"/>
        <pt x="330" y="-250" on="1"/>
        <pt x="320" y="-250" on="0"/>
        <pt x="309" y="-238" on="0"/>
        <pt x="304" y="-225" on="1"/>
        <pt x="123" y="231" on="1"/>
        <pt x="118" y="241" on="0"/>
        <pt x="117" y="247" on="0"/>
        <pt x="117" y="250" on="1"/>
        <pt x="117" y="253" on="0"/>
        <pt x="118" y="259" on="0"/>
        <pt x="123" y="269" on="1"/>
        <pt x="306" y="728" on="1"/>
        <pt x="309" y="736" on="0"/>
        <pt x="319" y="750" on="0"/>
        <pt x="330" y="750" on="1"/>
        <pt x="340" y="750" on="0"/>
        <pt x="353" y="737" on="0"/>
        <pt x="353" y="727" on="1"/>
        <pt x="353" y="724" on="0"/>
        <pt x="352" y="718" on="0"/>
        <pt x="347" y="708" on="1"/>
      </contour>
    </TTGlyph>
    <TTGlyph name="angbracketright" xMin="59" yMin="-250" xMax="295" yMax="750">
      <contour>
        <pt x="106" y="-228" on="1"/>
        <pt x="103" y="-236" on="0"/>
        <pt x="93" y="-250" on="0"/>
        <pt x="82" y="-250" on="1"/>
        <pt x="72" y="-250" on="0"/>
        <pt x="59" y="-237" on="0"/>
        <pt x="59" y="-227" on="1"/>
        <pt x="59" y="-224" on="0"/>
        <pt x="60" y="-218" on="0"/>
        <pt x="65" y="-208" on="1"/>
        <pt x="247" y="250" on="1"/>
        <pt x="65" y="708" on="1"/>
        <pt x="60" y="718" on="0"/>
        <pt x="59" y="724" on="0"/>
        <pt x="59" y="727" on="1"/>
        <pt x="59" y="737" on="0"/>
        <pt x="72" y="750" on="0"/>
        <pt x="82" y="750" on="1"/>
        <pt x="92" y="750" on="0"/>
        <pt x="103" y="738" on="0"/>
        <pt x="108" y="725" on="1"/>
        <pt x="289" y="269" on="1"/>
        <pt x="294" y="259" on="0"/>
        <pt x="295" y="253" on="0"/>
        <pt x="295" y="250" on="1"/>
        <pt x="295" y="247" on="0"/>
        <pt x="294" y="241" on="0"/>
        <pt x="289" y="231" on="1"/>
      </contour>
    </TTGlyph>
    <TTGlyph name="approxequal" xMin="59" yMin="40" xMax="766" yMax="505">
      <contour>
        <pt x="766" y="469" on="1"/>
        <pt x="766" y="433" on="0"/>
        <pt x="740" y="370" on="0"/>
        <pt x="693" y="322" on="0"/>
        <pt x="628" y="294" on="0"/>
        <pt x="589" y="294" on="1"/>
        <pt x="539" y="294" on="0"/>
        <pt x="452" y="339" on="0"/>
        <pt x="406" y="370" on="1"/>
        <pt x="367" y="396" on="0"/>
        <pt x="284" y="441" on="0"/>
        <pt x="236" y="441" on="1"/>
        <pt x="208" y="441" on="0"/>
        <pt x="157" y="423" on="0"/>
        <pt x="117" y="393" on="0"/>
        <pt x="93" y="351" on="0"/>
        <pt x="91" y="327" on="1"/>
        <pt x="91" y="325" on="0"/>
        <pt x="90" y="314" on="0"/>
        <pt x="87" y="303" on="0"/>
        <pt x="80" y="295" on="0"/>
        <pt x="75" y="295" on="1"/>
        <pt x="71" y="295" on="0"/>
        <pt x="59" y="307" on="0"/>
        <pt x="59" y="330" on="1"/>
        <pt x="59" y="366" on="0"/>
        <pt x="85" y="429" on="0"/>
        <pt x="132" y="477" on="0"/>
        <pt x="197" y="505" on="0"/>
        <pt x="236" y="505" on="1"/>
        <pt x="286" y="505" on="0"/>
        <pt x="373" y="460" on="0"/>
        <pt x="419" y="429" on="1"/>
        <pt x="458" y="403" on="0"/>
        <pt x="541" y="358" on="0"/>
        <pt x="589" y="358" on="1"/>
        <pt x="616" y="358" on="0"/>
        <pt x="666" y="374" on="0"/>
        <pt x="707" y="405" on="0"/>
        <pt x="733" y="450" on="0"/>
        <pt x="734" y="478" on="1"/>
        <pt x="735" y="488" on="0"/>
        <pt x="743" y="504" on="0"/>
        <pt x="750" y="504" on="1"/>
        <pt x="754" y="504" on="0"/>
        <pt x="766" y="492" on="0"/>
      </contour>
      <contour>
        <pt x="766" y="215" on="1"/>
        <pt x="766" y="179" on="0"/>
        <pt x="740" y="116" on="0"/>
        <pt x="693" y="68" on="0"/>
        <pt x="628" y="40" on="0"/>
        <pt x="589" y="40" on="1"/>
        <pt x="539" y="40" on="0"/>
        <pt x="452" y="85" on="0"/>
        <pt x="406" y="116" on="1"/>
        <pt x="367" y="142" on="0"/>
        <pt x="284" y="187" on="0"/>
        <pt x="236" y="187" on="1"/>
        <pt x="208" y="187" on="0"/>
        <pt x="157" y="169" on="0"/>
        <pt x="117" y="139" on="0"/>
        <pt x="93" y="97" on="0"/>
        <pt x="91" y="73" on="1"/>
        <pt x="91" y="71" on="0"/>
        <pt x="90" y="60" on="0"/>
        <pt x="87" y="49" on="0"/>
        <pt x="80" y="41" on="0"/>
        <pt x="75" y="41" on="1"/>
        <pt x="71" y="41" on="0"/>
        <pt x="59" y="53" on="0"/>
        <pt x="59" y="76" on="1"/>
        <pt x="59" y="112" on="0"/>
        <pt x="85" y="175" on="0"/>
        <pt x="132" y="223" on="0"/>
        <pt x="197" y="251" on="0"/>
        <pt x="236" y="251" on="1"/>
        <pt x="286" y="251" on="0"/>
        <pt x="373" y="206" on="0"/>
        <pt x="419" y="175" on="1"/>
        <pt x="458" y="149" on="0"/>
        <pt x="541" y="104" on="0"/>
        <pt x="589" y="104" on="1"/>
        <pt x="616" y="104" on="0"/>
        <pt x="666" y="120" on="0"/>
        <pt x="707" y="151" on="0"/>
        <pt x="733" y="196" on="0"/>
        <pt x="734" y="224" on="1"/>
        <pt x="735" y="234" on="0"/>
        <pt x="743" y="250" on="0"/>
        <pt x="750" y="250" on="1"/>
        <pt x="754" y="250" on="0"/>
        <pt x="766" y="238" on="0"/>
      </contour>
    </TTGlyph>
    <TTGlyph name="arrowboth" xMin="60" yMin="-14" xMax="1003" yMax="514">
      <contour>
        <pt x="873" y="273" on="1"/>
        <pt x="854" y="287" on="0"/>
        <pt x="806" y="333" on="0"/>
        <pt x="784" y="365" on="1"/>
        <pt x="768" y="390" on="0"/>
        <pt x="747" y="437" on="0"/>
        <pt x="735" y="475" on="0"/>
        <pt x="730" y="498" on="0"/>
        <pt x="730" y="499" on="1"/>
        <pt x="730" y="510" on="0"/>
        <pt x="746" y="514" on="0"/>
        <pt x="753" y="514" on="1"/>
        <pt x="768" y="514" on="0"/>
        <pt x="774" y="506" on="0"/>
        <pt x="778" y="491" on="1"/>
        <pt x="786" y="458" on="0"/>
        <pt x="817" y="391" on="0"/>
        <pt x="867" y="331" on="0"/>
        <pt x="940" y="281" on="0"/>
        <pt x="990" y="264" on="1"/>
        <pt x="993" y="263" on="0"/>
        <pt x="1003" y="258" on="0"/>
        <pt x="1003" y="250" on="1"/>
        <pt x="1003" y="242" on="0"/>
        <pt x="993" y="237" on="0"/>
        <pt x="987" y="235" on="1"/>
        <pt x="896" y="204" on="0"/>
        <pt x="796" y="83" on="0"/>
        <pt x="776" y="-1" on="1"/>
        <pt x="774" y="-11" on="0"/>
        <pt x="761" y="-14" on="0"/>
        <pt x="753" y="-14" on="1"/>
        <pt x="746" y="-14" on="0"/>
        <pt x="730" y="-10" on="0"/>
        <pt x="730" y="1" on="1"/>
        <pt x="730" y="3" on="0"/>
        <pt x="735" y="26" on="0"/>
        <pt x="747" y="63" on="0"/>
        <pt x="768" y="110" on="0"/>
        <pt x="784" y="134" on="1"/>
        <pt x="820" y="188" on="0"/>
        <pt x="873" y="227" on="1"/>
        <pt x="189" y="227" on="1"/>
        <pt x="208" y="213" on="0"/>
        <pt x="256" y="167" on="0"/>
        <pt x="278" y="135" on="1"/>
        <pt x="295" y="110" on="0"/>
        <pt x="316" y="63" on="0"/>
        <pt x="328" y="25" on="0"/>
        <pt x="332" y="2" on="0"/>
        <pt x="332" y="1" on="1"/>
        <pt x="332" y="-10" on="0"/>
        <pt x="316" y="-14" on="0"/>
        <pt x="309" y="-14" on="1"/>
        <pt x="294" y="-14" on="0"/>
        <pt x="288" y="-6" on="0"/>
        <pt x="284" y="9" on="1"/>
        <pt x="262" y="96" on="0"/>
        <pt x="155" y="208" on="0"/>
        <pt x="71" y="236" on="1"/>
        <pt x="69" y="237" on="0"/>
        <pt x="60" y="242" on="0"/>
        <pt x="60" y="250" on="1"/>
        <pt x="60" y="258" on="0"/>
        <pt x="69" y="263" on="0"/>
        <pt x="75" y="265" on="1"/>
        <pt x="123" y="282" on="0"/>
        <pt x="193" y="330" on="0"/>
        <pt x="244" y="390" on="0"/>
        <pt x="277" y="462" on="0"/>
        <pt x="286" y="501" on="1"/>
        <pt x="288" y="511" on="0"/>
        <pt x="301" y="514" on="0"/>
        <pt x="309" y="514" on="1"/>
        <pt x="316" y="514" on="0"/>
        <pt x="332" y="510" on="0"/>
        <pt x="332" y="499" on="1"/>
        <pt x="332" y="498" on="0"/>
        <pt x="327" y="474" on="0"/>
        <pt x="315" y="437" on="0"/>
        <pt x="294" y="390" on="0"/>
        <pt x="278" y="366" on="1"/>
        <pt x="242" y="312" on="0"/>
        <pt x="189" y="273" on="1"/>
      </contour>
    </TTGlyph>
    <TTGlyph name="arrowbothv" xMin="15" yMin="-271" xMax="515" yMax="771">
      <contour>
        <pt x="288" y="-126" on="1"/>
        <pt x="305" y="-101" on="0"/>
        <pt x="346" y="-59" on="0"/>
        <pt x="368" y="-42" on="1"/>
        <pt x="393" y="-24" on="0"/>
        <pt x="440" y="-2" on="0"/>
        <pt x="477" y="11" on="0"/>
        <pt x="499" y="15" on="0"/>
        <pt x="500" y="15" on="1"/>
        <pt x="511" y="15" on="0"/>
        <pt x="515" y="-2" on="0"/>
        <pt x="515" y="-7" on="1"/>
        <pt x="515" y="-15" on="0"/>
        <pt x="511" y="-28" on="0"/>
        <pt x="503" y="-30" on="1"/>
        <pt x="410" y="-53" on="0"/>
        <pt x="299" y="-168" on="0"/>
        <pt x="279" y="-259" on="1"/>
        <pt x="277" y="-264" on="0"/>
        <pt x="270" y="-271" on="0"/>
        <pt x="265" y="-271" on="1"/>
        <pt x="259" y="-271" on="0"/>
        <pt x="253" y="-264" on="0"/>
        <pt x="252" y="-259" on="1"/>
        <pt x="248" y="-241" on="0"/>
        <pt x="226" y="-178" on="0"/>
        <pt x="178" y="-110" on="0"/>
        <pt x="95" y="-47" on="0"/>
        <pt x="28" y="-30" on="1"/>
        <pt x="20" y="-28" on="0"/>
        <pt x="15" y="-17" on="0"/>
        <pt x="15" y="-7" on="1"/>
        <pt x="15" y="-2" on="0"/>
        <pt x="19" y="15" on="0"/>
        <pt x="30" y="15" on="1"/>
        <pt x="31" y="15" on="0"/>
        <pt x="53" y="11" on="0"/>
        <pt x="88" y="-1" on="0"/>
        <pt x="134" y="-23" on="0"/>
        <pt x="158" y="-40" on="1"/>
        <pt x="178" y="-54" on="0"/>
        <pt x="222" y="-97" on="0"/>
        <pt x="242" y="-126" on="1"/>
        <pt x="242" y="626" on="1"/>
        <pt x="225" y="601" on="0"/>
        <pt x="184" y="559" on="0"/>
        <pt x="162" y="542" on="1"/>
        <pt x="137" y="524" on="0"/>
        <pt x="90" y="502" on="0"/>
        <pt x="53" y="489" on="0"/>
        <pt x="31" y="485" on="0"/>
        <pt x="30" y="485" on="1"/>
        <pt x="19" y="485" on="0"/>
        <pt x="15" y="502" on="0"/>
        <pt x="15" y="507" on="1"/>
        <pt x="15" y="515" on="0"/>
        <pt x="19" y="528" on="0"/>
        <pt x="27" y="530" on="1"/>
        <pt x="123" y="555" on="0"/>
        <pt x="231" y="671" on="0"/>
        <pt x="251" y="758" on="1"/>
        <pt x="253" y="763" on="0"/>
        <pt x="259" y="771" on="0"/>
        <pt x="265" y="771" on="1"/>
        <pt x="271" y="771" on="0"/>
        <pt x="278" y="762" on="0"/>
        <pt x="278" y="760" on="1"/>
        <pt x="283" y="742" on="0"/>
        <pt x="304" y="679" on="0"/>
        <pt x="352" y="610" on="0"/>
        <pt x="435" y="547" on="0"/>
        <pt x="502" y="530" on="1"/>
        <pt x="510" y="528" on="0"/>
        <pt x="515" y="517" on="0"/>
        <pt x="515" y="507" on="1"/>
        <pt x="515" y="502" on="0"/>
        <pt x="511" y="485" on="0"/>
        <pt x="500" y="485" on="1"/>
        <pt x="499" y="485" on="0"/>
        <pt x="477" y="489" on="0"/>
        <pt x="442" y="501" on="0"/>
        <pt x="396" y="523" on="0"/>
        <pt x="372" y="540" on="1"/>
        <pt x="352" y="554" on="0"/>
        <pt x="308" y="597" on="0"/>
        <pt x="288" y="626" on="1"/>
      </contour>
    </TTGlyph>
    <TTGlyph name="arrowdblboth" xMin="38" yMin="-36" xMax="1024" yMax="536">
      <contour>
        <pt x="776" y="379" on="1"/>
        <pt x="757" y="402" on="0"/>
        <pt x="726" y="450" on="0"/>
        <pt x="704" y="490" on="0"/>
        <pt x="692" y="519" on="0"/>
        <pt x="692" y="522" on="1"/>
        <pt x="692" y="533" on="0"/>
        <pt x="709" y="536" on="0"/>
        <pt x="715" y="536" on="1"/>
        <pt x="728" y="536" on="0"/>
        <pt x="735" y="530" on="0"/>
        <pt x="742" y="515" on="1"/>
        <pt x="780" y="431" on="0"/>
        <pt x="911" y="303" on="0"/>
        <pt x="1009" y="265" on="1"/>
        <pt x="1014" y="263" on="0"/>
        <pt x="1024" y="257" on="0"/>
        <pt x="1024" y="250" on="1"/>
        <pt x="1024" y="242" on="0"/>
        <pt x="1015" y="237" on="0"/>
        <pt x="1013" y="236" on="1"/>
        <pt x="910" y="196" on="0"/>
        <pt x="780" y="69" on="0"/>
        <pt x="744" y="-11" on="1"/>
        <pt x="737" y="-25" on="0"/>
        <pt x="733" y="-31" on="0"/>
        <pt x="731" y="-33" on="1"/>
        <pt x="728" y="-36" on="0"/>
        <pt x="715" y="-36" on="1"/>
        <pt x="709" y="-36" on="0"/>
        <pt x="692" y="-33" on="0"/>
        <pt x="692" y="-22" on="1"/>
        <pt x="692" y="-18" on="0"/>
        <pt x="704" y="10" on="0"/>
        <pt x="726" y="51" on="0"/>
        <pt x="757" y="98" on="0"/>
        <pt x="776" y="121" on="1"/>
        <pt x="286" y="121" on="1"/>
        <pt x="305" y="98" on="0"/>
        <pt x="336" y="50" on="0"/>
        <pt x="358" y="10" on="0"/>
        <pt x="370" y="-19" on="0"/>
        <pt x="370" y="-22" on="1"/>
        <pt x="370" y="-33" on="0"/>
        <pt x="353" y="-36" on="0"/>
        <pt x="347" y="-36" on="1"/>
        <pt x="334" y="-36" on="0"/>
        <pt x="327" y="-30" on="0"/>
        <pt x="320" y="-15" on="1"/>
        <pt x="282" y="69" on="0"/>
        <pt x="151" y="197" on="0"/>
        <pt x="53" y="235" on="1"/>
        <pt x="48" y="237" on="0"/>
        <pt x="38" y="243" on="0"/>
        <pt x="38" y="250" on="1"/>
        <pt x="38" y="258" on="0"/>
        <pt x="47" y="263" on="0"/>
        <pt x="49" y="264" on="1"/>
        <pt x="152" y="304" on="0"/>
        <pt x="282" y="431" on="0"/>
        <pt x="318" y="511" on="1"/>
        <pt x="325" y="525" on="0"/>
        <pt x="329" y="531" on="0"/>
        <pt x="331" y="533" on="1"/>
        <pt x="334" y="536" on="0"/>
        <pt x="347" y="536" on="1"/>
        <pt x="353" y="536" on="0"/>
        <pt x="370" y="533" on="0"/>
        <pt x="370" y="522" on="1"/>
        <pt x="370" y="518" on="0"/>
        <pt x="358" y="490" on="0"/>
        <pt x="336" y="449" on="0"/>
        <pt x="305" y="402" on="0"/>
        <pt x="286" y="379" on="1"/>
      </contour>
      <contour>
        <pt x="821" y="167" on="1"/>
        <pt x="872" y="216" on="0"/>
        <pt x="936" y="250" on="1"/>
        <pt x="916" y="261" on="0"/>
        <pt x="855" y="301" on="0"/>
        <pt x="821" y="333" on="1"/>
        <pt x="241" y="333" on="1"/>
        <pt x="190" y="284" on="0"/>
        <pt x="126" y="250" on="1"/>
        <pt x="146" y="239" on="0"/>
        <pt x="207" y="199" on="0"/>
        <pt x="241" y="167" on="1"/>
      </contour>
    </TTGlyph>
    <TTGlyph name="arrowdblbothv" xMin="28" yMin="-271" xMax="620" yMax="771">
      <contour>
        <pt x="453" y="-41" on="1"/>
        <pt x="480" y="-20" on="0"/>
        <pt x="532" y="11" on="0"/>
        <pt x="575" y="32" on="0"/>
        <pt x="603" y="43" on="0"/>
        <pt x="606" y="43" on="1"/>
        <pt x="617" y="43" on="0"/>
        <pt x="620" y="28" on="0"/>
        <pt x="620" y="21" on="1"/>
        <pt x="620" y="8" on="0"/>
        <pt x="614" y="1" on="0"/>
        <pt x="600" y="-6" on="1"/>
        <pt x="546" y="-29" on="0"/>
        <pt x="463" y="-87" on="0"/>
        <pt x="401" y="-151" on="0"/>
        <pt x="358" y="-217" on="0"/>
        <pt x="344" y="-246" on="1"/>
        <pt x="337" y="-262" on="0"/>
        <pt x="331" y="-271" on="0"/>
        <pt x="324" y="-271" on="1"/>
        <pt x="317" y="-271" on="0"/>
        <pt x="311" y="-262" on="0"/>
        <pt x="306" y="-252" on="1"/>
        <pt x="270" y="-174" on="0"/>
        <pt x="144" y="-46" on="0"/>
        <pt x="44" y="-4" on="1"/>
        <pt x="33" y="1" on="0"/>
        <pt x="28" y="7" on="0"/>
        <pt x="28" y="21" on="1"/>
        <pt x="28" y="28" on="0"/>
        <pt x="31" y="43" on="0"/>
        <pt x="42" y="43" on="1"/>
        <pt x="45" y="43" on="0"/>
        <pt x="73" y="32" on="0"/>
        <pt x="116" y="11" on="0"/>
        <pt x="169" y="-20" on="0"/>
        <pt x="195" y="-41" on="1"/>
        <pt x="195" y="541" on="1"/>
        <pt x="185" y="533" on="0"/>
        <pt x="153" y="511" on="0"/>
        <pt x="113" y="487" on="0"/>
        <pt x="66" y="464" on="0"/>
        <pt x="41" y="456" on="1"/>
        <pt x="31" y="458" on="0"/>
        <pt x="28" y="472" on="0"/>
        <pt x="28" y="479" on="1"/>
        <pt x="28" y="492" on="0"/>
        <pt x="34" y="499" on="0"/>
        <pt x="48" y="506" on="1"/>
        <pt x="102" y="529" on="0"/>
        <pt x="185" y="587" on="0"/>
        <pt x="247" y="651" on="0"/>
        <pt x="290" y="717" on="0"/>
        <pt x="304" y="746" on="1"/>
        <pt x="311" y="762" on="0"/>
        <pt x="317" y="771" on="0"/>
        <pt x="324" y="771" on="1"/>
        <pt x="331" y="771" on="0"/>
        <pt x="337" y="762" on="0"/>
        <pt x="342" y="752" on="1"/>
        <pt x="378" y="674" on="0"/>
        <pt x="504" y="546" on="0"/>
        <pt x="604" y="504" on="1"/>
        <pt x="615" y="499" on="0"/>
        <pt x="620" y="493" on="0"/>
        <pt x="620" y="479" on="1"/>
        <pt x="620" y="472" on="0"/>
        <pt x="617" y="457" on="0"/>
        <pt x="606" y="457" on="1"/>
        <pt x="603" y="457" on="0"/>
        <pt x="575" y="468" on="0"/>
        <pt x="532" y="489" on="0"/>
        <pt x="479" y="520" on="0"/>
        <pt x="453" y="541" on="1"/>
      </contour>
      <contour>
        <pt x="241" y="-84" on="1"/>
        <pt x="257" y="-98" on="0"/>
        <pt x="301" y="-153" on="0"/>
        <pt x="324" y="-189" on="1"/>
        <pt x="340" y="-163" on="0"/>
        <pt x="386" y="-103" on="0"/>
        <pt x="407" y="-84" on="1"/>
        <pt x="407" y="584" on="1"/>
        <pt x="391" y="598" on="0"/>
        <pt x="347" y="653" on="0"/>
        <pt x="324" y="689" on="1"/>
        <pt x="308" y="663" on="0"/>
        <pt x="262" y="603" on="0"/>
        <pt x="241" y="584" on="1"/>
      </contour>
    </TTGlyph>
    <TTGlyph name="arrowdbldown" xMin="28" yMin="-194" xMax="620" yMax="694">
      <contour>
        <pt x="453" y="78" on="1"/>
        <pt x="482" y="104" on="0"/>
        <pt x="536" y="141" on="0"/>
        <pt x="577" y="165" on="0"/>
        <pt x="604" y="176" on="0"/>
        <pt x="606" y="176" on="1"/>
        <pt x="617" y="176" on="0"/>
        <pt x="620" y="160" on="0"/>
        <pt x="620" y="153" on="1"/>
        <pt x="620" y="139" on="0"/>
        <pt x="615" y="133" on="0"/>
        <pt x="604" y="128" on="1"/>
        <pt x="546" y="100" on="0"/>
        <pt x="458" y="27" on="0"/>
        <pt x="395" y="-52" on="0"/>
        <pt x="354" y="-133" on="0"/>
        <pt x="342" y="-169" on="1"/>
        <pt x="337" y="-183" on="0"/>
        <pt x="332" y="-194" on="0"/>
        <pt x="324" y="-194" on="1"/>
        <pt x="316" y="-194" on="0"/>
        <pt x="311" y="-183" on="0"/>
        <pt x="306" y="-171" on="1"/>
        <pt x="273" y="-68" on="0"/>
        <pt x="135" y="85" on="0"/>
        <pt x="43" y="128" on="1"/>
        <pt x="32" y="133" on="0"/>
        <pt x="28" y="142" on="0"/>
        <pt x="28" y="153" on="1"/>
        <pt x="28" y="160" on="0"/>
        <pt x="31" y="176" on="0"/>
        <pt x="42" y="176" on="1"/>
        <pt x="44" y="176" on="0"/>
        <pt x="71" y="165" on="0"/>
        <pt x="112" y="141" on="0"/>
        <pt x="166" y="104" on="0"/>
        <pt x="195" y="78" on="1"/>
        <pt x="195" y="653" on="1"/>
        <pt x="195" y="665" on="0"/>
        <pt x="201" y="694" on="0"/>
        <pt x="218" y="694" on="1"/>
        <pt x="235" y="694" on="0"/>
        <pt x="241" y="670" on="0"/>
        <pt x="241" y="657" on="1"/>
        <pt x="241" y="50" on="1"/>
        <pt x="241" y="36" on="0"/>
        <pt x="243" y="26" on="0"/>
        <pt x="251" y="18" on="1"/>
        <pt x="266" y="0" on="0"/>
        <pt x="290" y="-36" on="0"/>
        <pt x="309" y="-67" on="0"/>
        <pt x="321" y="-92" on="0"/>
        <pt x="324" y="-98" on="1"/>
        <pt x="335" y="-74" on="0"/>
        <pt x="375" y="-8" on="0"/>
        <pt x="396" y="18" on="1"/>
        <pt x="404" y="26" on="0"/>
        <pt x="407" y="36" on="0"/>
        <pt x="407" y="50" on="1"/>
        <pt x="407" y="657" on="1"/>
        <pt x="407" y="669" on="0"/>
        <pt x="413" y="694" on="0"/>
        <pt x="430" y="694" on="1"/>
        <pt x="447" y="694" on="0"/>
        <pt x="453" y="665" on="0"/>
        <pt x="453" y="653" on="1"/>
      </contour>
    </TTGlyph>
    <TTGlyph name="arrowdblleft" xMin="59" yMin="-36" xMax="1003" yMax="536">
      <contour>
        <pt x="353" y="121" on="1"/>
        <pt x="409" y="59" on="0"/>
        <pt x="450" y="-18" on="0"/>
        <pt x="450" y="-22" on="1"/>
        <pt x="450" y="-33" on="0"/>
        <pt x="433" y="-36" on="0"/>
        <pt x="427" y="-36" on="1"/>
        <pt x="415" y="-36" on="0"/>
        <pt x="407" y="-30" on="0"/>
        <pt x="399" y="-16" on="1"/>
        <pt x="346" y="83" on="0"/>
        <pt x="183" y="207" on="0"/>
        <pt x="71" y="236" on="1"/>
        <pt x="66" y="238" on="0"/>
        <pt x="59" y="245" on="0"/>
        <pt x="59" y="250" on="1"/>
        <pt x="59" y="255" on="0"/>
        <pt x="66" y="262" on="0"/>
        <pt x="71" y="264" on="1"/>
        <pt x="112" y="275" on="0"/>
        <pt x="200" y="310" on="0"/>
        <pt x="286" y="369" on="0"/>
        <pt x="366" y="455" on="0"/>
        <pt x="399" y="516" on="1"/>
        <pt x="407" y="530" on="0"/>
        <pt x="415" y="536" on="0"/>
        <pt x="427" y="536" on="1"/>
        <pt x="433" y="536" on="0"/>
        <pt x="450" y="533" on="0"/>
        <pt x="450" y="522" on="1"/>
        <pt x="450" y="518" on="0"/>
        <pt x="408" y="440" on="0"/>
        <pt x="353" y="379" on="1"/>
        <pt x="962" y="379" on="1"/>
        <pt x="975" y="379" on="0"/>
        <pt x="1003" y="373" on="0"/>
        <pt x="1003" y="356" on="1"/>
        <pt x="1003" y="339" on="0"/>
        <pt x="979" y="333" on="0"/>
        <pt x="966" y="333" on="1"/>
        <pt x="302" y="333" on="1"/>
        <pt x="269" y="305" on="0"/>
        <pt x="201" y="267" on="0"/>
        <pt x="165" y="250" on="1"/>
        <pt x="207" y="231" on="0"/>
        <pt x="272" y="192" on="0"/>
        <pt x="302" y="167" on="1"/>
        <pt x="966" y="167" on="1"/>
        <pt x="979" y="167" on="0"/>
        <pt x="1003" y="161" on="0"/>
        <pt x="1003" y="144" on="1"/>
        <pt x="1003" y="127" on="0"/>
        <pt x="975" y="121" on="0"/>
        <pt x="962" y="121" on="1"/>
      </contour>
    </TTGlyph>
    <TTGlyph name="arrowdblright" xMin="59" yMin="-36" xMax="1003" yMax="536">
      <contour>
        <pt x="96" y="333" on="1"/>
        <pt x="83" y="333" on="0"/>
        <pt x="59" y="339" on="0"/>
        <pt x="59" y="356" on="1"/>
        <pt x="59" y="373" on="0"/>
        <pt x="87" y="379" on="0"/>
        <pt x="100" y="379" on="1"/>
        <pt x="709" y="379" on="1"/>
        <pt x="653" y="441" on="0"/>
        <pt x="612" y="518" on="0"/>
        <pt x="612" y="522" on="1"/>
        <pt x="612" y="533" on="0"/>
        <pt x="629" y="536" on="0"/>
        <pt x="635" y="536" on="1"/>
        <pt x="647" y="536" on="0"/>
        <pt x="655" y="530" on="0"/>
        <pt x="663" y="516" on="1"/>
        <pt x="716" y="417" on="0"/>
        <pt x="879" y="293" on="0"/>
        <pt x="991" y="264" on="1"/>
        <pt x="996" y="262" on="0"/>
        <pt x="1003" y="255" on="0"/>
        <pt x="1003" y="250" on="1"/>
        <pt x="1003" y="245" on="0"/>
        <pt x="996" y="238" on="0"/>
        <pt x="991" y="236" on="1"/>
        <pt x="951" y="226" on="0"/>
        <pt x="862" y="190" on="0"/>
        <pt x="776" y="131" on="0"/>
        <pt x="696" y="45" on="0"/>
        <pt x="663" y="-16" on="1"/>
        <pt x="655" y="-30" on="0"/>
        <pt x="647" y="-36" on="0"/>
        <pt x="635" y="-36" on="1"/>
        <pt x="629" y="-36" on="0"/>
        <pt x="612" y="-33" on="0"/>
        <pt x="612" y="-22" on="1"/>
        <pt x="612" y="-18" on="0"/>
        <pt x="654" y="60" on="0"/>
        <pt x="709" y="121" on="1"/>
        <pt x="100" y="121" on="1"/>
        <pt x="87" y="121" on="0"/>
        <pt x="59" y="127" on="0"/>
        <pt x="59" y="144" on="1"/>
        <pt x="59" y="161" on="0"/>
        <pt x="83" y="167" on="0"/>
        <pt x="96" y="167" on="1"/>
        <pt x="760" y="167" on="1"/>
        <pt x="793" y="195" on="0"/>
        <pt x="861" y="233" on="0"/>
        <pt x="897" y="250" on="1"/>
        <pt x="855" y="269" on="0"/>
        <pt x="790" y="308" on="0"/>
        <pt x="760" y="333" on="1"/>
      </contour>
    </TTGlyph>
    <TTGlyph name="arrowdblup" xMin="28" yMin="-194" xMax="620" yMax="694">
      <contour>
        <pt x="453" y="-153" on="1"/>
        <pt x="453" y="-165" on="0"/>
        <pt x="447" y="-194" on="0"/>
        <pt x="430" y="-194" on="1"/>
        <pt x="413" y="-194" on="0"/>
        <pt x="407" y="-170" on="0"/>
        <pt x="407" y="-157" on="1"/>
        <pt x="407" y="450" on="1"/>
        <pt x="407" y="464" on="0"/>
        <pt x="405" y="474" on="0"/>
        <pt x="397" y="482" on="1"/>
        <pt x="382" y="500" on="0"/>
        <pt x="358" y="536" on="0"/>
        <pt x="339" y="567" on="0"/>
        <pt x="327" y="592" on="0"/>
        <pt x="324" y="598" on="1"/>
        <pt x="313" y="574" on="0"/>
        <pt x="273" y="508" on="0"/>
        <pt x="252" y="482" on="1"/>
        <pt x="244" y="474" on="0"/>
        <pt x="241" y="464" on="0"/>
        <pt x="241" y="450" on="1"/>
        <pt x="241" y="-157" on="1"/>
        <pt x="241" y="-169" on="0"/>
        <pt x="235" y="-194" on="0"/>
        <pt x="218" y="-194" on="1"/>
        <pt x="201" y="-194" on="0"/>
        <pt x="195" y="-165" on="0"/>
        <pt x="195" y="-153" on="1"/>
        <pt x="195" y="422" on="1"/>
        <pt x="166" y="396" on="0"/>
        <pt x="112" y="359" on="0"/>
        <pt x="71" y="335" on="0"/>
        <pt x="44" y="324" on="0"/>
        <pt x="42" y="324" on="1"/>
        <pt x="31" y="324" on="0"/>
        <pt x="28" y="340" on="0"/>
        <pt x="28" y="347" on="1"/>
        <pt x="28" y="361" on="0"/>
        <pt x="33" y="367" on="0"/>
        <pt x="44" y="372" on="1"/>
        <pt x="102" y="400" on="0"/>
        <pt x="189" y="472" on="0"/>
        <pt x="252" y="551" on="0"/>
        <pt x="294" y="632" on="0"/>
        <pt x="306" y="669" on="1"/>
        <pt x="311" y="683" on="0"/>
        <pt x="316" y="694" on="0"/>
        <pt x="324" y="694" on="1"/>
        <pt x="332" y="694" on="0"/>
        <pt x="337" y="683" on="0"/>
        <pt x="342" y="671" on="1"/>
        <pt x="375" y="567" on="0"/>
        <pt x="513" y="415" on="0"/>
        <pt x="605" y="372" on="1"/>
        <pt x="616" y="367" on="0"/>
        <pt x="620" y="358" on="0"/>
        <pt x="620" y="347" on="1"/>
        <pt x="620" y="340" on="0"/>
        <pt x="617" y="324" on="0"/>
        <pt x="606" y="324" on="1"/>
        <pt x="604" y="324" on="0"/>
        <pt x="577" y="335" on="0"/>
        <pt x="536" y="359" on="0"/>
        <pt x="482" y="396" on="0"/>
        <pt x="453" y="422" on="1"/>
      </contour>
    </TTGlyph>
    <TTGlyph name="arrowdown" xMin="15" yMin="-194" xMax="515" yMax="694">
      <contour>
        <pt x="288" y="-49" on="1"/>
        <pt x="305" y="-24" on="0"/>
        <pt x="346" y="18" on="0"/>
        <pt x="368" y="35" on="1"/>
        <pt x="393" y="53" on="0"/>
        <pt x="440" y="75" on="0"/>
        <pt x="477" y="88" on="0"/>
        <pt x="499" y="92" on="0"/>
        <pt x="500" y="92" on="1"/>
        <pt x="511" y="92" on="0"/>
        <pt x="515" y="75" on="0"/>
        <pt x="515" y="70" on="1"/>
        <pt x="515" y="62" on="0"/>
        <pt x="511" y="49" on="0"/>
        <pt x="503" y="47" on="1"/>
        <pt x="410" y="24" on="0"/>
        <pt x="299" y="-91" on="0"/>
        <pt x="279" y="-182" on="1"/>
        <pt x="277" y="-187" on="0"/>
        <pt x="271" y="-194" on="0"/>
        <pt x="265" y="-194" on="1"/>
        <pt x="264" y="-194" on="0"/>
        <pt x="254" y="-191" on="0"/>
        <pt x="252" y="-182" on="1"/>
        <pt x="248" y="-164" on="0"/>
        <pt x="226" y="-101" on="0"/>
        <pt x="178" y="-33" on="0"/>
        <pt x="95" y="30" on="0"/>
        <pt x="28" y="47" on="1"/>
        <pt x="20" y="49" on="0"/>
        <pt x="15" y="60" on="0"/>
        <pt x="15" y="70" on="1"/>
        <pt x="15" y="75" on="0"/>
        <pt x="19" y="92" on="0"/>
        <pt x="30" y="92" on="1"/>
        <pt x="31" y="92" on="0"/>
        <pt x="53" y="88" on="0"/>
        <pt x="88" y="76" on="0"/>
        <pt x="134" y="54" on="0"/>
        <pt x="158" y="37" on="1"/>
        <pt x="178" y="23" on="0"/>
        <pt x="222" y="-20" on="0"/>
        <pt x="242" y="-49" on="1"/>
        <pt x="242" y="656" on="1"/>
        <pt x="242" y="668" on="0"/>
        <pt x="248" y="694" on="0"/>
        <pt x="265" y="694" on="1"/>
        <pt x="282" y="694" on="0"/>
        <pt x="288" y="668" on="0"/>
        <pt x="288" y="656" on="1"/>
      </contour>
    </TTGlyph>
    <TTGlyph name="arrowleft" xMin="60" yMin="-14" xMax="1003" yMax="514">
      <contour>
        <pt x="189" y="227" on="1"/>
        <pt x="208" y="213" on="0"/>
        <pt x="256" y="167" on="0"/>
        <pt x="278" y="135" on="1"/>
        <pt x="295" y="110" on="0"/>
        <pt x="316" y="63" on="0"/>
        <pt x="328" y="25" on="0"/>
        <pt x="332" y="2" on="0"/>
        <pt x="332" y="1" on="1"/>
        <pt x="332" y="-10" on="0"/>
        <pt x="316" y="-14" on="0"/>
        <pt x="309" y="-14" on="1"/>
        <pt x="294" y="-14" on="0"/>
        <pt x="288" y="-6" on="0"/>
        <pt x="284" y="9" on="1"/>
        <pt x="277" y="36" on="0"/>
        <pt x="244" y="116" on="0"/>
        <pt x="202" y="158" on="1"/>
        <pt x="164" y="196" on="0"/>
        <pt x="98" y="227" on="0"/>
        <pt x="71" y="236" on="1"/>
        <pt x="69" y="237" on="0"/>
        <pt x="60" y="242" on="0"/>
        <pt x="60" y="250" on="1"/>
        <pt x="60" y="258" on="0"/>
        <pt x="69" y="263" on="0"/>
        <pt x="75" y="265" on="1"/>
        <pt x="123" y="282" on="0"/>
        <pt x="193" y="330" on="0"/>
        <pt x="244" y="390" on="0"/>
        <pt x="277" y="462" on="0"/>
        <pt x="286" y="501" on="1"/>
        <pt x="288" y="511" on="0"/>
        <pt x="301" y="514" on="0"/>
        <pt x="309" y="514" on="1"/>
        <pt x="316" y="514" on="0"/>
        <pt x="332" y="510" on="0"/>
        <pt x="332" y="499" on="1"/>
        <pt x="332" y="498" on="0"/>
        <pt x="327" y="474" on="0"/>
        <pt x="315" y="437" on="0"/>
        <pt x="294" y="390" on="0"/>
        <pt x="278" y="366" on="1"/>
        <pt x="242" y="312" on="0"/>
        <pt x="189" y="273" on="1"/>
        <pt x="965" y="273" on="1"/>
        <pt x="977" y="273" on="0"/>
        <pt x="1003" y="267" on="0"/>
        <pt x="1003" y="250" on="1"/>
        <pt x="1003" y="233" on="0"/>
        <pt x="977" y="227" on="0"/>
        <pt x="965" y="227" on="1"/>
      </contour>
    </TTGlyph>
    <TTGlyph name="arrowright" xMin="59" yMin="-14" xMax="1003" yMax="514">
      <contour>
        <pt x="97" y="227" on="1"/>
        <pt x="85" y="227" on="0"/>
        <pt x="59" y="233" on="0"/>
        <pt x="59" y="250" on="1"/>
        <pt x="59" y="267" on="0"/>
        <pt x="85" y="273" on="0"/>
        <pt x="97" y="273" on="1"/>
        <pt x="873" y="273" on="1"/>
        <pt x="854" y="287" on="0"/>
        <pt x="806" y="333" on="0"/>
        <pt x="784" y="365" on="1"/>
        <pt x="768" y="390" on="0"/>
        <pt x="747" y="437" on="0"/>
        <pt x="735" y="475" on="0"/>
        <pt x="730" y="498" on="0"/>
        <pt x="730" y="499" on="1"/>
        <pt x="730" y="510" on="0"/>
        <pt x="746" y="514" on="0"/>
        <pt x="753" y="514" on="1"/>
        <pt x="768" y="514" on="0"/>
        <pt x="774" y="506" on="0"/>
        <pt x="778" y="491" on="1"/>
        <pt x="786" y="458" on="0"/>
        <pt x="817" y="391" on="0"/>
        <pt x="867" y="331" on="0"/>
        <pt x="940" y="281" on="0"/>
        <pt x="990" y="264" on="1"/>
        <pt x="993" y="263" on="0"/>
        <pt x="1003" y="258" on="0"/>
        <pt x="1003" y="250" on="1"/>
        <pt x="1003" y="242" on="0"/>
        <pt x="993" y="237" on="0"/>
        <pt x="987" y="235" on="1"/>
        <pt x="896" y="204" on="0"/>
        <pt x="796" y="83" on="0"/>
        <pt x="776" y="-1" on="1"/>
        <pt x="774" y="-11" on="0"/>
        <pt x="761" y="-14" on="0"/>
        <pt x="753" y="-14" on="1"/>
        <pt x="746" y="-14" on="0"/>
        <pt x="730" y="-10" on="0"/>
        <pt x="730" y="1" on="1"/>
        <pt x="730" y="3" on="0"/>
        <pt x="735" y="26" on="0"/>
        <pt x="747" y="63" on="0"/>
        <pt x="768" y="110" on="0"/>
        <pt x="784" y="134" on="1"/>
        <pt x="820" y="188" on="0"/>
        <pt x="873" y="227" on="1"/>
      </contour>
    </TTGlyph>
    <TTGlyph name="arrowup" xMin="15" yMin="-194" xMax="515" yMax="694">
      <contour>
        <pt x="288" y="-156" on="1"/>
        <pt x="288" y="-168" on="0"/>
        <pt x="282" y="-194" on="0"/>
        <pt x="265" y="-194" on="1"/>
        <pt x="248" y="-194" on="0"/>
        <pt x="242" y="-168" on="0"/>
        <pt x="242" y="-156" on="1"/>
        <pt x="242" y="549" on="1"/>
        <pt x="225" y="524" on="0"/>
        <pt x="184" y="482" on="0"/>
        <pt x="162" y="465" on="1"/>
        <pt x="137" y="447" on="0"/>
        <pt x="90" y="425" on="0"/>
        <pt x="53" y="412" on="0"/>
        <pt x="31" y="408" on="0"/>
        <pt x="30" y="408" on="1"/>
        <pt x="19" y="408" on="0"/>
        <pt x="15" y="425" on="0"/>
        <pt x="15" y="430" on="1"/>
        <pt x="15" y="438" on="0"/>
        <pt x="19" y="451" on="0"/>
        <pt x="27" y="453" on="1"/>
        <pt x="75" y="466" on="0"/>
        <pt x="148" y="505" on="0"/>
        <pt x="202" y="561" on="0"/>
        <pt x="239" y="635" on="0"/>
        <pt x="252" y="682" on="1"/>
        <pt x="254" y="690" on="0"/>
        <pt x="263" y="694" on="0"/>
        <pt x="265" y="694" on="1"/>
        <pt x="272" y="694" on="0"/>
        <pt x="278" y="685" on="0"/>
        <pt x="278" y="683" on="1"/>
        <pt x="283" y="665" on="0"/>
        <pt x="304" y="602" on="0"/>
        <pt x="352" y="533" on="0"/>
        <pt x="435" y="470" on="0"/>
        <pt x="502" y="453" on="1"/>
        <pt x="510" y="451" on="0"/>
        <pt x="515" y="440" on="0"/>
        <pt x="515" y="430" on="1"/>
        <pt x="515" y="425" on="0"/>
        <pt x="511" y="408" on="0"/>
        <pt x="500" y="408" on="1"/>
        <pt x="499" y="408" on="0"/>
        <pt x="477" y="412" on="0"/>
        <pt x="442" y="424" on="0"/>
        <pt x="396" y="446" on="0"/>
        <pt x="372" y="463" on="1"/>
        <pt x="352" y="477" on="0"/>
        <pt x="308" y="520" on="0"/>
        <pt x="288" y="549" on="1"/>
      </contour>
    </TTGlyph>
    <TTGlyph name="asteriskmath" xMin="70" yMin="34" xMax="460" yMax="465">
      <contour>
        <pt x="280" y="224" on="1"/>
        <pt x="282" y="198" on="0"/>
        <pt x="287" y="143" on="0"/>
        <pt x="290" y="117" on="1"/>
        <pt x="290" y="113" on="0"/>
        <pt x="292" y="97" on="0"/>
        <pt x="294" y="81" on="0"/>
        <pt x="295" y="67" on="0"/>
        <pt x="295" y="63" on="1"/>
        <pt x="295" y="48" on="0"/>
        <pt x="275" y="34" on="0"/>
        <pt x="265" y="34" on="1"/>
        <pt x="255" y="34" on="0"/>
        <pt x="235" y="48" on="0"/>
        <pt x="235" y="63" on="1"/>
        <pt x="250" y="224" on="1"/>
        <pt x="135" y="144" on="1"/>
        <pt x="116" y="131" on="0"/>
        <pt x="106" y="126" on="0"/>
        <pt x="100" y="126" on="1"/>
        <pt x="88" y="126" on="0"/>
        <pt x="70" y="143" on="0"/>
        <pt x="70" y="157" on="1"/>
        <pt x="70" y="164" on="0"/>
        <pt x="75" y="177" on="0"/>
        <pt x="83" y="182" on="1"/>
        <pt x="89" y="184" on="0"/>
        <pt x="112" y="195" on="0"/>
        <pt x="118" y="197" on="1"/>
        <pt x="235" y="250" on="1"/>
        <pt x="217" y="258" on="0"/>
        <pt x="187" y="270" on="0"/>
        <pt x="156" y="284" on="0"/>
        <pt x="120" y="300" on="0"/>
        <pt x="95" y="312" on="1"/>
        <pt x="84" y="317" on="0"/>
        <pt x="70" y="328" on="0"/>
        <pt x="70" y="342" on="1"/>
        <pt x="70" y="356" on="0"/>
        <pt x="88" y="373" on="0"/>
        <pt x="100" y="373" on="1"/>
        <pt x="104" y="373" on="0"/>
        <pt x="110" y="372" on="0"/>
        <pt x="117" y="367" on="1"/>
        <pt x="250" y="275" on="1"/>
        <pt x="236" y="424" on="1"/>
        <pt x="236" y="436" on="1"/>
        <pt x="234" y="447" on="0"/>
        <pt x="251" y="465" on="0"/>
        <pt x="265" y="465" on="1"/>
        <pt x="276" y="465" on="0"/>
        <pt x="288" y="457" on="0"/>
        <pt x="294" y="444" on="0"/>
        <pt x="295" y="429" on="0"/>
        <pt x="294" y="423" on="1"/>
        <pt x="280" y="275" on="1"/>
        <pt x="424" y="373" on="1"/>
        <pt x="447" y="373" on="0"/>
        <pt x="460" y="351" on="0"/>
        <pt x="460" y="342" on="1"/>
        <pt x="460" y="335" on="0"/>
        <pt x="455" y="322" on="0"/>
        <pt x="447" y="317" on="1"/>
        <pt x="441" y="315" on="0"/>
        <pt x="418" y="304" on="0"/>
        <pt x="412" y="302" on="1"/>
        <pt x="295" y="249" on="1"/>
        <pt x="313" y="242" on="0"/>
        <pt x="343" y="229" on="0"/>
        <pt x="374" y="215" on="0"/>
        <pt x="410" y="199" on="0"/>
        <pt x="435" y="187" on="1"/>
        <pt x="446" y="182" on="0"/>
        <pt x="460" y="171" on="0"/>
        <pt x="460" y="157" on="1"/>
        <pt x="460" y="143" on="0"/>
        <pt x="442" y="126" on="0"/>
        <pt x="430" y="126" on="1"/>
        <pt x="426" y="126" on="0"/>
        <pt x="420" y="127" on="0"/>
        <pt x="413" y="132" on="1"/>
      </contour>
    </TTGlyph>
    <TTGlyph name="backslash" xMin="59" yMin="-250" xMax="471" yMax="750">
      <contour>
        <pt x="65" y="708" on="1"/>
        <pt x="60" y="719" on="0"/>
        <pt x="59" y="725" on="0"/>
        <pt x="59" y="727" on="1"/>
        <pt x="59" y="737" on="0"/>
        <pt x="72" y="750" on="0"/>
        <pt x="82" y="750" on="1"/>
        <pt x="98" y="750" on="0"/>
        <pt x="108" y="725" on="1"/>
        <pt x="465" y="-208" on="1"/>
        <pt x="470" y="-219" on="0"/>
        <pt x="471" y="-225" on="0"/>
        <pt x="471" y="-227" on="1"/>
        <pt x="471" y="-237" on="0"/>
        <pt x="458" y="-250" on="0"/>
        <pt x="448" y="-250" on="1"/>
        <pt x="432" y="-250" on="0"/>
        <pt x="422" y="-225" on="1"/>
      </contour>
    </TTGlyph>
    <TTGlyph name="bar" xMin="124" yMin="-250" xMax="170" yMax="750">
      <contour>
        <pt x="170" y="-212" on="1"/>
        <pt x="170" y="-224" on="0"/>
        <pt x="164" y="-250" on="0"/>
        <pt x="147" y="-250" on="1"/>
        <pt x="130" y="-250" on="0"/>
        <pt x="124" y="-224" on="0"/>
        <pt x="124" y="-212" on="1"/>
        <pt x="124" y="712" on="1"/>
        <pt x="124" y="724" on="0"/>
        <pt x="130" y="750" on="0"/>
        <pt x="147" y="750" on="1"/>
        <pt x="164" y="750" on="0"/>
        <pt x="170" y="724" on="0"/>
        <pt x="170" y="712" on="1"/>
      </contour>
    </TTGlyph>
    <TTGlyph name="bardbl" xMin="136" yMin="-250" xMax="394" yMax="750">
      <contour>
        <pt x="182" y="-213" on="1"/>
        <pt x="182" y="-225" on="0"/>
        <pt x="176" y="-250" on="0"/>
        <pt x="159" y="-250" on="1"/>
        <pt x="142" y="-250" on="0"/>
        <pt x="136" y="-221" on="0"/>
        <pt x="136" y="-209" on="1"/>
        <pt x="136" y="709" on="1"/>
        <pt x="136" y="721" on="0"/>
        <pt x="142" y="750" on="0"/>
        <pt x="159" y="750" on="1"/>
        <pt x="176" y="750" on="0"/>
        <pt x="182" y="725" on="0"/>
        <pt x="182" y="713" on="1"/>
      </contour>
      <contour>
        <pt x="394" y="-209" on="1"/>
        <pt x="394" y="-221" on="0"/>
        <pt x="388" y="-250" on="0"/>
        <pt x="371" y="-250" on="1"/>
        <pt x="354" y="-250" on="0"/>
        <pt x="348" y="-225" on="0"/>
        <pt x="348" y="-213" on="1"/>
        <pt x="348" y="713" on="1"/>
        <pt x="348" y="725" on="0"/>
        <pt x="354" y="750" on="0"/>
        <pt x="371" y="750" on="1"/>
        <pt x="388" y="750" on="0"/>
        <pt x="394" y="721" on="0"/>
        <pt x="394" y="709" on="1"/>
      </contour>
    </TTGlyph>
    <TTGlyph name="braceleft" xMin="74" yMin="-250" xMax="456" yMax="750">
      <contour>
        <pt x="303" y="396" on="1"/>
        <pt x="303" y="373" on="0"/>
        <pt x="302" y="355" on="0"/>
        <pt x="300" y="346" on="1"/>
        <pt x="293" y="318" on="0"/>
        <pt x="243" y="267" on="0"/>
        <pt x="187" y="250" on="1"/>
        <pt x="231" y="237" on="0"/>
        <pt x="278" y="200" on="0"/>
        <pt x="299" y="163" on="0"/>
        <pt x="303" y="129" on="0"/>
        <pt x="303" y="119" on="1"/>
        <pt x="303" y="-91" on="1"/>
        <pt x="303" y="-117" on="0"/>
        <pt x="304" y="-131" on="0"/>
        <pt x="306" y="-138" on="1"/>
        <pt x="309" y="-150" on="0"/>
        <pt x="325" y="-177" on="0"/>
        <pt x="356" y="-202" on="0"/>
        <pt x="404" y="-220" on="0"/>
        <pt x="439" y="-222" on="1"/>
        <pt x="445" y="-223" on="0"/>
        <pt x="456" y="-226" on="0"/>
        <pt x="456" y="-236" on="1"/>
        <pt x="456" y="-247" on="0"/>
        <pt x="443" y="-250" on="0"/>
        <pt x="432" y="-250" on="1"/>
        <pt x="419" y="-250" on="0"/>
        <pt x="384" y="-247" on="0"/>
        <pt x="346" y="-239" on="0"/>
        <pt x="308" y="-226" on="0"/>
        <pt x="292" y="-217" on="1"/>
        <pt x="268" y="-203" on="0"/>
        <pt x="242" y="-173" on="0"/>
        <pt x="230" y="-144" on="0"/>
        <pt x="228" y="-116" on="0"/>
        <pt x="228" y="-104" on="1"/>
        <pt x="228" y="100" on="1"/>
        <pt x="228" y="114" on="0"/>
        <pt x="228" y="130" on="0"/>
        <pt x="227" y="140" on="0"/>
        <pt x="226" y="147" on="0"/>
        <pt x="225" y="151" on="1"/>
        <pt x="222" y="162" on="0"/>
        <pt x="207" y="189" on="0"/>
        <pt x="175" y="215" on="0"/>
        <pt x="127" y="234" on="0"/>
        <pt x="91" y="236" on="1"/>
        <pt x="85" y="237" on="0"/>
        <pt x="74" y="240" on="0"/>
        <pt x="74" y="250" on="1"/>
        <pt x="74" y="260" on="0"/>
        <pt x="85" y="263" on="0"/>
        <pt x="94" y="264" on="1"/>
        <pt x="156" y="268" on="0"/>
        <pt x="226" y="330" on="0"/>
        <pt x="228" y="369" on="1"/>
        <pt x="228" y="624" on="1"/>
        <pt x="228" y="653" on="0"/>
        <pt x="262" y="699" on="0"/>
        <pt x="318" y="732" on="0"/>
        <pt x="392" y="750" on="0"/>
        <pt x="432" y="750" on="1"/>
        <pt x="443" y="750" on="0"/>
        <pt x="456" y="747" on="0"/>
        <pt x="456" y="736" on="1"/>
        <pt x="456" y="726" on="0"/>
        <pt x="445" y="723" on="0"/>
        <pt x="436" y="722" on="1"/>
        <pt x="390" y="719" on="0"/>
        <pt x="343" y="692" on="0"/>
        <pt x="338" y="688" on="1"/>
        <pt x="312" y="665" on="0"/>
        <pt x="303" y="625" on="0"/>
        <pt x="303" y="606" on="1"/>
      </contour>
    </TTGlyph>
    <TTGlyph name="braceright" xMin="74" yMin="-250" xMax="456" yMax="750">
      <contour>
        <pt x="303" y="369" on="1"/>
        <pt x="303" y="358" on="0"/>
        <pt x="314" y="324" on="0"/>
        <pt x="344" y="292" on="0"/>
        <pt x="397" y="267" on="0"/>
        <pt x="439" y="264" on="1"/>
        <pt x="445" y="263" on="0"/>
        <pt x="456" y="260" on="0"/>
        <pt x="456" y="250" on="1"/>
        <pt x="456" y="240" on="0"/>
        <pt x="446" y="237" on="0"/>
        <pt x="436" y="236" on="1"/>
        <pt x="410" y="234" on="0"/>
        <pt x="358" y="218" on="0"/>
        <pt x="333" y="196" on="1"/>
        <pt x="322" y="186" on="0"/>
        <pt x="310" y="165" on="0"/>
        <pt x="304" y="138" on="0"/>
        <pt x="303" y="103" on="0"/>
        <pt x="303" y="77" on="1"/>
        <pt x="303" y="-124" on="1"/>
        <pt x="303" y="-153" on="0"/>
        <pt x="269" y="-199" on="0"/>
        <pt x="212" y="-232" on="0"/>
        <pt x="139" y="-250" on="0"/>
        <pt x="98" y="-250" on="1"/>
        <pt x="88" y="-250" on="0"/>
        <pt x="74" y="-247" on="0"/>
        <pt x="74" y="-236" on="1"/>
        <pt x="74" y="-226" on="0"/>
        <pt x="84" y="-223" on="0"/>
        <pt x="94" y="-222" on="1"/>
        <pt x="120" y="-220" on="0"/>
        <pt x="158" y="-209" on="0"/>
        <pt x="182" y="-197" on="0"/>
        <pt x="194" y="-187" on="0"/>
        <pt x="195" y="-186" on="1"/>
        <pt x="207" y="-173" on="0"/>
        <pt x="221" y="-155" on="0"/>
        <pt x="227" y="-132" on="0"/>
        <pt x="228" y="-101" on="0"/>
        <pt x="228" y="-76" on="1"/>
        <pt x="228" y="104" on="1"/>
        <pt x="228" y="127" on="0"/>
        <pt x="229" y="145" on="0"/>
        <pt x="231" y="154" on="1"/>
        <pt x="242" y="192" on="0"/>
        <pt x="302" y="237" on="0"/>
        <pt x="344" y="250" on="1"/>
        <pt x="301" y="263" on="0"/>
        <pt x="253" y="299" on="0"/>
        <pt x="232" y="338" on="0"/>
        <pt x="228" y="378" on="0"/>
        <pt x="228" y="394" on="1"/>
        <pt x="228" y="604" on="1"/>
        <pt x="228" y="615" on="0"/>
        <pt x="228" y="627" on="0"/>
        <pt x="226" y="635" on="1"/>
        <pt x="223" y="649" on="0"/>
        <pt x="206" y="678" on="0"/>
        <pt x="174" y="702" on="0"/>
        <pt x="126" y="720" on="0"/>
        <pt x="91" y="722" on="1"/>
        <pt x="85" y="723" on="0"/>
        <pt x="74" y="726" on="0"/>
        <pt x="74" y="736" on="1"/>
        <pt x="74" y="747" on="0"/>
        <pt x="88" y="750" on="0"/>
        <pt x="98" y="750" on="1"/>
        <pt x="115" y="750" on="0"/>
        <pt x="154" y="746" on="0"/>
        <pt x="195" y="736" on="0"/>
        <pt x="234" y="722" on="0"/>
        <pt x="250" y="711" on="1"/>
        <pt x="270" y="698" on="0"/>
        <pt x="291" y="669" on="0"/>
        <pt x="301" y="641" on="0"/>
        <pt x="303" y="615" on="0"/>
        <pt x="303" y="604" on="1"/>
      </contour>
    </TTGlyph>
    <TTGlyph name="bullet" xMin="59" yMin="43" xMax="471" yMax="457">
      <contour>
        <pt x="471" y="250" on="1"/>
        <pt x="471" y="207" on="0"/>
        <pt x="439" y="131" on="0"/>
        <pt x="383" y="75" on="0"/>
        <pt x="308" y="43" on="0"/>
        <pt x="265" y="43" on="1"/>
        <pt x="222" y="43" on="0"/>
        <pt x="147" y="75" on="0"/>
        <pt x="91" y="131" on="0"/>
        <pt x="59" y="207" on="0"/>
        <pt x="59" y="250" on="1"/>
        <pt x="59" y="293" on="0"/>
        <pt x="91" y="369" on="0"/>
        <pt x="147" y="425" on="0"/>
        <pt x="222" y="457" on="0"/>
        <pt x="265" y="457" on="1"/>
        <pt x="308" y="457" on="0"/>
        <pt x="383" y="425" on="0"/>
        <pt x="439" y="369" on="0"/>
        <pt x="471" y="293" on="0"/>
      </contour>
    </TTGlyph>
    <TTGlyph name="circlecopyrt" xMin="59" yMin="-215" xMax="1003" yMax="715">
      <contour>
        <pt x="1003" y="250" on="1"/>
        <pt x="1003" y="154" on="0"/>
        <pt x="929" y="-15" on="0"/>
        <pt x="800" y="-142" on="0"/>
        <pt x="629" y="-215" on="0"/>
        <pt x="531" y="-215" on="1"/>
        <pt x="433" y="-215" on="0"/>
        <pt x="261" y="-142" on="0"/>
        <pt x="133" y="-15" on="0"/>
        <pt x="59" y="154" on="0"/>
        <pt x="59" y="250" on="1"/>
        <pt x="59" y="346" on="0"/>
        <pt x="133" y="515" on="0"/>
        <pt x="262" y="642" on="0"/>
        <pt x="434" y="715" on="0"/>
        <pt x="531" y="715" on="1"/>
        <pt x="629" y="715" on="0"/>
        <pt x="801" y="642" on="0"/>
        <pt x="929" y="515" on="0"/>
        <pt x="1003" y="346" on="0"/>
      </contour>
      <contour>
        <pt x="531" y="-169" on="1"/>
        <pt x="620" y="-169" on="0"/>
        <pt x="775" y="-103" on="0"/>
        <pt x="890" y="11" on="0"/>
        <pt x="957" y="163" on="0"/>
        <pt x="957" y="250" on="1"/>
        <pt x="957" y="337" on="0"/>
        <pt x="890" y="489" on="0"/>
        <pt x="775" y="603" on="0"/>
        <pt x="620" y="669" on="0"/>
        <pt x="531" y="669" on="1"/>
        <pt x="443" y="669" on="0"/>
        <pt x="287" y="603" on="0"/>
        <pt x="172" y="489" on="0"/>
        <pt x="105" y="337" on="0"/>
        <pt x="105" y="250" on="1"/>
        <pt x="105" y="163" on="0"/>
        <pt x="172" y="11" on="0"/>
        <pt x="287" y="-103" on="0"/>
        <pt x="443" y="-169" on="0"/>
      </contour>
    </TTGlyph>
    <TTGlyph name="circlemultiply" xMin="59" yMin="-104" xMax="766" yMax="604">
      <contour>
        <pt x="766" y="250" on="1"/>
        <pt x="766" y="177" on="0"/>
        <pt x="711" y="48" on="0"/>
        <pt x="615" y="-48" on="0"/>
        <pt x="486" y="-104" on="0"/>
        <pt x="412" y="-104" on="1"/>
        <pt x="340" y="-104" on="0"/>
        <pt x="211" y="-49" on="0"/>
        <pt x="115" y="47" on="0"/>
        <pt x="59" y="176" on="0"/>
        <pt x="59" y="250" on="1"/>
        <pt x="59" y="323" on="0"/>
        <pt x="114" y="452" on="0"/>
        <pt x="210" y="548" on="0"/>
        <pt x="339" y="604" on="0"/>
        <pt x="413" y="604" on="1"/>
        <pt x="485" y="604" on="0"/>
        <pt x="614" y="549" on="0"/>
        <pt x="710" y="453" on="0"/>
        <pt x="766" y="324" on="0"/>
      </contour>
      <contour>
        <pt x="413" y="272" on="1"/>
        <pt x="629" y="489" on="1"/>
        <pt x="602" y="514" on="0"/>
        <pt x="545" y="546" on="0"/>
        <pt x="488" y="565" on="0"/>
        <pt x="435" y="573" on="0"/>
        <pt x="412" y="573" on="1"/>
        <pt x="394" y="573" on="0"/>
        <pt x="344" y="567" on="0"/>
        <pt x="287" y="549" on="0"/>
        <pt x="225" y="516" on="0"/>
        <pt x="196" y="489" on="1"/>
      </contour>
      <contour>
        <pt x="391" y="250" on="1"/>
        <pt x="174" y="467" on="1"/>
        <pt x="131" y="422" on="0"/>
        <pt x="90" y="307" on="0"/>
        <pt x="90" y="250" on="1"/>
        <pt x="90" y="192" on="0"/>
        <pt x="132" y="78" on="0"/>
        <pt x="174" y="33" on="1"/>
      </contour>
      <contour>
        <pt x="434" y="250" on="1"/>
        <pt x="651" y="33" on="1"/>
        <pt x="694" y="78" on="0"/>
        <pt x="735" y="193" on="0"/>
        <pt x="735" y="250" on="1"/>
        <pt x="735" y="308" on="0"/>
        <pt x="693" y="422" on="0"/>
        <pt x="651" y="467" on="1"/>
      </contour>
      <contour>
        <pt x="412" y="228" on="1"/>
        <pt x="196" y="11" on="1"/>
        <pt x="223" y="-14" on="0"/>
        <pt x="280" y="-46" on="0"/>
        <pt x="337" y="-65" on="0"/>
        <pt x="390" y="-73" on="0"/>
        <pt x="413" y="-73" on="1"/>
        <pt x="431" y="-73" on="0"/>
        <pt x="481" y="-67" on="0"/>
        <pt x="538" y="-49" on="0"/>
        <pt x="600" y="-16" on="0"/>
        <pt x="629" y="11" on="1"/>
      </contour>
    </TTGlyph>
    <TTGlyph name="circleplus" xMin="59" yMin="-104" xMax="766" yMax="604">
      <contour>
        <pt x="766" y="250" on="1"/>
        <pt x="766" y="177" on="0"/>
        <pt x="711" y="48" on="0"/>
        <pt x="615" y="-48" on="0"/>
        <pt x="486" y="-104" on="0"/>
        <pt x="412" y="-104" on="1"/>
        <pt x="340" y="-104" on="0"/>
        <pt x="211" y="-49" on="0"/>
        <pt x="115" y="47" on="0"/>
        <pt x="59" y="176" on="0"/>
        <pt x="59" y="250" on="1"/>
        <pt x="59" y="323" on="0"/>
        <pt x="114" y="452" on="0"/>
        <pt x="210" y="548" on="0"/>
        <pt x="339" y="604" on="0"/>
        <pt x="413" y="604" on="1"/>
        <pt x="485" y="604" on="0"/>
        <pt x="614" y="549" on="0"/>
        <pt x="710" y="453" on="0"/>
        <pt x="766" y="324" on="0"/>
      </contour>
      <contour>
        <pt x="397" y="266" on="1"/>
        <pt x="397" y="573" on="1"/>
        <pt x="334" y="570" on="0"/>
        <pt x="225" y="519" on="0"/>
        <pt x="143" y="437" on="0"/>
        <pt x="93" y="328" on="0"/>
        <pt x="90" y="266" on="1"/>
      </contour>
      <contour>
        <pt x="428" y="266" on="1"/>
        <pt x="735" y="266" on="1"/>
        <pt x="732" y="328" on="0"/>
        <pt x="682" y="437" on="0"/>
        <pt x="600" y="519" on="0"/>
        <pt x="491" y="570" on="0"/>
        <pt x="428" y="573" on="1"/>
      </contour>
      <contour>
        <pt x="397" y="235" on="1"/>
        <pt x="90" y="235" on="1"/>
        <pt x="93" y="172" on="0"/>
        <pt x="143" y="63" on="0"/>
        <pt x="226" y="-20" on="0"/>
        <pt x="335" y="-70" on="0"/>
        <pt x="397" y="-73" on="1"/>
      </contour>
      <contour>
        <pt x="428" y="235" on="1"/>
        <pt x="428" y="-73" on="1"/>
        <pt x="490" y="-70" on="0"/>
        <pt x="599" y="-20" on="0"/>
        <pt x="682" y="62" on="0"/>
        <pt x="732" y="172" on="0"/>
        <pt x="735" y="235" on="1"/>
      </contour>
    </TTGlyph>
    <TTGlyph name="club" xMin="29" yMin="-130" xMax="797" yMax="725">
      <contour>
        <pt x="551" y="322" on="1"/>
        <pt x="555" y="327" on="0"/>
        <pt x="571" y="343" on="0"/>
        <pt x="595" y="358" on="0"/>
        <pt x="628" y="368" on="0"/>
        <pt x="648" y="368" on="1"/>
        <pt x="684" y="368" on="0"/>
        <pt x="740" y="334" on="0"/>
        <pt x="777" y="280" on="0"/>
        <pt x="797" y="211" on="0"/>
        <pt x="797" y="175" on="1"/>
        <pt x="797" y="135" on="0"/>
        <pt x="770" y="64" on="0"/>
        <pt x="723" y="10" on="0"/>
        <pt x="659" y="-21" on="0"/>
        <pt x="622" y="-21" on="1"/>
        <pt x="604" y="-21" on="0"/>
        <pt x="562" y="-12" on="0"/>
        <pt x="525" y="9" on="0"/>
        <pt x="500" y="44" on="0"/>
        <pt x="499" y="70" on="1"/>
        <pt x="436" y="70" on="1"/>
        <pt x="436" y="27" on="0"/>
        <pt x="449" y="-52" on="0"/>
        <pt x="461" y="-90" on="1"/>
        <pt x="464" y="-100" on="0"/>
        <pt x="465" y="-105" on="0"/>
        <pt x="465" y="-107" on="1"/>
        <pt x="465" y="-124" on="0"/>
        <pt x="439" y="-130" on="0"/>
        <pt x="427" y="-130" on="1"/>
        <pt x="399" y="-130" on="1"/>
        <pt x="387" y="-130" on="0"/>
        <pt x="361" y="-124" on="0"/>
        <pt x="361" y="-107" on="1"/>
        <pt x="361" y="-105" on="0"/>
        <pt x="362" y="-101" on="0"/>
        <pt x="365" y="-93" on="1"/>
        <pt x="375" y="-59" on="0"/>
        <pt x="390" y="20" on="0"/>
        <pt x="390" y="70" on="1"/>
        <pt x="327" y="70" on="1"/>
        <pt x="326" y="44" on="0"/>
        <pt x="301" y="9" on="0"/>
        <pt x="265" y="-12" on="0"/>
        <pt x="222" y="-21" on="0"/>
        <pt x="204" y="-21" on="1"/>
        <pt x="167" y="-21" on="0"/>
        <pt x="103" y="10" on="0"/>
        <pt x="56" y="64" on="0"/>
        <pt x="29" y="135" on="0"/>
        <pt x="29" y="175" on="1"/>
        <pt x="29" y="211" on="0"/>
        <pt x="49" y="280" on="0"/>
        <pt x="86" y="334" on="0"/>
        <pt x="142" y="368" on="0"/>
        <pt x="178" y="368" on="1"/>
        <pt x="218" y="368" on="0"/>
        <pt x="266" y="334" on="0"/>
        <pt x="275" y="322" on="1"/>
        <pt x="302" y="373" on="1"/>
        <pt x="265" y="401" on="0"/>
        <pt x="224" y="483" on="0"/>
        <pt x="224" y="531" on="1"/>
        <pt x="224" y="570" on="0"/>
        <pt x="253" y="640" on="0"/>
        <pt x="304" y="694" on="0"/>
        <pt x="373" y="725" on="0"/>
        <pt x="413" y="725" on="1"/>
        <pt x="452" y="725" on="0"/>
        <pt x="521" y="694" on="0"/>
        <pt x="572" y="642" on="0"/>
        <pt x="602" y="571" on="0"/>
        <pt x="602" y="530" on="1"/>
        <pt x="602" y="488" on="0"/>
        <pt x="564" y="404" on="0"/>
        <pt x="524" y="373" on="1"/>
      </contour>
    </TTGlyph>
    <TTGlyph name="dagger" xMin="59" yMin="-215" xMax="412" yMax="704">
      <contour>
        <pt x="248" y="417" on="1"/>
        <pt x="249" y="406" on="0"/>
        <pt x="253" y="379" on="0"/>
        <pt x="258" y="354" on="0"/>
        <pt x="261" y="336" on="0"/>
        <pt x="261" y="335" on="1"/>
        <pt x="266" y="315" on="0"/>
        <pt x="270" y="286" on="0"/>
        <pt x="273" y="261" on="0"/>
        <pt x="273" y="236" on="0"/>
        <pt x="273" y="219" on="1"/>
        <pt x="273" y="183" on="0"/>
        <pt x="271" y="103" on="0"/>
        <pt x="268" y="29" on="0"/>
        <pt x="265" y="-30" on="0"/>
        <pt x="264" y="-46" on="1"/>
        <pt x="263" y="-63" on="0"/>
        <pt x="260" y="-102" on="0"/>
        <pt x="257" y="-142" on="0"/>
        <pt x="254" y="-180" on="0"/>
        <pt x="252" y="-196" on="1"/>
        <pt x="250" y="-205" on="0"/>
        <pt x="246" y="-215" on="0"/>
        <pt x="235" y="-215" on="1"/>
        <pt x="224" y="-215" on="0"/>
        <pt x="221" y="-205" on="0"/>
        <pt x="219" y="-194" on="1"/>
        <pt x="218" y="-184" on="0"/>
        <pt x="211" y="-104" on="0"/>
        <pt x="204" y="10" on="0"/>
        <pt x="198" y="149" on="0"/>
        <pt x="198" y="219" on="1"/>
        <pt x="198" y="238" on="0"/>
        <pt x="198" y="264" on="0"/>
        <pt x="201" y="289" on="0"/>
        <pt x="206" y="320" on="0"/>
        <pt x="211" y="344" on="1"/>
        <pt x="216" y="364" on="0"/>
        <pt x="221" y="397" on="0"/>
        <pt x="223" y="417" on="1"/>
        <pt x="216" y="416" on="0"/>
        <pt x="205" y="415" on="0"/>
        <pt x="194" y="413" on="0"/>
        <pt x="181" y="410" on="0"/>
        <pt x="171" y="407" on="1"/>
        <pt x="157" y="402" on="0"/>
        <pt x="117" y="393" on="0"/>
        <pt x="100" y="393" on="1"/>
        <pt x="87" y="393" on="0"/>
        <pt x="70" y="402" on="0"/>
        <pt x="62" y="414" on="0"/>
        <pt x="59" y="427" on="0"/>
        <pt x="59" y="431" on="1"/>
        <pt x="59" y="433" on="0"/>
        <pt x="61" y="444" on="0"/>
        <pt x="69" y="458" on="0"/>
        <pt x="85" y="468" on="0"/>
        <pt x="100" y="468" on="1"/>
        <pt x="112" y="468" on="0"/>
        <pt x="142" y="462" on="0"/>
        <pt x="153" y="459" on="1"/>
        <pt x="170" y="455" on="0"/>
        <pt x="189" y="450" on="0"/>
        <pt x="202" y="447" on="0"/>
        <pt x="214" y="445" on="0"/>
        <pt x="223" y="444" on="1"/>
        <pt x="221" y="471" on="0"/>
        <pt x="214" y="527" on="0"/>
        <pt x="208" y="566" on="1"/>
        <pt x="200" y="608" on="0"/>
        <pt x="198" y="657" on="0"/>
        <pt x="198" y="659" on="1"/>
        <pt x="198" y="662" on="0"/>
        <pt x="199" y="677" on="0"/>
        <pt x="206" y="692" on="0"/>
        <pt x="222" y="704" on="0"/>
        <pt x="236" y="704" on="1"/>
        <pt x="248" y="704" on="0"/>
        <pt x="263" y="694" on="0"/>
        <pt x="271" y="680" on="0"/>
        <pt x="273" y="665" on="0"/>
        <pt x="273" y="659" on="1"/>
        <pt x="273" y="636" on="0"/>
        <pt x="268" y="589" on="0"/>
        <pt x="263" y="566" on="1"/>
        <pt x="259" y="542" on="0"/>
        <pt x="254" y="507" on="0"/>
        <pt x="251" y="478" on="0"/>
        <pt x="249" y="455" on="0"/>
        <pt x="248" y="444" on="1"/>
        <pt x="263" y="446" on="0"/>
        <pt x="281" y="449" on="0"/>
        <pt x="300" y="454" on="1"/>
        <pt x="314" y="459" on="0"/>
        <pt x="354" y="468" on="0"/>
        <pt x="371" y="468" on="1"/>
        <pt x="385" y="468" on="0"/>
        <pt x="401" y="459" on="0"/>
        <pt x="409" y="447" on="0"/>
        <pt x="412" y="434" on="0"/>
        <pt x="412" y="430" on="1"/>
        <pt x="412" y="429" on="0"/>
        <pt x="410" y="417" on="0"/>
        <pt x="402" y="403" on="0"/>
        <pt x="386" y="393" on="0"/>
        <pt x="371" y="393" on="1"/>
        <pt x="359" y="393" on="0"/>
        <pt x="329" y="399" on="0"/>
        <pt x="318" y="402" on="1"/>
        <pt x="302" y="407" on="0"/>
        <pt x="282" y="411" on="0"/>
        <pt x="269" y="414" on="0"/>
        <pt x="257" y="416" on="0"/>
      </contour>
    </TTGlyph>
    <TTGlyph name="daggerdbl" xMin="59" yMin="-204" xMax="412" yMax="704">
      <contour>
        <pt x="248" y="464" on="1"/>
        <pt x="248" y="459" on="0"/>
        <pt x="253" y="420" on="0"/>
        <pt x="261" y="379" on="1"/>
        <pt x="266" y="356" on="0"/>
        <pt x="273" y="310" on="0"/>
        <pt x="273" y="293" on="1"/>
        <pt x="273" y="265" on="0"/>
        <pt x="245" y="250" on="0"/>
        <pt x="235" y="250" on="1"/>
        <pt x="234" y="250" on="0"/>
        <pt x="222" y="251" on="0"/>
        <pt x="208" y="259" on="0"/>
        <pt x="198" y="277" on="0"/>
        <pt x="198" y="293" on="1"/>
        <pt x="198" y="302" on="0"/>
        <pt x="202" y="342" on="0"/>
        <pt x="209" y="374" on="1"/>
        <pt x="211" y="389" on="0"/>
        <pt x="221" y="443" on="0"/>
        <pt x="223" y="464" on="1"/>
        <pt x="221" y="464" on="0"/>
        <pt x="195" y="459" on="0"/>
        <pt x="177" y="454" on="1"/>
        <pt x="159" y="449" on="0"/>
        <pt x="135" y="444" on="0"/>
        <pt x="118" y="441" on="0"/>
        <pt x="107" y="440" on="0"/>
        <pt x="101" y="440" on="1"/>
        <pt x="74" y="440" on="0"/>
        <pt x="59" y="466" on="0"/>
        <pt x="59" y="477" on="1"/>
        <pt x="59" y="492" on="0"/>
        <pt x="80" y="514" on="0"/>
        <pt x="97" y="514" on="1"/>
        <pt x="117" y="514" on="0"/>
        <pt x="152" y="507" on="0"/>
        <pt x="169" y="502" on="1"/>
        <pt x="180" y="499" on="0"/>
        <pt x="206" y="492" on="0"/>
        <pt x="223" y="490" on="1"/>
        <pt x="223" y="495" on="0"/>
        <pt x="218" y="534" on="0"/>
        <pt x="210" y="575" on="1"/>
        <pt x="205" y="598" on="0"/>
        <pt x="198" y="644" on="0"/>
        <pt x="198" y="661" on="1"/>
        <pt x="198" y="675" on="0"/>
        <pt x="206" y="692" on="0"/>
        <pt x="218" y="701" on="0"/>
        <pt x="231" y="704" on="0"/>
        <pt x="236" y="704" on="1"/>
        <pt x="238" y="704" on="0"/>
        <pt x="249" y="703" on="0"/>
        <pt x="263" y="695" on="0"/>
        <pt x="273" y="677" on="0"/>
        <pt x="273" y="661" on="1"/>
        <pt x="273" y="652" on="0"/>
        <pt x="269" y="612" on="0"/>
        <pt x="262" y="580" on="1"/>
        <pt x="260" y="565" on="0"/>
        <pt x="250" y="511" on="0"/>
        <pt x="248" y="490" on="1"/>
        <pt x="265" y="492" on="0"/>
        <pt x="296" y="499" on="0"/>
        <pt x="313" y="504" on="1"/>
        <pt x="327" y="509" on="0"/>
        <pt x="358" y="514" on="0"/>
        <pt x="374" y="514" on="1"/>
        <pt x="391" y="514" on="0"/>
        <pt x="412" y="492" on="0"/>
        <pt x="412" y="477" on="1"/>
        <pt x="412" y="466" on="0"/>
        <pt x="397" y="440" on="0"/>
        <pt x="370" y="440" on="1"/>
        <pt x="356" y="440" on="0"/>
        <pt x="327" y="445" on="0"/>
        <pt x="302" y="453" on="1"/>
        <pt x="292" y="455" on="0"/>
        <pt x="264" y="462" on="0"/>
      </contour>
      <contour>
        <pt x="248" y="9" on="1"/>
        <pt x="249" y="-1" on="0"/>
        <pt x="253" y="-28" on="0"/>
        <pt x="258" y="-56" on="0"/>
        <pt x="263" y="-80" on="0"/>
        <pt x="264" y="-86" on="1"/>
        <pt x="270" y="-117" on="0"/>
        <pt x="273" y="-155" on="0"/>
        <pt x="273" y="-161" on="1"/>
        <pt x="273" y="-175" on="0"/>
        <pt x="265" y="-192" on="0"/>
        <pt x="253" y="-201" on="0"/>
        <pt x="240" y="-204" on="0"/>
        <pt x="235" y="-204" on="1"/>
        <pt x="234" y="-204" on="0"/>
        <pt x="222" y="-203" on="0"/>
        <pt x="208" y="-195" on="0"/>
        <pt x="198" y="-177" on="0"/>
        <pt x="198" y="-161" on="1"/>
        <pt x="198" y="-158" on="0"/>
        <pt x="200" y="-121" on="0"/>
        <pt x="208" y="-86" on="1"/>
        <pt x="208" y="-83" on="0"/>
        <pt x="213" y="-60" on="0"/>
        <pt x="218" y="-31" on="0"/>
        <pt x="222" y="-2" on="0"/>
        <pt x="223" y="9" on="1"/>
        <pt x="216" y="8" on="0"/>
        <pt x="205" y="7" on="0"/>
        <pt x="194" y="5" on="0"/>
        <pt x="181" y="2" on="0"/>
        <pt x="171" y="-1" on="1"/>
        <pt x="157" y="-6" on="0"/>
        <pt x="117" y="-15" on="0"/>
        <pt x="100" y="-15" on="1"/>
        <pt x="87" y="-15" on="0"/>
        <pt x="70" y="-6" on="0"/>
        <pt x="62" y="6" on="0"/>
        <pt x="59" y="19" on="0"/>
        <pt x="59" y="23" on="1"/>
        <pt x="59" y="25" on="0"/>
        <pt x="61" y="36" on="0"/>
        <pt x="69" y="50" on="0"/>
        <pt x="85" y="60" on="0"/>
        <pt x="100" y="60" on="1"/>
        <pt x="112" y="60" on="0"/>
        <pt x="142" y="54" on="0"/>
        <pt x="153" y="51" on="1"/>
        <pt x="170" y="47" on="0"/>
        <pt x="189" y="42" on="0"/>
        <pt x="202" y="39" on="0"/>
        <pt x="214" y="37" on="0"/>
        <pt x="223" y="36" on="1"/>
        <pt x="222" y="46" on="0"/>
        <pt x="218" y="73" on="0"/>
        <pt x="213" y="101" on="0"/>
        <pt x="209" y="125" on="0"/>
        <pt x="207" y="131" on="1"/>
        <pt x="201" y="162" on="0"/>
        <pt x="198" y="200" on="0"/>
        <pt x="198" y="206" on="1"/>
        <pt x="198" y="220" on="0"/>
        <pt x="206" y="237" on="0"/>
        <pt x="218" y="246" on="0"/>
        <pt x="231" y="249" on="0"/>
        <pt x="236" y="249" on="1"/>
        <pt x="238" y="249" on="0"/>
        <pt x="249" y="248" on="0"/>
        <pt x="263" y="240" on="0"/>
        <pt x="273" y="222" on="0"/>
        <pt x="273" y="206" on="1"/>
        <pt x="273" y="203" on="0"/>
        <pt x="271" y="166" on="0"/>
        <pt x="263" y="131" on="1"/>
        <pt x="263" y="128" on="0"/>
        <pt x="258" y="105" on="0"/>
        <pt x="253" y="76" on="0"/>
        <pt x="249" y="47" on="0"/>
        <pt x="248" y="36" on="1"/>
        <pt x="256" y="37" on="0"/>
        <pt x="267" y="39" on="0"/>
        <pt x="279" y="41" on="0"/>
        <pt x="295" y="45" on="0"/>
        <pt x="307" y="49" on="1"/>
        <pt x="324" y="54" on="0"/>
        <pt x="357" y="60" on="0"/>
        <pt x="371" y="60" on="1"/>
        <pt x="385" y="60" on="0"/>
        <pt x="401" y="51" on="0"/>
        <pt x="409" y="39" on="0"/>
        <pt x="412" y="26" on="0"/>
        <pt x="412" y="22" on="1"/>
        <pt x="412" y="21" on="0"/>
        <pt x="410" y="9" on="0"/>
        <pt x="402" y="-5" on="0"/>
        <pt x="386" y="-15" on="0"/>
        <pt x="371" y="-15" on="1"/>
        <pt x="359" y="-15" on="0"/>
        <pt x="329" y="-9" on="0"/>
        <pt x="318" y="-6" on="1"/>
        <pt x="302" y="-2" on="0"/>
        <pt x="282" y="3" on="0"/>
        <pt x="269" y="6" on="0"/>
        <pt x="257" y="8" on="0"/>
      </contour>
    </TTGlyph>
    <TTGlyph name="diamond" xMin="59" yMin="-161" xMax="767" yMax="725">
      <contour>
        <pt x="767" y="282" on="1"/>
        <pt x="767" y="274" on="0"/>
        <pt x="759" y="264" on="0"/>
        <pt x="746" y="253" on="1"/>
        <pt x="649" y="170" on="0"/>
        <pt x="497" y="-29" on="0"/>
        <pt x="437" y="-141" on="1"/>
        <pt x="432" y="-149" on="0"/>
        <pt x="424" y="-161" on="0"/>
        <pt x="413" y="-161" on="1"/>
        <pt x="403" y="-161" on="0"/>
        <pt x="394" y="-150" on="0"/>
        <pt x="389" y="-142" on="1"/>
        <pt x="374" y="-115" on="0"/>
        <pt x="323" y="-27" on="0"/>
        <pt x="246" y="81" on="0"/>
        <pt x="141" y="201" on="0"/>
        <pt x="73" y="259" on="1"/>
        <pt x="68" y="264" on="0"/>
        <pt x="59" y="274" on="0"/>
        <pt x="59" y="282" on="1"/>
        <pt x="59" y="290" on="0"/>
        <pt x="68" y="300" on="0"/>
        <pt x="80" y="311" on="1"/>
        <pt x="177" y="394" on="0"/>
        <pt x="329" y="593" on="0"/>
        <pt x="389" y="705" on="1"/>
        <pt x="394" y="713" on="0"/>
        <pt x="402" y="725" on="0"/>
        <pt x="413" y="725" on="1"/>
        <pt x="423" y="725" on="0"/>
        <pt x="432" y="714" on="0"/>
        <pt x="437" y="706" on="1"/>
        <pt x="452" y="679" on="0"/>
        <pt x="502" y="592" on="0"/>
        <pt x="579" y="485" on="0"/>
        <pt x="682" y="366" on="0"/>
        <pt x="749" y="308" on="1"/>
        <pt x="760" y="299" on="0"/>
        <pt x="767" y="290" on="0"/>
      </contour>
      <contour>
        <pt x="413" y="-89" on="1"/>
        <pt x="457" y="-15" on="0"/>
        <pt x="531" y="92" on="0"/>
        <pt x="601" y="176" on="0"/>
        <pt x="670" y="245" on="0"/>
        <pt x="708" y="282" on="1"/>
        <pt x="670" y="319" on="0"/>
        <pt x="601" y="388" on="0"/>
        <pt x="531" y="472" on="0"/>
        <pt x="457" y="579" on="0"/>
        <pt x="413" y="653" on="1"/>
        <pt x="370" y="579" on="0"/>
        <pt x="295" y="472" on="0"/>
        <pt x="225" y="388" on="0"/>
        <pt x="156" y="319" on="0"/>
        <pt x="118" y="282" on="1"/>
        <pt x="156" y="245" on="0"/>
        <pt x="225" y="176" on="0"/>
        <pt x="295" y="92" on="0"/>
        <pt x="370" y="-15" on="0"/>
      </contour>
    </TTGlyph>
    <TTGlyph name="divide" xMin="59" yMin="-49" xMax="766" yMax="549">
      <contour>
        <pt x="479" y="482" on="1"/>
        <pt x="479" y="456" on="0"/>
        <pt x="441" y="416" on="0"/>
        <pt x="412" y="416" on="1"/>
        <pt x="386" y="416" on="0"/>
        <pt x="346" y="454" on="0"/>
        <pt x="346" y="483" on="1"/>
        <pt x="346" y="509" on="0"/>
        <pt x="384" y="549" on="0"/>
        <pt x="413" y="549" on="1"/>
        <pt x="439" y="549" on="0"/>
        <pt x="479" y="511" on="0"/>
      </contour>
      <contour>
        <pt x="479" y="17" on="1"/>
        <pt x="479" y="-9" on="0"/>
        <pt x="441" y="-49" on="0"/>
        <pt x="412" y="-49" on="1"/>
        <pt x="386" y="-49" on="0"/>
        <pt x="346" y="-11" on="0"/>
        <pt x="346" y="18" on="1"/>
        <pt x="346" y="44" on="0"/>
        <pt x="384" y="84" on="0"/>
        <pt x="413" y="84" on="1"/>
        <pt x="439" y="84" on="0"/>
        <pt x="479" y="46" on="0"/>
      </contour>
      <contour>
        <pt x="728" y="273" on="1"/>
        <pt x="740" y="273" on="0"/>
        <pt x="766" y="267" on="0"/>
        <pt x="766" y="250" on="1"/>
        <pt x="766" y="233" on="0"/>
        <pt x="740" y="227" on="0"/>
        <pt x="728" y="227" on="1"/>
        <pt x="97" y="227" on="1"/>
        <pt x="85" y="227" on="0"/>
        <pt x="59" y="233" on="0"/>
        <pt x="59" y="250" on="1"/>
        <pt x="59" y="267" on="0"/>
        <pt x="85" y="273" on="0"/>
        <pt x="97" y="273" on="1"/>
      </contour>
    </TTGlyph>
    <TTGlyph name="element" xMin="88" yMin="-64" xMax="619" yMax="564">
      <contour>
        <pt x="135" y="227" on="1"/>
        <pt x="140" y="175" on="0"/>
        <pt x="186" y="85" on="0"/>
        <pt x="261" y="19" on="0"/>
        <pt x="359" y="-18" on="0"/>
        <pt x="416" y="-18" on="1"/>
        <pt x="581" y="-18" on="1"/>
        <pt x="593" y="-18" on="0"/>
        <pt x="619" y="-24" on="0"/>
        <pt x="619" y="-41" on="1"/>
        <pt x="619" y="-58" on="0"/>
        <pt x="593" y="-64" on="0"/>
        <pt x="581" y="-64" on="1"/>
        <pt x="413" y="-64" on="1"/>
        <pt x="346" y="-64" on="0"/>
        <pt x="228" y="-15" on="0"/>
        <pt x="139" y="70" on="0"/>
        <pt x="88" y="184" on="0"/>
        <pt x="88" y="250" on="1"/>
        <pt x="88" y="315" on="0"/>
        <pt x="139" y="430" on="0"/>
        <pt x="227" y="515" on="0"/>
        <pt x="346" y="564" on="0"/>
        <pt x="413" y="564" on="1"/>
        <pt x="581" y="564" on="1"/>
        <pt x="593" y="564" on="0"/>
        <pt x="619" y="558" on="0"/>
        <pt x="619" y="541" on="1"/>
        <pt x="619" y="524" on="0"/>
        <pt x="593" y="518" on="0"/>
        <pt x="581" y="518" on="1"/>
        <pt x="416" y="518" on="1"/>
        <pt x="359" y="518" on="0"/>
        <pt x="261" y="481" on="0"/>
        <pt x="186" y="415" on="0"/>
        <pt x="140" y="325" on="0"/>
        <pt x="135" y="273" on="1"/>
        <pt x="581" y="273" on="1"/>
        <pt x="593" y="273" on="0"/>
        <pt x="619" y="267" on="0"/>
        <pt x="619" y="250" on="1"/>
        <pt x="619" y="233" on="0"/>
        <pt x="593" y="227" on="0"/>
        <pt x="581" y="227" on="1"/>
      </contour>
    </TTGlyph>
    <TTGlyph name="emptyset" xMin="48" yMin="-77" xMax="482" yMax="771">
      <contour>
        <pt x="141" y="26" on="1"/>
        <pt x="106" y="55" on="0"/>
        <pt x="68" y="144" on="0"/>
        <pt x="51" y="236" on="0"/>
        <pt x="48" y="320" on="0"/>
        <pt x="48" y="344" on="1"/>
        <pt x="48" y="422" on="0"/>
        <pt x="63" y="536" on="0"/>
        <pt x="86" y="589" on="1"/>
        <pt x="103" y="628" on="0"/>
        <pt x="149" y="677" on="0"/>
        <pt x="198" y="705" on="0"/>
        <pt x="246" y="715" on="0"/>
        <pt x="265" y="715" on="1"/>
        <pt x="309" y="715" on="0"/>
        <pt x="349" y="695" on="1"/>
        <pt x="353" y="707" on="0"/>
        <pt x="358" y="727" on="0"/>
        <pt x="363" y="741" on="1"/>
        <pt x="368" y="755" on="0"/>
        <pt x="376" y="771" on="0"/>
        <pt x="389" y="771" on="1"/>
        <pt x="399" y="771" on="0"/>
        <pt x="412" y="757" on="0"/>
        <pt x="412" y="748" on="1"/>
        <pt x="412" y="744" on="0"/>
        <pt x="402" y="711" on="0"/>
        <pt x="388" y="668" on="1"/>
        <pt x="423" y="638" on="0"/>
        <pt x="461" y="548" on="0"/>
        <pt x="479" y="454" on="0"/>
        <pt x="482" y="368" on="0"/>
        <pt x="482" y="344" on="1"/>
        <pt x="482" y="287" on="0"/>
        <pt x="469" y="154" on="0"/>
        <pt x="440" y="94" on="1"/>
        <pt x="421" y="55" on="0"/>
        <pt x="373" y="10" on="0"/>
        <pt x="325" y="-14" on="0"/>
        <pt x="281" y="-21" on="0"/>
        <pt x="265" y="-21" on="1"/>
        <pt x="238" y="-21" on="0"/>
        <pt x="193" y="-7" on="0"/>
        <pt x="181" y="-2" on="1"/>
        <pt x="181" y="-3" on="0"/>
        <pt x="178" y="-14" on="0"/>
        <pt x="173" y="-27" on="0"/>
        <pt x="169" y="-42" on="0"/>
        <pt x="167" y="-47" on="1"/>
        <pt x="162" y="-61" on="0"/>
        <pt x="154" y="-77" on="0"/>
        <pt x="141" y="-77" on="1"/>
        <pt x="131" y="-77" on="0"/>
        <pt x="118" y="-63" on="0"/>
        <pt x="118" y="-54" on="1"/>
      </contour>
      <contour>
        <pt x="338" y="662" on="1"/>
        <pt x="327" y="670" on="0"/>
        <pt x="289" y="687" on="0"/>
        <pt x="265" y="687" on="1"/>
        <pt x="253" y="687" on="0"/>
        <pt x="215" y="679" on="0"/>
        <pt x="177" y="652" on="0"/>
        <pt x="144" y="603" on="0"/>
        <pt x="135" y="562" on="1"/>
        <pt x="126" y="516" on="0"/>
        <pt x="123" y="412" on="0"/>
        <pt x="123" y="357" on="1"/>
        <pt x="123" y="322" on="0"/>
        <pt x="124" y="243" on="0"/>
        <pt x="130" y="167" on="0"/>
        <pt x="144" y="100" on="0"/>
        <pt x="157" y="77" on="1"/>
      </contour>
      <contour>
        <pt x="192" y="33" on="1"/>
        <pt x="200" y="27" on="0"/>
        <pt x="239" y="7" on="0"/>
        <pt x="265" y="7" on="1"/>
        <pt x="279" y="7" on="0"/>
        <pt x="317" y="16" on="0"/>
        <pt x="354" y="45" on="0"/>
        <pt x="386" y="98" on="0"/>
        <pt x="395" y="142" on="1"/>
        <pt x="404" y="191" on="0"/>
        <pt x="407" y="304" on="0"/>
        <pt x="407" y="357" on="1"/>
        <pt x="407" y="395" on="0"/>
        <pt x="406" y="470" on="0"/>
        <pt x="400" y="539" on="0"/>
        <pt x="386" y="598" on="0"/>
        <pt x="374" y="620" on="1"/>
      </contour>
    </TTGlyph>
    <TTGlyph name="equivalence" xMin="59" yMin="16" xMax="766" yMax="484">
      <contour>
        <pt x="98" y="438" on="1"/>
        <pt x="85" y="438" on="0"/>
        <pt x="59" y="444" on="0"/>
        <pt x="59" y="461" on="1"/>
        <pt x="59" y="478" on="0"/>
        <pt x="85" y="484" on="0"/>
        <pt x="97" y="484" on="1"/>
        <pt x="728" y="484" on="1"/>
        <pt x="740" y="484" on="0"/>
        <pt x="766" y="478" on="0"/>
        <pt x="766" y="461" on="1"/>
        <pt x="766" y="444" on="0"/>
        <pt x="740" y="438" on="0"/>
        <pt x="727" y="438" on="1"/>
      </contour>
      <contour>
        <pt x="97" y="16" on="1"/>
        <pt x="85" y="16" on="0"/>
        <pt x="59" y="22" on="0"/>
        <pt x="59" y="39" on="1"/>
        <pt x="59" y="56" on="0"/>
        <pt x="85" y="62" on="0"/>
        <pt x="98" y="62" on="1"/>
        <pt x="727" y="62" on="1"/>
        <pt x="740" y="62" on="0"/>
        <pt x="766" y="56" on="0"/>
        <pt x="766" y="39" on="1"/>
        <pt x="766" y="22" on="0"/>
        <pt x="740" y="16" on="0"/>
        <pt x="728" y="16" on="1"/>
      </contour>
      <contour>
        <pt x="97" y="227" on="1"/>
        <pt x="85" y="227" on="0"/>
        <pt x="59" y="233" on="0"/>
        <pt x="59" y="250" on="1"/>
        <pt x="59" y="267" on="0"/>
        <pt x="85" y="273" on="0"/>
        <pt x="97" y="273" on="1"/>
        <pt x="728" y="273" on="1"/>
        <pt x="740" y="273" on="0"/>
        <pt x="766" y="267" on="0"/>
        <pt x="766" y="250" on="1"/>
        <pt x="766" y="233" on="0"/>
        <pt x="740" y="227" on="0"/>
        <pt x="728" y="227" on="1"/>
      </contour>
    </TTGlyph>
    <TTGlyph name="existential" xMin="59" yMin="0" xMax="530" yMax="694">
      <contour>
        <pt x="530" y="38" on="1"/>
        <pt x="530" y="12" on="0"/>
        <pt x="517" y="0" on="0"/>
        <pt x="492" y="0" on="1"/>
        <pt x="97" y="0" on="1"/>
        <pt x="85" y="0" on="0"/>
        <pt x="59" y="6" on="0"/>
        <pt x="59" y="23" on="1"/>
        <pt x="59" y="40" on="0"/>
        <pt x="85" y="46" on="0"/>
        <pt x="97" y="46" on="1"/>
        <pt x="484" y="46" on="1"/>
        <pt x="484" y="324" on="1"/>
        <pt x="112" y="324" on="1"/>
        <pt x="100" y="324" on="0"/>
        <pt x="74" y="330" on="0"/>
        <pt x="74" y="347" on="1"/>
        <pt x="74" y="364" on="0"/>
        <pt x="100" y="370" on="0"/>
        <pt x="112" y="370" on="1"/>
        <pt x="484" y="370" on="1"/>
        <pt x="484" y="648" on="1"/>
        <pt x="97" y="648" on="1"/>
        <pt x="85" y="648" on="0"/>
        <pt x="59" y="654" on="0"/>
        <pt x="59" y="671" on="1"/>
        <pt x="59" y="688" on="0"/>
        <pt x="85" y="694" on="0"/>
        <pt x="97" y="694" on="1"/>
        <pt x="492" y="694" on="1"/>
        <pt x="518" y="694" on="0"/>
        <pt x="530" y="681" on="0"/>
        <pt x="530" y="656" on="1"/>
      </contour>
    </TTGlyph>
    <TTGlyph name="followsequal" xMin="88" yMin="-170" xMax="737" yMax="669">
      <contour>
        <pt x="427" y="355" on="1"/>
        <pt x="387" y="363" on="0"/>
        <pt x="296" y="391" on="0"/>
        <pt x="210" y="436" on="0"/>
        <pt x="137" y="501" on="0"/>
        <pt x="115" y="546" on="1"/>
        <pt x="96" y="587" on="0"/>
        <pt x="88" y="644" on="0"/>
        <pt x="88" y="645" on="1"/>
        <pt x="88" y="656" on="0"/>
        <pt x="103" y="669" on="0"/>
        <pt x="111" y="669" on="1"/>
        <pt x="125" y="669" on="0"/>
        <pt x="133" y="649" on="0"/>
        <pt x="135" y="638" on="1"/>
        <pt x="153" y="521" on="0"/>
        <pt x="369" y="400" on="0"/>
        <pt x="560" y="384" on="1"/>
        <pt x="592" y="381" on="0"/>
        <pt x="641" y="378" on="0"/>
        <pt x="674" y="378" on="1"/>
        <pt x="706" y="378" on="0"/>
        <pt x="720" y="378" on="0"/>
        <pt x="721" y="376" on="1"/>
        <pt x="724" y="375" on="0"/>
        <pt x="737" y="366" on="0"/>
        <pt x="737" y="355" on="1"/>
        <pt x="737" y="346" on="0"/>
        <pt x="729" y="337" on="0"/>
        <pt x="719" y="333" on="0"/>
        <pt x="710" y="332" on="0"/>
        <pt x="708" y="332" on="1"/>
        <pt x="608" y="332" on="0"/>
        <pt x="413" y="311" on="0"/>
        <pt x="255" y="255" on="0"/>
        <pt x="148" y="155" on="0"/>
        <pt x="136" y="76" on="1"/>
        <pt x="134" y="61" on="0"/>
        <pt x="125" y="41" on="0"/>
        <pt x="111" y="41" on="1"/>
        <pt x="103" y="41" on="0"/>
        <pt x="88" y="54" on="0"/>
        <pt x="88" y="65" on="1"/>
        <pt x="88" y="67" on="0"/>
        <pt x="92" y="103" on="0"/>
        <pt x="110" y="157" on="0"/>
        <pt x="147" y="220" on="0"/>
        <pt x="180" y="248" on="1"/>
        <pt x="188" y="255" on="0"/>
        <pt x="223" y="282" on="0"/>
        <pt x="282" y="312" on="0"/>
        <pt x="368" y="343" on="0"/>
      </contour>
      <contour>
        <pt x="699" y="-124" on="1"/>
        <pt x="711" y="-124" on="0"/>
        <pt x="737" y="-130" on="0"/>
        <pt x="737" y="-147" on="1"/>
        <pt x="737" y="-164" on="0"/>
        <pt x="711" y="-170" on="0"/>
        <pt x="699" y="-170" on="1"/>
        <pt x="126" y="-170" on="1"/>
        <pt x="114" y="-170" on="0"/>
        <pt x="88" y="-164" on="0"/>
        <pt x="88" y="-147" on="1"/>
        <pt x="88" y="-130" on="0"/>
        <pt x="114" y="-124" on="0"/>
        <pt x="126" y="-124" on="1"/>
      </contour>
    </TTGlyph>
    <TTGlyph name="gradient" xMin="51" yMin="-31" xMax="833" yMax="683">
      <contour>
        <pt x="472" y="-9" on="1"/>
        <pt x="466" y="-20" on="0"/>
        <pt x="456" y="-31" on="0"/>
        <pt x="442" y="-31" on="1"/>
        <pt x="428" y="-31" on="0"/>
        <pt x="418" y="-20" on="0"/>
        <pt x="412" y="-9" on="1"/>
        <pt x="58" y="656" on="1"/>
        <pt x="53" y="665" on="0"/>
        <pt x="51" y="672" on="0"/>
        <pt x="51" y="673" on="1"/>
        <pt x="51" y="681" on="0"/>
        <pt x="63" y="683" on="0"/>
        <pt x="77" y="683" on="1"/>
        <pt x="807" y="683" on="1"/>
        <pt x="821" y="683" on="0"/>
        <pt x="833" y="681" on="0"/>
        <pt x="833" y="673" on="1"/>
        <pt x="833" y="672" on="0"/>
        <pt x="831" y="665" on="0"/>
        <pt x="826" y="656" on="1"/>
      </contour>
      <contour>
        <pt x="474" y="64" on="1"/>
        <pt x="762" y="606" on="1"/>
        <pt x="186" y="606" on="1"/>
      </contour>
    </TTGlyph>
    <TTGlyph name="greaterequal" xMin="88" yMin="-170" xMax="737" yMax="669">
      <contour>
        <pt x="129" y="48" on="1"/>
        <pt x="119" y="43" on="0"/>
        <pt x="113" y="41" on="0"/>
        <pt x="111" y="41" on="1"/>
        <pt x="101" y="41" on="0"/>
        <pt x="88" y="54" on="0"/>
        <pt x="88" y="64" on="1"/>
        <pt x="88" y="75" on="0"/>
        <pt x="100" y="84" on="0"/>
        <pt x="113" y="90" on="1"/>
        <pt x="661" y="355" on="1"/>
        <pt x="109" y="621" on="1"/>
        <pt x="100" y="626" on="0"/>
        <pt x="88" y="636" on="0"/>
        <pt x="88" y="646" on="1"/>
        <pt x="88" y="655" on="0"/>
        <pt x="101" y="669" on="0"/>
        <pt x="111" y="669" on="1"/>
        <pt x="113" y="669" on="0"/>
        <pt x="120" y="667" on="0"/>
        <pt x="131" y="662" on="1"/>
        <pt x="716" y="380" on="1"/>
        <pt x="725" y="375" on="0"/>
        <pt x="737" y="365" on="0"/>
        <pt x="737" y="355" on="1"/>
        <pt x="737" y="345" on="0"/>
        <pt x="725" y="335" on="0"/>
        <pt x="716" y="330" on="1"/>
      </contour>
      <contour>
        <pt x="126" y="-170" on="1"/>
        <pt x="114" y="-170" on="0"/>
        <pt x="88" y="-164" on="0"/>
        <pt x="88" y="-147" on="1"/>
        <pt x="88" y="-130" on="0"/>
        <pt x="114" y="-124" on="0"/>
        <pt x="127" y="-124" on="1"/>
        <pt x="698" y="-124" on="1"/>
        <pt x="710" y="-124" on="0"/>
        <pt x="737" y="-130" on="0"/>
        <pt x="737" y="-147" on="1"/>
        <pt x="737" y="-164" on="0"/>
        <pt x="711" y="-170" on="0"/>
        <pt x="699" y="-170" on="1"/>
      </contour>
    </TTGlyph>
</ttFont>
